<svg width="215" height="266" viewBox="0 0 215 266" fill="none" xmlns="http://www.w3.org/2000/svg">
<path d="M145.1 246.773H193.819V261.837C193.819 264.047 192.028 265.837 189.819 265.837H149.1C146.89 265.837 145.1 264.047 145.1 261.837V246.773Z" fill="#BC991B"/>
<path d="M22.2402 246.773H70.9594V261.837C70.9594 264.047 69.1686 265.837 66.9594 265.837H26.2402C24.0311 265.837 22.2402 264.047 22.2402 261.837V246.773Z" fill="#BC991B"/>
<path d="M161.757 0H54.2726C50.4345 0 47.1372 2.7258 46.4154 6.49543L1.81911 239.387C0.874675 244.319 4.65469 248.892 9.67634 248.892H205.362C210.37 248.892 214.147 244.342 213.225 239.419L169.62 6.52771C168.912 2.74299 165.607 0 161.757 0Z" fill="#E9BB17"/>
<path d="M141.69 21.1824H73.4058C69.5376 21.1824 66.2234 23.95 65.5339 27.7563L41.9546 157.914C41.0653 162.823 44.8373 167.34 49.8265 167.34H167.156C172.191 167.34 175.974 162.745 175.007 157.804L149.541 27.6463C148.807 23.8914 145.516 21.1824 141.69 21.1824Z" fill="#6F219E"/>
<path d="M92.0254 46.542H101.558V66.6651M101.558 66.6651H92.0254M101.558 66.6651V87.8474M101.558 87.8474H92.0254M101.558 87.8474V109.03M101.558 109.03H92.0254M101.558 109.03V130.212M101.558 130.212H92.0254M101.558 130.212V151.394H92.0254" stroke="#FF912C" stroke-width="5"/>
<path d="M126.555 46.542H117.023V66.6651M117.023 66.6651H126.555M117.023 66.6651V87.8474M117.023 87.8474H126.555M117.023 87.8474V109.03M117.023 109.03H126.555M117.023 109.03V130.212M117.023 130.212H126.555M117.023 130.212V151.394H126.555" stroke="#FF912C" stroke-width="5"/>
<path d="M98.4395 167.34V21.1824H120.681V167.34H98.4395Z" fill="#E7F2E7"/>
<path d="M94.261 167.34L59.3102 110.148L34.9506 85.7882L40.2462 82.6109L4.23633 24.3597L19.0639 14.8276L56.1329 73.0789L61.4284 69.9015L74.1378 101.675L117.561 167.34H94.261Z" fill="#BF8BDF"/>
<path d="M95.3203 224.532C99.9098 229.475 111.631 236.394 121.798 224.532" stroke="black" stroke-linecap="round"/>
<path d="M61.429 69.9014L34.9512 85.7881L59.3108 110.148L74.1384 101.675L61.429 69.9014Z" fill="#E7F2E7"/>
<path d="M97 212C103.627 212 109 206.627 109 200C109 193.373 103.627 188 97 188C90.3726 188 85 193.373 85 200C85 206.627 90.3726 212 97 212Z" fill="white"/>
<path d="M121 212C127.627 212 133 206.627 133 200C133 193.373 127.627 188 121 188C114.373 188 109 193.373 109 200C109 206.627 114.373 212 121 212Z" fill="white"/>
<path d="M102.205 200.5C102.645 200.5 103.007 200.858 102.944 201.293C102.878 201.743 102.757 202.183 102.582 202.605C102.306 203.272 101.901 203.878 101.39 204.389C100.879 204.9 100.273 205.305 99.6053 205.581C98.938 205.858 98.2228 206 97.5005 206C96.7782 206 96.063 205.858 95.3957 205.581C94.7285 205.305 94.1221 204.9 93.6114 204.389C93.1007 203.878 92.6956 203.272 92.4192 202.605C92.2446 202.183 92.1235 201.743 92.058 201.293C91.9946 200.858 92.3568 200.5 92.7964 200.5C93.2359 200.5 93.5841 200.86 93.673 201.29C93.7227 201.531 93.7952 201.767 93.8898 201.996C94.0862 202.47 94.374 202.901 94.737 203.264C95.0999 203.626 95.5307 203.914 96.0049 204.111C96.479 204.307 96.9873 204.408 97.5005 204.408C98.0137 204.408 98.5219 204.307 98.9961 204.111C99.4703 203.914 99.9011 203.626 100.265 203.264C100.627 202.901 100.915 202.47 101.112 201.996C101.206 201.767 101.279 201.531 101.328 201.29C101.417 200.86 101.766 200.5 102.205 200.5Z" fill="#292626"/>
<path d="M126.205 200.5C126.645 200.5 127.007 200.858 126.944 201.293C126.878 201.743 126.757 202.183 126.582 202.605C126.306 203.272 125.901 203.878 125.39 204.389C124.879 204.9 124.273 205.305 123.606 205.581C122.938 205.858 122.223 206 121.501 206C120.779 206 120.064 205.858 119.396 205.581C118.729 205.305 118.123 204.9 117.612 204.389C117.101 203.878 116.696 203.272 116.42 202.605C116.245 202.183 116.124 201.743 116.058 201.293C115.995 200.858 116.357 200.5 116.797 200.5C117.236 200.5 117.585 200.86 117.674 201.29C117.723 201.531 117.796 201.767 117.89 201.996C118.087 202.47 118.375 202.901 118.737 203.264C119.1 203.626 119.531 203.914 120.005 204.111C120.48 204.307 120.988 204.408 121.501 204.408C122.014 204.408 122.522 204.307 122.997 204.111C123.471 203.914 123.902 203.626 124.265 203.264C124.627 202.901 124.915 202.47 125.112 201.996C125.206 201.767 125.279 201.531 125.328 201.29C125.417 200.86 125.766 200.5 126.205 200.5Z" fill="#292626"/>
</svg>
