<svg width="5" height="14" viewBox="0 0 5 14" fill="none" xmlns="http://www.w3.org/2000/svg">
<path d="M1.18943 9.45223L1.1674 10.9236V11.1688C1.1674 11.6592 1.18943 12.1497 1.25551 12.6401C2.2467 11.793 3.30396 10.8567 3.30396 9.5414C3.30396 8.80573 2.99559 8.04777 2.35683 8.04777C1.67401 8.04777 1.21145 8.71656 1.18943 9.45223ZM0.264317 13.4427L0 0.178344C0.176211 0.0668783 0.396476 0 0.594714 0C0.792952 0 1.01322 0.0668783 1.18943 0.178344L1.03524 7.86943C1.5859 7.40127 2.31278 7.11146 3.03965 7.11146C4.18502 7.11146 5 8.18153 5 9.38535C5 11.1688 3.10573 11.9936 1.76211 13.1529C1.43172 13.4427 1.23348 14 0.770925 14C0.484581 14 0.264317 13.7548 0.264317 13.4427Z" fill="#1C1A1A"/>
</svg>
