<svg width="592" height="277" viewBox="0 0 592 277" fill="none" xmlns="http://www.w3.org/2000/svg">
<path d="M237.961 23.5L243.726 40.1757L249.492 56.8513C258.508 82.926 251.616 88.5675 233.769 107.773C215.923 126.978 197.664 146.959 190.766 154.549C184.14 162.271 170.864 183.154 170.769 204.911C170.673 226.668 175.947 246.116 178.595 253.121" stroke="url(#paint0_linear_1073_12236)" stroke-width="10" stroke-linecap="round"/>
<path d="M230.39 171.853C178.776 188.3 171.464 234.383 174.26 255.37C174.456 257.181 176.715 258.46 178.216 259.032C178.583 259.172 178.976 259.224 179.369 259.224H382.006C388.2 259.738 389.748 254.299 389.748 251.515V52.939C389.748 52.5554 389.694 52.1671 389.574 51.8026C386.933 43.7341 381.739 46.202 379.425 48.506L367.301 62.3898C366.792 62.9721 366.118 63.3988 365.372 63.6027C344.454 69.3213 333.783 65.8059 331.037 63.282L316.743 49.0487C316.383 48.6902 315.959 48.3973 315.483 48.2197C309.51 45.9914 306.545 49.0376 305.523 51.4858C305.289 52.0473 305.3 52.6661 305.399 53.2666C307.125 63.8324 304.32 91.9435 302.649 105.04C300.069 120.459 282.004 155.407 230.39 171.853Z" fill="#E9BB17"/>
<path d="M217.85 250.398V237.544C223.634 237.544 223.634 237.544 223.634 232.403V206.695H234.559C234.345 213.336 234.559 227.747 234.559 232.403C234.559 237.544 234.559 237.544 239.701 237.544V250.398H217.85Z" fill="#FEFCFF"/>
<path d="M244.842 250.397V237.544C250.626 237.544 250.626 237.544 250.626 231.873V205.41H261.552C261.338 212.246 261.552 227.08 261.552 231.873C261.552 237.544 261.552 237.544 266.694 237.544V250.397H244.842Z" fill="#FEFCFF"/>
<path d="M325.82 250.397V236.258C330.448 236.258 331.604 236.258 331.604 231.873V205.41H342.53C342.316 212.246 342.53 227.082 342.53 231.873C342.53 236.901 342.53 236.258 347.672 236.258V250.397H325.82Z" fill="#FEFCFF"/>
<path d="M293.687 250.397H271.836V237.544C277.62 237.544 277.62 238.187 277.62 233.413V205.41H293.687V250.397Z" fill="#FEFCFF"/>
<path d="M375.951 250.397H354.1V236.258C360.526 236.258 359.884 236.258 359.884 232.623V205.41H375.951V250.397Z" fill="#FEFCFF"/>
<path d="M298.826 250.397H320.678V236.258C314.894 236.258 314.894 236.258 314.894 232.623V205.41H298.826V250.397Z" fill="#FEFCFF"/>
<path d="M211.423 250.397V237.544C205.639 237.544 205.639 236.901 205.639 231.782V211.836C195.356 218.751 191.5 240.425 190.857 250.397H211.423Z" fill="#FEFCFF"/>
<path d="M331.248 108.258C340.361 108.258 347.748 100.871 347.748 91.7583C347.748 82.6456 340.361 75.2583 331.248 75.2583C322.135 75.2583 314.748 82.6456 314.748 91.7583C314.748 100.871 322.135 108.258 331.248 108.258Z" fill="white"/>
<path d="M364.248 108.258C373.361 108.258 380.748 100.871 380.748 91.7583C380.748 82.6456 373.361 75.2583 364.248 75.2583C355.135 75.2583 347.748 82.6456 347.748 91.7583C347.748 100.871 355.135 108.258 364.248 108.258Z" fill="white"/>
<path d="M338.664 93.2583C339.263 93.2583 339.756 93.7461 339.68 94.3407C339.593 95.0191 339.425 95.6844 339.178 96.3198C338.801 97.2904 338.249 98.1723 337.552 98.9152C336.856 99.658 336.029 100.247 335.119 100.649C334.209 101.051 333.234 101.258 332.249 101.258C331.264 101.258 330.289 101.051 329.379 100.649C328.469 100.247 327.642 99.658 326.946 98.9152C326.249 98.1723 325.697 97.2904 325.32 96.3198C325.073 95.6844 324.905 95.0191 324.818 94.3407C324.742 93.7461 325.235 93.2583 325.834 93.2583C326.434 93.2583 326.91 93.748 327.017 94.3378C327.084 94.7124 327.188 95.0796 327.325 95.4337C327.593 96.1234 327.986 96.7501 328.481 97.278C328.975 97.8059 329.563 98.2246 330.21 98.5103C330.856 98.796 331.549 98.943 332.249 98.943C332.949 98.943 333.642 98.796 334.289 98.5103C334.935 98.2246 335.523 97.8059 336.017 97.278C336.512 96.7501 336.905 96.1234 337.173 95.4337C337.31 95.0796 337.414 94.7124 337.481 94.3378C337.588 93.748 338.064 93.2583 338.664 93.2583Z" fill="#292626"/>
<path d="M371.664 93.2583C372.263 93.2583 372.756 93.7461 372.68 94.3407C372.593 95.0191 372.425 95.6844 372.178 96.3198C371.801 97.2904 371.249 98.1723 370.552 98.9152C369.856 99.658 369.029 100.247 368.119 100.649C367.209 101.051 366.234 101.258 365.249 101.258C364.264 101.258 363.289 101.051 362.379 100.649C361.469 100.247 360.642 99.658 359.946 98.9152C359.249 98.1723 358.697 97.2904 358.32 96.3198C358.073 95.6844 357.905 95.0191 357.818 94.3407C357.742 93.7461 358.235 93.2583 358.834 93.2583C359.434 93.2583 359.91 93.748 360.017 94.3378C360.084 94.7124 360.188 95.0796 360.325 95.4337C360.593 96.1234 360.986 96.7501 361.481 97.278C361.975 97.8059 362.563 98.2246 363.21 98.5103C363.856 98.796 364.549 98.943 365.249 98.943C365.949 98.943 366.642 98.796 367.289 98.5103C367.935 98.2246 368.523 97.8059 369.017 97.278C369.512 96.7501 369.905 96.1234 370.173 95.4337C370.31 95.0796 370.414 94.7124 370.481 94.3378C370.588 93.748 371.064 93.2583 371.664 93.2583Z" fill="#292626"/>
<path d="M342 117.592C344.167 115.259 349.7 111.992 354.5 117.592" stroke="black" stroke-linecap="round"/>
<path d="M309.42 48.5C308.253 56.3333 308.82 71.1 320.42 67.5C332.02 63.9 317.92 53.3333 309.42 48.5Z" fill="#6F219E"/>
<path d="M386.349 47.5312C388.095 55.2561 388.629 70.0239 376.794 67.2972C364.958 64.5706 378.232 52.9839 386.349 47.5312Z" fill="#6F219E"/>
<g clip-path="url(#clip0_1073_12236)">
<path d="M443.689 154.825L444.227 155.764L441.95 162.207C431.844 150.267 421.479 135.102 425.221 119.199C426.671 113.036 430.695 108.934 436.753 108.836C444.449 108.706 450.854 116.786 450.799 124.595L446.205 134.417L447.58 138.271L449.724 144.266L445.563 146.855L440.811 149.815L443.689 154.825Z" fill="#C2370C"/>
<path d="M480.416 136.677C474.31 151.827 457.094 158.262 441.951 162.201L445.172 156.184L442.7 149.758L452.339 145.661L450.369 135.366L456.392 126.365C460.85 119.947 470.589 117.251 476.958 121.567C481.576 124.693 482.782 130.802 480.416 136.677Z" fill="#C2370C"/>
</g>
<g clip-path="url(#clip1_1073_12236)">
<path d="M118.801 214.082L119.765 214.571L121.399 221.207C106.398 216.772 89.4098 209.784 83.8096 194.438C81.6389 188.49 82.7519 182.852 87.7623 179.445C94.124 175.113 103.912 178.352 108.152 184.909L109.703 195.641L112.968 198.109L118.05 201.943L115.993 206.391L113.645 211.473L118.801 214.082Z" fill="#C2370C"/>
<path d="M139.543 178.754C142.754 194.769 131.894 209.597 121.398 221.201L120.788 214.403L115.195 210.388L121.003 201.673L113.706 194.148L113.801 183.319C114.005 175.507 120.666 167.908 128.359 168.021C133.935 168.099 138.297 172.544 139.543 178.754Z" fill="#C2370C"/>
</g>
<g clip-path="url(#clip2_1073_12236)">
<path d="M189.775 56.8327L190.677 57.4277L191.553 64.2051C177.147 58.108 161.055 49.2502 157.22 33.3701C155.733 27.2153 157.475 21.7386 162.837 18.9186C169.647 15.3307 179.007 19.652 182.482 26.6459L182.812 37.4839L185.778 40.304L190.397 44.6866L187.851 48.8741L184.945 53.6595L189.775 56.8327Z" fill="#C2370C"/>
<path d="M214.366 24.0669C215.751 40.3421 203.29 53.8517 191.552 64.1986L191.712 57.3753L186.607 52.7555L193.361 44.7509L186.958 36.4516L188.274 25.7019C189.356 17.9631 196.832 11.1631 204.463 12.1417C209.994 12.8478 213.828 17.7562 214.366 24.0669Z" fill="#C2370C"/>
</g>
<defs>
<linearGradient id="paint0_linear_1073_12236" x1="174.5" y1="253.5" x2="181" y2="79" gradientUnits="userSpaceOnUse">
<stop stop-color="#E9BB17"/>
<stop offset="0.0001" stop-color="#CCA20F"/>
<stop offset="1" stop-color="#E9BB17"/>
</linearGradient>
<clipPath id="clip0_1073_12236">
<rect width="58" height="50" fill="white" transform="translate(429.656 105.5) rotate(18.2475)"/>
</clipPath>
<clipPath id="clip1_1073_12236">
<rect width="58" height="50" fill="white" transform="translate(80 180.551) rotate(-15.0402)"/>
</clipPath>
<clipPath id="clip2_1073_12236">
<rect width="58" height="50" fill="white" transform="translate(155 19.1421) rotate(-8.56908)"/>
</clipPath>
</defs>
</svg>
