<svg width="480" height="280" viewBox="0 0 480 280" fill="none" xmlns="http://www.w3.org/2000/svg">
<g clip-path="url(#clip0_643_61159)">
<path d="M67.4177 89.1126L72.862 101.894L78.307 114.676C86.8211 134.662 81.7174 139.472 68.754 155.538C55.7908 171.603 42.5467 188.301 37.545 194.642C32.7646 201.071 23.4838 218.203 24.6039 235.298C25.724 252.393 30.9343 267.38 33.3995 272.737" stroke="url(#paint0_linear_643_61159)" stroke-width="10" stroke-linecap="round"/>
<path d="M69.6201 206.057C29.9816 221.811 26.7693 258.41 30.118 274.741C30.372 276.153 32.2163 277.034 33.4265 277.401C33.7229 277.49 34.0342 277.51 34.3431 277.488L193.511 266.358C198.405 266.421 199.322 262.064 199.169 259.877L188.262 103.899C188.241 103.598 188.177 103.296 188.063 103.016C185.545 96.8235 181.601 99.0473 179.91 100.984L171.149 112.556C170.781 113.041 170.275 113.413 169.701 113.614C153.584 119.255 145.009 117.08 142.713 115.248L130.704 104.853C130.401 104.592 130.052 104.385 129.669 104.271C124.855 102.849 122.693 105.405 122.025 107.384C121.872 107.838 121.914 108.323 122.025 108.79C123.961 116.994 123.302 139.229 122.709 149.608C121.529 161.861 109.259 190.304 69.6201 206.057Z" fill="#E9BB17"/>
<path d="M64.084 268.442L63.378 258.345C67.9214 258.028 67.9214 258.028 67.639 253.989L66.227 233.796L74.8089 233.196C75.0053 238.424 75.9652 249.732 76.2209 253.389C76.5033 257.427 76.5033 257.427 80.5419 257.145L81.248 267.242L64.084 268.442Z" fill="#FEFCFF"/>
<path d="M85.2854 266.958L84.5795 256.863C89.1227 256.545 89.1227 256.545 88.8112 252.091L87.3577 231.304L95.9399 230.704C96.1473 236.085 97.1301 247.726 97.3934 251.49C97.7049 255.945 97.7049 255.945 101.744 255.662L102.45 265.758L85.2854 266.958Z" fill="#FEFCFF"/>
<path d="M148.893 262.511L148.116 251.405C151.751 251.15 152.659 251.087 152.419 247.643L150.965 226.856L159.547 226.256C159.755 231.638 160.738 243.279 161.001 247.043C161.277 250.992 161.242 250.487 165.281 250.204L166.057 261.31L148.893 262.511Z" fill="#FEFCFF"/>
<path d="M123.652 264.276L106.489 265.476L105.783 255.38C110.326 255.062 110.361 255.567 110.099 251.817L108.561 229.822L121.181 228.939L123.652 264.276Z" fill="#FEFCFF"/>
<path d="M188.269 259.757L171.106 260.957L170.329 249.851C175.377 249.498 174.872 249.534 174.673 246.679L173.178 225.303L185.798 224.421L188.269 259.757Z" fill="#FEFCFF"/>
<path d="M127.69 263.993L144.854 262.793L144.078 251.687C139.534 252.005 139.534 252.005 139.335 249.15L137.84 227.774L125.219 228.657L127.69 263.993Z" fill="#FEFCFF"/>
<path d="M59.0359 268.794L58.3299 258.698C53.7865 259.016 53.7512 258.511 53.47 254.49L52.3745 238.823C44.6772 244.819 42.8388 262.056 42.8817 269.924L59.0359 268.794Z" fill="#FEFCFF"/>
<path d="M145.349 150.565C152.507 150.064 157.904 143.856 157.403 136.698C156.903 129.54 150.695 124.143 143.537 124.644C136.379 125.144 130.982 131.353 131.482 138.511C131.983 145.669 138.191 151.065 145.349 150.565Z" fill="white"/>
<path d="M171.271 148.752C178.429 148.252 183.826 142.043 183.325 134.885C182.825 127.728 176.616 122.331 169.459 122.831C162.301 123.332 156.904 129.54 157.404 136.698C157.905 143.856 164.113 149.253 171.271 148.752Z" fill="white"/>
<path d="M150.351 138.375C150.821 138.342 151.235 138.698 151.208 139.17C151.177 139.707 151.082 140.239 150.923 140.752C150.68 141.535 150.295 142.258 149.788 142.88C149.282 143.501 148.665 144.01 147.972 144.376C147.279 144.741 146.525 144.957 145.751 145.012C144.977 145.066 144.2 144.957 143.463 144.691C142.727 144.425 142.045 144.008 141.457 143.462C140.869 142.917 140.387 142.255 140.037 141.513C139.808 141.027 139.64 140.514 139.534 139.986C139.442 139.523 139.802 139.113 140.273 139.08C140.744 139.047 141.145 139.406 141.261 139.863C141.335 140.154 141.436 140.436 141.564 140.707C141.812 141.234 142.155 141.705 142.573 142.092C142.99 142.48 143.475 142.776 143.999 142.965C144.522 143.154 145.074 143.231 145.624 143.193C146.174 143.154 146.71 143.001 147.203 142.741C147.694 142.481 148.133 142.12 148.492 141.678C148.852 141.236 149.126 140.722 149.299 140.166C149.387 139.88 149.449 139.586 149.481 139.288C149.532 138.819 149.879 138.408 150.351 138.375Z" fill="#292626"/>
<path d="M176.271 136.563C176.741 136.53 177.155 136.886 177.128 137.357C177.097 137.895 177.002 138.427 176.842 138.939C176.6 139.722 176.215 140.445 175.708 141.067C175.202 141.689 174.585 142.197 173.892 142.563C173.199 142.929 172.445 143.145 171.671 143.199C170.897 143.253 170.12 143.144 169.383 142.878C168.646 142.612 167.964 142.195 167.377 141.65C166.789 141.104 166.307 140.442 165.957 139.7C165.728 139.215 165.56 138.701 165.454 138.173C165.362 137.711 165.722 137.3 166.193 137.267C166.664 137.234 167.065 137.593 167.181 138.05C167.255 138.341 167.356 138.624 167.483 138.894C167.732 139.421 168.075 139.892 168.493 140.279C168.91 140.667 169.395 140.964 169.919 141.152C170.442 141.341 170.994 141.419 171.544 141.38C172.094 141.342 172.63 141.188 173.123 140.928C173.614 140.668 174.053 140.307 174.412 139.865C174.772 139.424 175.046 138.91 175.219 138.353C175.307 138.068 175.369 137.773 175.401 137.476C175.452 137.006 175.799 136.596 176.271 136.563Z" fill="#292626"/>
<path d="M154.137 154.877C155.967 156.591 160.493 158.853 163.955 154.19" stroke="black" stroke-linecap="round"/>
<path d="M124.922 104.825C124.435 111.042 125.692 122.61 134.606 119.145C143.519 115.68 131.864 108.154 124.922 104.825Z" fill="#6F219E"/>
<path d="M185.294 99.8383C187.09 105.81 188.321 117.381 178.875 115.889C169.428 114.397 179.218 104.567 185.294 99.8383Z" fill="#6F219E"/>
</g>
<defs>
<linearGradient id="paint0_linear_643_61159" x1="30.2032" y1="273.259" x2="25.7242" y2="135.836" gradientUnits="userSpaceOnUse">
<stop stop-color="#E9BB17"/>
<stop offset="0.0001" stop-color="#CCA20F"/>
<stop offset="1" stop-color="#E9BB17"/>
</linearGradient>
<clipPath id="clip0_643_61159">
<rect width="480" height="280" fill="white"/>
</clipPath>
</defs>
</svg>
