<svg width="316" height="235" viewBox="0 0 316 235" fill="none" xmlns="http://www.w3.org/2000/svg">
<path d="M307.714 92.9004C304.255 93.7256 294.188 98.1737 291.853 102.671C291.023 104.269 292.667 105.621 294.455 105.809C299.215 106.308 306.525 107.23 302.324 109.1C296.935 111.5 293.542 114.1 291.545 113.9" stroke="#F1DBFF" stroke-width="3"/>
<path d="M7.68555 113.3C11.1449 114.125 21.2109 118.573 23.5469 123.07C24.3772 124.669 22.7328 126.021 20.9444 126.208C16.1847 126.707 8.87461 127.629 13.0753 129.5C18.465 131.9 21.8585 134.5 23.8547 134.3" stroke="#F1DBFF" stroke-width="3"/>
<path d="M307.115 122.9C305.461 122.9 304.121 121.557 304.121 119.9C304.121 118.244 305.461 116.9 307.115 116.9C308.769 116.9 310.109 118.244 310.109 119.9C310.109 121.557 308.769 122.9 307.115 122.9Z" fill="#F1DBFF"/>
<path d="M8.28531 143.3C9.93902 143.3 11.2796 141.957 11.2796 140.3C11.2796 138.643 9.93902 137.3 8.28531 137.3C6.63161 137.3 5.29102 138.643 5.29102 140.3C5.29102 141.957 6.63161 143.3 8.28531 143.3Z" fill="#F1DBFF"/>
<path d="M314.901 130.7C300.528 130.7 294.54 131.9 293.342 132.5" stroke="#F1DBFF" stroke-width="3"/>
<path d="M0.5 151.1C14.8726 151.1 20.8612 152.3 22.0589 152.9" stroke="#F1DBFF" stroke-width="3"/>
<path d="M62.8731 162.118C48.4941 117.302 100.186 82.134 125.35 70.8321L130.557 68.2239C130.557 63.0076 113.086 39.4996 141.232 29.2996C158.965 22.873 165.186 25.6995 170.576 34.0997L182.62 57.7914L187.827 60.3995C199.321 40.6997 202.016 36.9239 220.88 46.6997C238.247 55.6997 236.419 68.2239 232.081 73.4403L224.271 83.8728C240.931 94.3054 252.039 112.563 255.51 120.387C258.331 126.746 272.635 149.219 250.303 188.199C228.015 227.103 172.207 233.612 140.97 229.929C116.077 226.995 77.0291 206.238 62.8731 162.118Z" fill="#E9BB17" stroke="#E9BB17"/>
<path d="M156.709 201.022C100.481 198.936 70.1471 165.05 59.7344 152.009C62.3375 175.482 71.9984 219.01 128.074 229.712C195.344 242.55 220.806 226.256 247.822 195.806C268.647 172.333 266.394 140.473 259.452 126.562C249.907 151.774 212.939 203.109 156.709 201.022Z" fill="#DEB41D" stroke="#D9AF1C" stroke-width="0.2"/>
<path d="M125.47 159.291C144.161 159.291 159.312 144.111 159.312 125.385C159.312 106.66 144.161 91.4795 125.47 91.4795C106.78 91.4795 91.6289 106.66 91.6289 125.385C91.6289 144.111 106.78 159.291 125.47 159.291Z" fill="white"/>
<path d="M193.152 159.291C211.842 159.291 226.994 144.111 226.994 125.385C226.994 106.66 211.842 91.4795 193.152 91.4795C174.462 91.4795 159.311 106.66 159.311 125.385C159.311 144.111 174.462 159.291 193.152 159.291Z" fill="white"/>
<path d="M141.434 127.994C142.682 127.994 143.71 129.013 143.53 130.25C143.344 131.529 143 132.783 142.504 133.982C141.72 135.882 140.569 137.606 139.118 139.059C137.668 140.513 135.947 141.666 134.051 142.452C132.156 143.238 130.125 143.643 128.074 143.643C126.023 143.643 123.992 143.238 122.096 142.452C120.202 141.666 118.48 140.513 117.03 139.059C115.579 137.606 114.429 135.882 113.644 133.982C113.148 132.783 112.804 131.529 112.618 130.25C112.438 129.013 113.467 127.994 114.715 127.994C115.963 127.994 116.952 129.018 117.205 130.243C117.346 130.928 117.552 131.6 117.82 132.249C118.378 133.598 119.195 134.825 120.226 135.857C121.257 136.89 122.48 137.708 123.827 138.267C125.173 138.827 126.617 139.113 128.074 139.113C129.532 139.113 130.975 138.827 132.321 138.267C133.668 137.708 134.892 136.89 135.922 135.857C136.953 134.825 137.77 133.598 138.328 132.249C138.596 131.6 138.802 130.928 138.944 130.243C139.196 129.018 140.184 127.994 141.434 127.994Z" fill="#292626"/>
<path d="M209.114 127.994C210.364 127.994 211.391 129.013 211.212 130.25C211.026 131.529 210.682 132.783 210.186 133.982C209.401 135.882 208.251 137.606 206.8 139.059C205.35 140.513 203.628 141.666 201.733 142.452C199.838 143.238 197.807 143.643 195.756 143.643C193.705 143.643 191.673 143.238 189.779 142.452C187.884 141.666 186.161 140.513 184.711 139.059C183.262 137.606 182.111 135.882 181.326 133.982C180.83 132.783 180.487 131.529 180.3 130.25C180.12 129.013 181.149 127.994 182.397 127.994C183.645 127.994 184.634 129.018 184.887 130.243C185.027 130.928 185.233 131.6 185.501 132.249C186.06 133.598 186.878 134.825 187.908 135.857C188.939 136.89 190.162 137.708 191.508 138.267C192.855 138.827 194.299 139.113 195.756 139.113C197.214 139.113 198.657 138.827 200.003 138.267C201.35 137.708 202.574 136.89 203.604 135.857C204.635 134.825 205.452 133.598 206.01 132.249C206.278 131.6 206.484 130.928 206.626 130.243C206.878 129.018 207.866 127.994 209.114 127.994Z" fill="#292626"/>
<path d="M288.09 121.481L283.061 121.665L283.428 131.744L283.887 144.341L288.916 144.158C290.708 138.038 289.113 126.49 288.09 121.481Z" fill="#C5A5F3" stroke="#75C973" stroke-width="0.2"/>
<path d="M33.4794 163.594L38.5091 163.409L38.1418 153.331L37.6828 140.732L32.6531 140.916C30.8616 147.037 32.4575 158.585 33.4794 163.594Z" fill="#C5A5F3" stroke="#75C973" stroke-width="0.2"/>
<path d="M56.1542 117.596L63.8421 181.397L44.031 177.704C41.3547 173.965 36.237 158.867 37.176 128.382L46.6652 122.989L41.2299 69.0905C71.2343 32.9198 156.876 -22.7692 259.407 43.8397L265.031 99.6182L277.331 103.438C280.737 110.269 286.529 129.985 282.45 154.203L263.65 160.538L257.287 96.7025L265.031 99.6182L259.407 43.8397C156.876 -22.7692 71.2343 32.9198 41.2299 69.0905L46.6652 122.989L56.1542 117.596Z" fill="#6F219E"/>
<path d="M46.6652 122.989L37.176 128.382C36.237 158.867 41.3547 173.965 44.031 177.704L63.8421 181.397L56.1542 117.596L46.6652 122.989ZM46.6652 122.989L41.2299 69.0905C71.2343 32.9198 156.876 -22.7692 259.407 43.8397L265.031 99.6182M265.031 99.6182L257.287 96.7025L263.65 160.538L282.45 154.203C286.529 129.985 280.737 110.269 277.331 103.438L265.031 99.6182Z" stroke="#6F219E"/>
<path d="M46.7996 175.763C43.812 166.034 38.5099 143.369 41.2028 130.555" stroke="#C5A5F3"/>
<path d="M273.443 106.003C276.084 116.196 280.524 139.862 277.154 152.981" stroke="#C5A5F3"/>
<path d="M138.238 178.1C145.919 185.344 165.537 195.486 182.554 178.1" stroke="black" stroke-linecap="round"/>
</svg>
