<svg width="254" height="243" viewBox="0 0 254 243" fill="none" xmlns="http://www.w3.org/2000/svg">
<path d="M101.961 6.5L107.726 23.1757L113.492 39.8513C122.508 65.926 115.616 71.5675 97.769 90.7726C79.9226 109.978 61.6643 129.959 54.7659 137.549C48.14 145.271 34.8643 166.154 34.7689 187.911C34.6735 209.668 39.9468 229.116 42.5954 236.121" stroke="url(#paint0_linear_1073_6156)" stroke-width="10" stroke-linecap="round"/>
<path d="M94.3899 154.853C42.7759 171.3 35.4639 217.383 38.2596 238.37C38.4564 240.181 40.7149 241.46 42.2156 242.032C42.5831 242.172 42.9758 242.224 43.3691 242.224H246.006C252.2 242.738 253.748 237.299 253.748 234.515V35.939C253.748 35.5554 253.694 35.1671 253.574 34.8026C250.933 26.7341 245.739 29.202 243.425 31.506L231.301 45.3898C230.792 45.9721 230.118 46.3988 229.372 46.6027C208.454 52.3213 197.783 48.8059 195.037 46.282L180.743 32.0487C180.383 31.6902 179.959 31.3973 179.483 31.2197C173.51 28.9914 170.545 32.0376 169.523 34.4858C169.289 35.0473 169.3 35.6661 169.399 36.2666C171.125 46.8324 168.32 74.9435 166.649 88.0402C164.069 103.459 146.004 138.407 94.3899 154.853Z" fill="#E9BB17"/>
<path d="M81.8496 233.398V220.544C87.6338 220.544 87.6338 220.544 87.6338 215.403V189.695H98.5594C98.3451 196.336 98.5594 210.747 98.5594 215.403C98.5594 220.544 98.5594 220.544 103.701 220.544V233.398H81.8496Z" fill="#FEFCFF"/>
<path d="M108.842 233.397V220.544C114.626 220.544 114.626 220.544 114.626 214.873V188.41H125.552C125.338 195.246 125.552 210.08 125.552 214.873C125.552 220.544 125.552 220.544 130.694 220.544V233.397H108.842Z" fill="#FEFCFF"/>
<path d="M189.82 233.397V219.258C194.448 219.258 195.604 219.258 195.604 214.873V188.41H206.53C206.316 195.246 206.53 210.082 206.53 214.873C206.53 219.901 206.53 219.258 211.672 219.258V233.397H189.82Z" fill="#FEFCFF"/>
<path d="M157.687 233.397H135.836V220.544C141.62 220.544 141.62 221.187 141.62 216.413V188.41H157.687V233.397Z" fill="#FEFCFF"/>
<path d="M239.951 233.397H218.1V219.258C224.526 219.258 223.884 219.258 223.884 215.623V188.41H239.951V233.397Z" fill="#FEFCFF"/>
<path d="M162.826 233.397H184.678V219.258C178.894 219.258 178.894 219.258 178.894 215.623V188.41H162.826V233.397Z" fill="#FEFCFF"/>
<path d="M75.4233 233.397V220.544C69.6391 220.544 69.6391 219.901 69.6391 214.782V194.836C59.3562 201.751 55.5001 223.425 54.8574 233.397H75.4233Z" fill="#FEFCFF"/>
<path d="M195.248 91.2583C204.361 91.2583 211.748 83.871 211.748 74.7583C211.748 65.6456 204.361 58.2583 195.248 58.2583C186.135 58.2583 178.748 65.6456 178.748 74.7583C178.748 83.871 186.135 91.2583 195.248 91.2583Z" fill="white"/>
<path d="M197 88.5C203.627 88.5 209 83.1274 209 76.5C209 69.8726 203.627 64.5 197 64.5C190.373 64.5 185 69.8726 185 76.5C185 83.1274 190.373 88.5 197 88.5Z" fill="#1C1A1A"/>
<path d="M228.248 91.2583C237.361 91.2583 244.748 83.871 244.748 74.7583C244.748 65.6456 237.361 58.2583 228.248 58.2583C219.135 58.2583 211.748 65.6456 211.748 74.7583C211.748 83.871 219.135 91.2583 228.248 91.2583Z" fill="white"/>
<path d="M206 100.592C208.167 98.2587 213.7 94.992 218.5 100.592" stroke="black" stroke-linecap="round"/>
<path d="M173.42 31.5C172.253 39.3333 172.82 54.1 184.42 50.5C196.02 46.9 181.92 36.3333 173.42 31.5Z" fill="#6F219E"/>
<path d="M250.349 30.5312C252.095 38.2561 252.629 53.0239 240.794 50.2972C228.958 47.5706 242.232 35.9839 250.349 30.5312Z" fill="#6F219E"/>
<path d="M226.5 88.5C233.404 88.5 239 82.9036 239 76C239 69.0964 233.404 63.5 226.5 63.5C219.596 63.5 214 69.0964 214 76C214 82.9036 219.596 88.5 226.5 88.5Z" fill="#1C1A1A"/>
<path d="M221.5 74.5C223.985 74.5 226 72.4853 226 70C226 67.5147 223.985 65.5 221.5 65.5C219.015 65.5 217 67.5147 217 70C217 72.4853 219.015 74.5 221.5 74.5Z" fill="white"/>
<path d="M201.5 74.5C203.985 74.5 206 72.4853 206 70C206 67.5147 203.985 65.5 201.5 65.5C199.015 65.5 197 67.5147 197 70C197 72.4853 199.015 74.5 201.5 74.5Z" fill="white"/>
<path d="M186.5 92.5C191.194 92.5 195 90.933 195 89C195 87.067 191.194 85.5 186.5 85.5C181.806 85.5 178 87.067 178 89C178 90.933 181.806 92.5 186.5 92.5Z" fill="#CCDEF8"/>
<path d="M240.5 92.5C245.194 92.5 249 90.933 249 89C249 87.067 245.194 85.5 240.5 85.5C235.806 85.5 232 87.067 232 89C232 90.933 235.806 92.5 240.5 92.5Z" fill="#CCDEF8"/>
<path d="M197.5 82.5C198.881 82.5 200 81.3807 200 80C200 78.6193 198.881 77.5 197.5 77.5C196.119 77.5 195 78.6193 195 80C195 81.3807 196.119 82.5 197.5 82.5Z" fill="white"/>
<path d="M225.5 82.5C226.881 82.5 228 81.3807 228 80C228 78.6193 226.881 77.5 225.5 77.5C224.119 77.5 223 78.6193 223 80C223 81.3807 224.119 82.5 225.5 82.5Z" fill="white"/>
<path d="M218 77.5C218.552 77.5 219 77.0523 219 76.5C219 75.9477 218.552 75.5 218 75.5C217.448 75.5 217 75.9477 217 76.5C217 77.0523 217.448 77.5 218 77.5Z" fill="white"/>
<path d="M206 77.5C206.552 77.5 207 77.0523 207 76.5C207 75.9477 206.552 75.5 206 75.5C205.448 75.5 205 75.9477 205 76.5C205 77.0523 205.448 77.5 206 77.5Z" fill="white"/>
<defs>
<linearGradient id="paint0_linear_1073_6156" x1="38.4997" y1="236.5" x2="44.9997" y2="62" gradientUnits="userSpaceOnUse">
<stop stop-color="#E9BB17"/>
<stop offset="0.0001" stop-color="#CCA20F"/>
<stop offset="1" stop-color="#E9BB17"/>
</linearGradient>
</defs>
</svg>
