<svg width="91" height="77" viewBox="0 0 91 77" fill="none" xmlns="http://www.w3.org/2000/svg">
<rect x="0.5" width="90" height="77" rx="6" fill="#1C1A1A"/>
<path d="M22.4444 68C20.6722 68 19.1551 67.369 17.8931 66.1069C16.631 64.8449 16 63.3278 16 61.5556V16.4444C16 14.6722 16.631 13.1551 17.8931 11.8931C19.1551 10.631 20.6722 10 22.4444 10H67.5556C69.3278 10 70.8449 10.631 72.1069 11.8931C73.369 13.1551 74 14.6722 74 16.4444V61.5556C74 63.3278 73.369 64.8449 72.1069 66.1069C70.8449 67.369 69.3278 68 67.5556 68H22.4444ZM28.8889 55.1111H35.3333V22.8889H28.8889V55.1111ZM54.6667 48.6667H61.1111V22.8889H54.6667V48.6667ZM41.7778 39H48.2222V22.8889H41.7778V39Z" fill="white"/>
</svg>
