<svg width="91" height="77" viewBox="0 0 91 77" fill="none" xmlns="http://www.w3.org/2000/svg">
<rect x="0.5" width="90" height="77" rx="6" fill="#1C1A1A"/>
<path d="M62.125 54.5413C58.275 54.5413 54.8795 53.3248 51.9385 50.8919C48.9976 48.4589 47.1528 45.3976 46.4042 41.708H29.4C28.7583 43.1518 27.7691 44.3148 26.4323 45.1971C25.0955 46.0794 23.625 46.5205 22.0208 46.5205C19.775 46.5205 17.8767 45.7452 16.326 44.1945C14.7753 42.6438 14 40.7455 14 38.4997C14 36.2538 14.7753 34.3556 16.326 32.8049C17.8767 31.2542 19.775 30.4788 22.0208 30.4788C23.625 30.4788 25.0955 30.92 26.4323 31.8023C27.7691 32.6846 28.7583 33.8476 29.4 35.2913H46.4042C47.1528 31.6018 48.9976 28.5405 51.9385 26.1075C54.8795 23.6745 58.275 22.458 62.125 22.458C66.5632 22.458 70.3464 24.0221 73.4745 27.1502C76.6026 30.2783 78.1667 34.0615 78.1667 38.4997C78.1667 42.9379 76.6026 46.721 73.4745 49.8492C70.3464 52.9773 66.5632 54.5413 62.125 54.5413ZM62.125 48.1247C64.7986 48.1247 67.0712 47.1889 68.9427 45.3174C70.8142 43.4459 71.75 41.1733 71.75 38.4997C71.75 35.8261 70.8142 33.5535 68.9427 31.682C67.0712 29.8104 64.7986 28.8747 62.125 28.8747C59.4514 28.8747 57.1788 29.8104 55.3073 31.682C53.4358 33.5535 52.5 35.8261 52.5 38.4997C52.5 41.1733 53.4358 43.4459 55.3073 45.3174C57.1788 47.1889 59.4514 48.1247 62.125 48.1247Z" fill="white"/>
</svg>