<svg width="91" height="77" viewBox="0 0 91 77" fill="none" xmlns="http://www.w3.org/2000/svg">
<rect x="0.5" width="90" height="77" rx="6" fill="#1C1A1A"/>
<path d="M23.3344 67.375C21.5924 67.375 20.1012 66.7467 18.8607 65.4901C17.6202 64.2335 17 62.7229 17 60.9583V16.0417C17 14.2771 17.6202 12.7665 18.8607 11.5099C20.1012 10.2533 21.5924 9.625 23.3344 9.625H67.6752C69.4172 9.625 70.9084 10.2533 72.1489 11.5099C73.3894 12.7665 74.0096 14.2771 74.0096 16.0417V60.9583C74.0096 62.7229 73.3894 64.2335 72.1489 65.4901C70.9084 66.7467 69.4172 67.375 67.6752 67.375H23.3344ZM23.3344 60.9583H33.6278V46.5208H32.836C31.9386 46.5208 31.1864 46.2134 30.5794 45.5984C29.9723 44.9835 29.6688 44.2215 29.6688 43.3125V16.0417H23.3344V60.9583ZM57.3818 60.9583H67.6752V16.0417H61.3408V43.3125C61.3408 44.2215 61.0373 44.9835 60.4302 45.5984C59.8232 46.2134 59.071 46.5208 58.1736 46.5208H57.3818V60.9583ZM38.3786 60.9583H52.631V46.5208H51.8392C50.9418 46.5208 50.1896 46.2134 49.5826 45.5984C48.9755 44.9835 48.672 44.2215 48.672 43.3125V16.0417H42.3376V43.3125C42.3376 44.2215 42.0341 44.9835 41.427 45.5984C40.82 46.2134 40.0678 46.5208 39.1704 46.5208H38.3786V60.9583Z" fill="white"/>
</svg>
