<svg width="751" height="695" viewBox="0 0 751 695" fill="none" xmlns="http://www.w3.org/2000/svg">
<g opacity="0.7">
<path d="M458.982 172.562C462.597 172.562 465.528 169.631 465.528 166.016C465.528 162.401 462.597 159.471 458.982 159.471C455.367 159.471 452.437 162.401 452.437 166.016C452.437 169.631 455.367 172.562 458.982 172.562Z" fill="white"/>
<path d="M25.1984 420.693C25.1984 424.858 28.7686 428.429 32.9339 428.429C37.0992 428.429 40.6694 424.858 40.6694 420.693C40.6694 416.528 37.0992 412.958 32.9339 412.958C28.4711 412.958 25.1984 416.528 25.1984 420.693Z" fill="white"/>
<path d="M191.214 572.131C191.214 575.998 194.487 579.271 198.355 579.271C202.223 579.271 205.495 575.998 205.495 572.131C205.495 568.263 202.223 564.99 198.355 564.99C194.19 565.288 191.214 568.263 191.214 572.131Z" fill="white"/>
<path d="M187.942 299.305C193.693 299.305 198.355 294.643 198.355 288.892C198.355 283.141 193.693 278.479 187.942 278.479C182.191 278.479 177.528 283.141 177.528 288.892C177.528 294.643 182.191 299.305 187.942 299.305Z" fill="white"/>
<path d="M404.239 694.411C409.99 694.411 414.652 689.749 414.652 683.998C414.652 678.247 409.99 673.585 404.239 673.585C398.488 673.585 393.825 678.247 393.825 683.998C393.825 689.749 398.488 694.411 404.239 694.411Z" fill="white"/>
<path d="M655.94 330.545C662.842 330.545 668.436 324.95 668.436 318.049C668.436 311.148 662.842 305.553 655.94 305.553C649.039 305.553 643.445 311.148 643.445 318.049C643.445 324.95 649.039 330.545 655.94 330.545Z" fill="white"/>
<path d="M267.379 24.9916C274.281 24.9916 279.875 19.3971 279.875 12.4958C279.875 5.59457 274.281 0 267.379 0C260.478 0 254.884 5.59457 254.884 12.4958C254.884 19.3971 260.478 24.9916 267.379 24.9916Z" fill="white"/>
<path d="M609.825 56.5288C609.825 60.6941 613.098 63.9668 617.263 63.9668C621.428 63.9668 624.701 60.6941 624.701 56.5288C624.701 52.3635 621.428 49.0908 617.263 49.0908C613.098 49.0908 609.825 52.3635 609.825 56.5288Z" fill="white"/>
<path d="M564.304 467.701C564.304 472.759 568.172 476.627 573.23 476.627C578.288 476.627 582.156 472.759 582.156 467.701C582.156 462.643 578.288 458.775 573.23 458.775C568.172 458.775 564.304 462.643 564.304 467.701Z" fill="white"/>
<path d="M395.313 404.032C395.313 409.09 399.181 412.958 404.239 412.958C409.296 412.958 413.164 409.09 413.164 404.032C413.164 398.974 409.296 395.106 404.239 395.106C399.181 395.106 395.313 398.974 395.313 404.032Z" fill="white"/>
<path d="M741.626 600.098C740.139 600.098 738.949 600.395 737.759 600.99C738.949 599.8 739.544 598.015 739.544 596.23C739.544 592.362 736.271 589.089 732.403 589.089C728.535 589.089 725.263 592.362 725.263 596.23C725.263 600.098 728.535 603.37 732.403 603.37C733.296 603.37 734.188 603.073 735.081 602.775C733.593 604.56 732.403 606.643 732.403 609.023C732.403 614.081 736.568 618.246 741.626 618.246C746.684 618.246 750.849 614.081 750.849 609.023C750.849 603.965 746.684 600.098 741.626 600.098Z" fill="white"/>
<path d="M86.4877 146.975C88.5703 146.975 90.3554 147.272 91.843 148.165C90.3554 146.38 89.1654 144 89.1654 141.322C89.1654 135.669 93.9257 130.909 99.5786 130.909C105.231 130.909 109.992 135.669 109.992 141.322C109.992 146.975 105.231 151.735 99.5786 151.735C98.3885 151.735 96.9008 151.438 96.0083 151.14C98.3884 153.52 99.5786 156.793 99.5786 160.363C99.5786 167.801 93.6282 173.454 86.4877 173.454C79.0497 173.454 73.3969 167.504 73.3969 160.363C73.3969 152.925 79.3472 146.975 86.4877 146.975Z" fill="white"/>
</g>
</svg>
