<svg width="91" height="77" viewBox="0 0 91 77" fill="none" xmlns="http://www.w3.org/2000/svg">
<rect x="0.5" width="90" height="77" rx="6" fill="#BC8212"/>
<path d="M27.25 64C25.5312 64 24.0599 63.388 22.8359 62.1641C21.612 60.9401 21 59.4688 21 57.75C21 56.0312 21.612 54.5599 22.8359 53.3359C24.0599 52.112 25.5312 51.5 27.25 51.5H28.0312C28.2917 51.5 28.5521 51.5521 28.8125 51.6562L39.9062 40.5625C39.6458 39.4688 39.6589 38.388 39.9453 37.3203C40.2318 36.2526 40.7656 35.3281 41.5469 34.5469C42.3281 33.7656 43.2526 33.2318 44.3203 32.9453C45.388 32.6589 46.4688 32.6458 47.5625 32.9062L58.6562 21.8125C58.5521 21.5521 58.5 21.2917 58.5 21.0312V20.25C58.5 18.5312 59.112 17.0599 60.3359 15.8359C61.5599 14.612 63.0312 14 64.75 14C66.4688 14 67.9401 14.612 69.1641 15.8359C70.388 17.0599 71 18.5312 71 20.25C71 21.9688 70.388 23.4401 69.1641 24.6641C67.9401 25.888 66.4688 26.5 64.75 26.5L63.1875 26.3438L52.0938 37.3594C52.3542 38.4531 52.3411 39.5469 52.0547 40.6406C51.7682 41.7344 51.2344 42.6719 50.4531 43.4531C49.6198 44.2865 48.6693 44.8464 47.6016 45.1328C46.5339 45.4193 45.4531 45.4062 44.3594 45.0938L34.75 54.625H40.6875C41.2604 53.6875 42.0156 52.9323 42.9531 52.3594C43.8906 51.7865 44.9062 51.5 46 51.5C47.1458 51.5 48.2005 51.7734 49.1641 52.3203C50.1276 52.8672 50.8958 53.6354 51.4688 54.625H59.2812C59.8542 53.6354 60.6224 52.8672 61.5859 52.3203C62.5495 51.7734 63.6042 51.5 64.75 51.5C66.4688 51.5 67.9401 52.112 69.1641 53.3359C70.388 54.5599 71 56.0312 71 57.75C71 59.4688 70.388 60.9401 69.1641 62.1641C67.9401 63.388 66.4688 64 64.75 64C63.6042 64 62.5495 63.7135 61.5859 63.1406C60.6224 62.5677 59.8542 61.8125 59.2812 60.875H51.4688C50.8958 61.8646 50.1276 62.6328 49.1641 63.1797C48.2005 63.7266 47.1458 64 46 64C44.9062 64 43.8906 63.7135 42.9531 63.1406C42.0156 62.5677 41.2604 61.8125 40.6875 60.875H32.5625C31.9896 61.8125 31.2344 62.5677 30.2969 63.1406C29.3594 63.7135 28.3438 64 27.25 64ZM27.25 45.25C25.5312 45.25 24.0599 44.638 22.8359 43.4141C21.612 42.1901 21 40.7188 21 39C21 37.2812 21.612 35.8099 22.8359 34.5859C24.0599 33.362 25.5312 32.75 27.25 32.75C28.9688 32.75 30.4401 33.362 31.6641 34.5859C32.888 35.8099 33.5 37.2812 33.5 39C33.5 40.7188 32.888 42.1901 31.6641 43.4141C30.4401 44.638 28.9688 45.25 27.25 45.25ZM27.25 26.5C25.5312 26.5 24.0599 25.888 22.8359 24.6641C21.612 23.4401 21 21.9688 21 20.25C21 18.5312 21.612 17.0599 22.8359 15.8359C24.0599 14.612 25.5312 14 27.25 14C28.9688 14 30.4401 14.612 31.6641 15.8359C32.888 17.0599 33.5 18.5312 33.5 20.25C33.5 21.9688 32.888 23.4401 31.6641 24.6641C30.4401 25.888 28.9688 26.5 27.25 26.5ZM46 26.5C44.2812 26.5 42.8099 25.888 41.5859 24.6641C40.362 23.4401 39.75 21.9688 39.75 20.25C39.75 18.5312 40.362 17.0599 41.5859 15.8359C42.8099 14.612 44.2812 14 46 14C47.7188 14 49.1901 14.612 50.4141 15.8359C51.638 17.0599 52.25 18.5312 52.25 20.25C52.25 21.9688 51.638 23.4401 50.4141 24.6641C49.1901 25.888 47.7188 26.5 46 26.5ZM64.75 45.25C63.0312 45.25 61.5599 44.638 60.3359 43.4141C59.112 42.1901 58.5 40.7188 58.5 39C58.5 37.2812 59.112 35.8099 60.3359 34.5859C61.5599 33.362 63.0312 32.75 64.75 32.75C66.4688 32.75 67.9401 33.362 69.1641 34.5859C70.388 35.8099 71 37.2812 71 39C71 40.7188 70.388 42.1901 69.1641 43.4141C67.9401 44.638 66.4688 45.25 64.75 45.25Z" fill="white"/>
</svg>
