<svg width="356" height="316" viewBox="0 0 356 316" fill="none" xmlns="http://www.w3.org/2000/svg">
<rect width="355" height="315" transform="translate(0.5 0.5)" fill="white"/>
<ellipse cx="178" cy="280" rx="98" ry="15.5" fill="#F0EEEE"/>
<path d="M327.715 100.9C324.256 101.725 314.189 106.173 311.853 110.67C311.023 112.268 312.668 113.621 314.456 113.809C319.216 114.308 326.526 115.229 322.325 117.1C316.935 119.5 313.542 122.1 311.546 121.9" stroke="#F1DBFF" stroke-width="3"/>
<path d="M27.6863 121.3C31.1456 122.125 41.2117 126.573 43.5477 131.07C44.378 132.669 42.7336 134.021 40.9452 134.208C36.1854 134.708 28.8754 135.629 33.076 137.5C38.4658 139.9 41.8593 142.5 43.8555 142.3" stroke="#F1DBFF" stroke-width="3"/>
<path d="M327.116 130.9C325.462 130.9 324.122 129.557 324.122 127.9C324.122 126.243 325.462 124.9 327.116 124.9C328.77 124.9 330.11 126.243 330.11 127.9C330.11 129.557 328.77 130.9 327.116 130.9Z" fill="#F1DBFF"/>
<path d="M28.2852 151.3C29.9389 151.3 31.2795 149.957 31.2795 148.3C31.2795 146.643 29.9389 145.3 28.2852 145.3C26.6315 145.3 25.2909 146.643 25.2909 148.3C25.2909 149.957 26.6315 151.3 28.2852 151.3Z" fill="#F1DBFF"/>
<path d="M334.901 138.7C320.529 138.7 314.54 139.9 313.342 140.5" stroke="#F1DBFF" stroke-width="3"/>
<path d="M20.5 159.1C34.8726 159.1 40.8612 160.3 42.0589 160.9" stroke="#F1DBFF" stroke-width="3"/>
<path d="M82.8731 170.118C68.4941 125.302 120.186 90.1344 145.35 78.8325L150.557 76.2243C150.557 71.008 133.086 47.5 161.232 37.3C178.965 30.8734 185.186 33.6999 190.576 42.1001L202.62 65.7918L207.827 68.3999C219.321 48.7001 222.016 44.9243 240.88 54.7001C258.247 63.7001 256.419 76.2243 252.081 81.4407L244.271 91.8732C260.931 102.306 272.039 120.563 275.51 128.387C278.331 134.746 292.635 157.22 270.303 196.199C248.015 235.103 192.207 241.612 160.97 237.929C136.077 234.995 97.0291 214.239 82.8731 170.118Z" fill="#E9BB17" stroke="#E9BB17"/>
<path d="M176.709 209.022C120.48 206.936 90.1466 173.05 79.7339 160.008C82.337 183.482 91.9979 227.01 148.074 237.712C215.344 250.55 240.806 234.256 267.822 203.806C288.646 180.333 286.394 148.473 279.452 134.562C269.907 159.774 232.938 211.109 176.709 209.022Z" fill="#DEB41D" stroke="#D9AF1C" stroke-width="0.2"/>
<path d="M145.47 167.291C164.16 167.291 179.312 152.111 179.312 133.385C179.312 114.659 164.16 99.4792 145.47 99.4792C126.78 99.4792 111.628 114.659 111.628 133.385C111.628 152.111 126.78 167.291 145.47 167.291Z" fill="white"/>
<path d="M213.153 167.291C231.843 167.291 246.995 152.111 246.995 133.385C246.995 114.659 231.843 99.4792 213.153 99.4792C194.463 99.4792 179.312 114.659 179.312 133.385C179.312 152.111 194.463 167.291 213.153 167.291Z" fill="white"/>
<path d="M161.433 135.994C162.681 135.994 163.71 137.013 163.529 138.25C163.344 139.529 163 140.783 162.504 141.982C161.719 143.882 160.568 145.606 159.118 147.059C157.668 148.512 155.946 149.666 154.05 150.452C152.156 151.238 150.124 151.643 148.074 151.643C146.022 151.643 143.992 151.238 142.096 150.452C140.201 149.666 138.48 148.512 137.029 147.059C135.579 145.606 134.428 143.882 133.643 141.982C133.148 140.783 132.804 139.529 132.618 138.25C132.438 137.013 133.466 135.994 134.715 135.994C135.963 135.994 136.952 137.018 137.204 138.243C137.345 138.928 137.551 139.6 137.82 140.249C138.378 141.598 139.195 142.824 140.226 143.856C141.256 144.89 142.479 145.708 143.827 146.267C145.173 146.826 146.616 147.113 148.074 147.113C149.531 147.113 150.975 146.826 152.321 146.267C153.667 145.708 154.891 144.89 155.921 143.856C156.952 142.824 157.769 141.598 158.327 140.249C158.596 139.6 158.802 138.928 158.943 138.243C159.196 137.018 160.184 135.994 161.433 135.994Z" fill="#292626"/>
<path d="M229.115 135.994C230.364 135.994 231.392 137.013 231.212 138.25C231.027 139.529 230.683 140.783 230.187 141.982C229.401 143.882 228.251 145.606 226.801 147.059C225.351 148.512 223.628 149.666 221.734 150.452C219.839 151.238 217.807 151.643 215.757 151.643C213.705 151.643 211.674 151.238 209.779 150.452C207.884 149.666 206.162 148.512 204.712 147.059C203.262 145.606 202.111 143.882 201.327 141.982C200.831 140.783 200.487 139.529 200.3 138.25C200.121 137.013 201.15 135.994 202.398 135.994C203.646 135.994 204.635 137.018 204.888 138.243C205.028 138.928 205.234 139.6 205.502 140.249C206.06 141.598 206.878 142.824 207.908 143.856C208.939 144.89 210.162 145.708 211.509 146.267C212.856 146.826 214.299 147.113 215.757 147.113C217.215 147.113 218.658 146.826 220.004 146.267C221.35 145.708 222.574 144.89 223.604 143.856C224.636 142.824 225.452 141.598 226.011 140.249C226.279 139.6 226.485 138.928 226.626 138.243C226.879 137.018 227.867 135.994 229.115 135.994Z" fill="#292626"/>
<path d="M308.089 129.482L303.06 129.665L303.427 139.744L303.886 152.342L308.915 152.158C310.707 146.038 309.112 134.49 308.089 129.482Z" fill="#C5A5F3" stroke="#75C973" stroke-width="0.2"/>
<path d="M53.4798 171.593L58.5095 171.408L58.1423 161.331L57.6832 148.732L52.6535 148.916C50.8621 155.037 52.4579 166.584 53.4798 171.593Z" fill="#C5A5F3" stroke="#75C973" stroke-width="0.2"/>
<path d="M76.1546 125.596L83.8426 189.396L64.0315 185.704C61.3552 181.965 56.2374 166.866 57.1764 136.382L66.6656 130.989L61.2304 77.0903C91.2348 40.9196 176.877 -14.7694 279.407 51.8394L285.032 107.618L297.331 111.438C300.737 118.269 306.53 137.985 302.45 162.203L283.651 168.538L277.287 104.702L285.032 107.618L279.407 51.8394C176.877 -14.7694 91.2348 40.9196 61.2304 77.0903L66.6656 130.989L76.1546 125.596Z" fill="#6F219E"/>
<path d="M66.6656 130.989L57.1764 136.382C56.2374 166.866 61.3552 181.965 64.0315 185.704L83.8426 189.396L76.1546 125.596L66.6656 130.989ZM66.6656 130.989L61.2304 77.0903C91.2348 40.9196 176.877 -14.7694 279.407 51.8394L285.032 107.618M285.032 107.618L277.287 104.702L283.651 168.538L302.45 162.203C306.53 137.985 300.737 118.269 297.331 111.438L285.032 107.618Z" stroke="#6F219E"/>
<path d="M66.8004 183.764C63.8128 174.034 58.5108 151.37 61.2036 138.555" stroke="#C5A5F3"/>
<path d="M293.443 114.003C296.084 124.196 300.524 147.862 297.154 160.982" stroke="#C5A5F3"/>
<path d="M158.238 186.1C165.919 193.344 185.536 203.487 202.553 186.1" stroke="black" stroke-linecap="round"/>
</svg>
