<svg width="36" height="36" viewBox="0 0 36 36" fill="none" xmlns="http://www.w3.org/2000/svg">
<path d="M13.4215 5.1692C13.2729 5.23035 13.1505 5.33642 13.0742 5.47049C12.9979 5.60455 12.972 5.75865 13.0007 5.90813C13.9806 11.0164 14.6035 15.8973 14.8327 20.5253C14.118 20.4489 13.3956 20.4243 12.6667 20.4641C8.55419 20.688 5.50571 23.7352 5.90206 26.953C6.10066 28.5674 7.18845 29.8121 8.65285 30.6003C10.1175 31.3885 11.9675 31.7804 13.9183 31.8451C15.9819 31.9136 17.7242 30.973 18.9095 29.7111C20.0946 28.449 20.7801 26.8665 20.7546 25.4214C20.7522 25.2788 20.7371 25.234 20.7182 25.1202C20.6993 25.0066 20.6738 24.8635 20.6413 24.6902C20.5764 24.3435 20.4851 23.8778 20.3772 23.3208C20.1613 22.2066 19.8776 20.729 19.6036 19.1397C19.0734 16.0622 18.6132 12.586 18.7023 10.6072C19.0698 10.2659 19.7258 9.95527 20.5893 9.72241L20.5994 9.72241C20.588 9.76657 20.5913 9.67756 20.5994 9.72241C20.5994 9.72241 21.3307 9.5097 21.3569 9.54791C21.383 9.58624 21.3169 9.52227 21.3569 9.54791C21.397 9.57364 21.3161 9.5388 21.3637 9.54791C21.4113 9.55703 21.3161 9.55683 21.3637 9.54791C21.4114 9.53879 21.3169 9.57361 21.3569 9.54791C21.3969 9.52221 21.3508 9.58621 21.3769 9.54791C21.3689 9.59271 21.403 9.5096 21.3769 9.54791L21.3569 9.588C21.36 9.57478 21.3623 9.56135 21.3637 9.54791C21.8461 9.45701 22.3745 9.39085 22.9423 9.35194C22.9084 9.43599 22.9027 9.27012 22.9423 9.35194C22.9821 9.43373 22.8524 9.32032 22.9423 9.35194C23.0323 9.38344 23.6414 9.35381 23.7289 9.31682C23.8164 9.27962 23.6952 9.40096 23.7289 9.31682C24.3656 9.30319 25.0333 9.31976 25.7222 9.36489C25.6974 9.40335 25.7291 9.32045 25.7222 9.36489C25.7153 9.40944 25.7101 9.32134 25.7222 9.36489C25.7342 9.40846 25.6931 9.32901 25.7222 9.36489C25.7513 9.40055 25.6805 9.34241 25.7222 9.36489C25.764 9.38737 25.6746 9.35936 25.7222 9.36489C25.77 9.3705 25.6759 9.377 25.7222 9.36489C25.7686 9.35278 25.6844 9.3929 25.7222 9.36489C25.7599 9.33699 25.6989 9.40423 25.7222 9.36489L26.5164 9.42616C26.5104 9.4391 26.5241 9.41395 26.5164 9.42616C26.9938 9.47193 27.4785 9.53476 27.9656 9.60748C27.9479 9.64923 27.9647 9.56255 27.9656 9.60748C27.9665 9.65241 27.946 9.56633 27.9656 9.60748C27.9849 9.64866 27.9306 9.57662 27.9656 9.60748C28.0006 9.63834 27.9206 9.59162 27.9656 9.60748C28.0107 9.62322 27.9174 9.60919 27.9656 9.60748C28.0136 9.60568 27.922 9.62649 27.9656 9.60748C28.0092 9.58835 27.9332 9.64085 27.9656 9.60748C27.9495 9.64999 27.9979 9.57411 27.9656 9.60748L28.6926 9.72355C29.1601 9.8057 29.6274 9.9021 30.093 10.0086C30.0763 10.0501 30.0915 9.96418 30.093 10.0086C30.0945 10.053 30.0735 9.96809 30.093 10.0086C30.1127 10.0491 30.0583 9.97813 30.093 10.0086C30.1278 10.0389 30.0486 9.99299 30.093 10.0086C30.1376 10.0242 30.0454 10.0101 30.093 10.0086C30.1404 10.0071 30.0497 10.027 30.093 10.0086C30.1362 9.99029 30.0605 10.0411 30.093 10.0086C30.0763 10.0501 30.1255 9.97608 30.093 10.0086L30.7978 10.1779C31.0834 10.2512 31.3687 10.3258 31.65 10.4083C31.8031 10.4531 31.9676 10.4492 32.1179 10.3971C32.2682 10.345 32.3958 10.2478 32.4806 10.1206C32.5654 9.99345 32.6027 9.84359 32.5866 9.6944C32.5704 9.54533 32.5017 9.40539 32.3914 9.29668C30.9411 7.87162 29.3952 6.41688 27.0887 5.48217C24.7851 4.54871 21.767 4.15848 17.43 4.70784L17.4262 4.70801L13.6304 5.11614C13.5583 5.12384 13.488 5.14173 13.4215 5.1692ZM14.5397 6.38096L17.5955 6.05204C17.6003 6.05141 17.6053 6.05075 17.61 6.05012C21.7784 5.52027 24.4918 5.90459 26.5129 6.72348C27.6412 7.18078 28.5556 7.79895 29.4038 8.48527C27.3391 8.08908 25.2719 7.9049 23.4263 7.96754C20.7762 8.05725 18.5325 8.54559 17.3977 9.89596C17.3073 10.0036 17.254 10.1344 17.2449 10.2709C17.0926 12.5125 17.6218 16.147 18.1747 19.3552C18.4511 20.9593 18.7367 22.4457 18.9529 23.5619C19.0611 24.1199 19.1517 24.5859 19.2152 24.9241C19.2469 25.0932 19.2717 25.2309 19.2879 25.3284C19.3042 25.4258 19.3084 25.5221 19.3071 25.4436C19.3248 26.4485 18.7829 27.7948 17.8216 28.8184C17.4538 29.2101 17.0326 29.5536 16.5657 29.8269L16.6897 29.2469C16.7037 29.1858 16.6994 29.1223 16.6772 29.0635C16.655 29.0046 16.6158 28.9527 16.5638 28.9133C16.5121 28.8739 16.4495 28.8488 16.3833 28.8406C16.3172 28.8324 16.2498 28.8415 16.1888 28.8669C16.1351 28.8892 16.0879 28.9234 16.0515 28.9666C16.015 29.0099 15.9905 29.0607 15.9797 29.1147L15.7464 30.2081C15.2629 30.3831 14.7433 30.4868 14.19 30.4934L14.9119 28.6787C14.9383 28.6151 14.9435 28.5456 14.9268 28.4791C14.9102 28.4126 14.8725 28.3524 14.8186 28.3064C14.7647 28.2603 14.6972 28.2307 14.6249 28.2212C14.5526 28.2117 14.4789 28.2228 14.4136 28.2532C14.3292 28.2921 14.2644 28.3603 14.233 28.4432L13.4301 30.4625C12.9581 30.4293 12.4975 30.3758 12.0562 30.2985L12.808 29.0668C12.8482 29.003 12.8649 28.9288 12.8557 28.8552C12.8463 28.7817 12.8116 28.7131 12.7566 28.6598C12.7015 28.6066 12.6293 28.5717 12.5511 28.5605C12.4729 28.5492 12.3928 28.5623 12.3232 28.5977C12.2624 28.6287 12.2124 28.6753 12.1792 28.732L11.318 30.1419C10.8574 30.0297 10.4256 29.8912 10.0282 29.729L10.687 28.0727C10.7135 28.0092 10.7188 27.9396 10.7021 27.8733C10.6854 27.8068 10.6477 27.7467 10.594 27.7007C10.5402 27.6548 10.4728 27.6248 10.4006 27.6154C10.3284 27.6057 10.2547 27.6167 10.1893 27.647C10.1051 27.6859 10.0403 27.7541 10.0088 27.8369L9.37602 29.4275C8.9511 29.1988 8.58859 28.9421 8.28982 28.6555L8.86479 27.2089C8.89114 27.1453 8.89631 27.0759 8.87974 27.0095C8.86318 26.9431 8.8255 26.8829 8.77162 26.8369C8.71786 26.7909 8.65052 26.7611 8.57824 26.7515C8.50606 26.7419 8.43249 26.7529 8.36693 26.7831C8.28272 26.822 8.21791 26.8902 8.18646 26.9731L7.76969 28.0206C7.54295 27.6568 7.39567 27.2526 7.33974 26.7984C7.05441 24.4813 9.3545 21.9996 12.7506 21.8149C13.7435 21.7607 14.6567 21.7792 15.4479 21.9654C15.5569 21.9911 15.6707 21.9925 15.7802 21.9698C15.8899 21.9473 15.9924 21.901 16.0796 21.8351C16.1668 21.769 16.2365 21.6848 16.283 21.5893C16.3295 21.4939 16.3515 21.3895 16.3476 21.2847C16.1622 16.5647 15.5071 11.5663 14.5397 6.38096ZM18.7661 6.67232C18.6037 6.78121 18.5668 6.99299 18.6832 7.14442C18.7995 7.29597 19.026 7.3308 19.1884 7.22191C19.3504 7.11308 19.3877 6.90157 19.2712 6.74972C19.1543 6.59814 18.9276 6.56334 18.7661 6.67232ZM15.8548 8.68343C15.6928 8.79226 15.6561 9.00359 15.7725 9.15545C15.8891 9.30697 16.115 9.34121 16.2775 9.23232C16.4398 9.12334 16.4768 8.91186 16.3603 8.76C16.2436 8.60873 16.0171 8.57424 15.8548 8.68343ZM14.0342 23.6708C13.947 23.7082 13.8791 23.7763 13.8457 23.8604C13.8122 23.9445 13.8159 24.0376 13.8558 24.1192C13.8957 24.2008 13.9689 24.2642 14.0588 24.2955C14.1487 24.3267 14.2482 24.3233 14.3356 24.286C14.4228 24.2486 14.4907 24.1805 14.5241 24.0964C14.5576 24.0123 14.5539 23.9192 14.514 23.8376C14.474 23.7561 14.4009 23.6926 14.311 23.6613C14.221 23.63 14.1216 23.6335 14.0342 23.6708ZM16.9296 24.7686C16.8424 24.806 16.7747 24.8742 16.7412 24.9583C16.7078 25.0424 16.7114 25.1355 16.7514 25.2171C16.7912 25.2987 16.8643 25.362 16.9543 25.3933C17.0442 25.4246 17.1438 25.4212 17.231 25.3838C17.3183 25.3464 17.3861 25.2783 17.4196 25.1942C17.453 25.1101 17.4494 25.017 17.4094 24.9354C17.3694 24.8539 17.2965 24.7905 17.2065 24.7592C17.1166 24.7279 17.017 24.7313 16.9296 24.7686ZM15.5837 26.7283C15.4965 26.7657 15.4288 26.834 15.3953 26.9181C15.3618 27.0022 15.3655 27.0953 15.4055 27.1768C15.4452 27.2584 15.5184 27.3218 15.6083 27.3531C15.6983 27.3843 15.7979 27.3809 15.8851 27.3435C15.9723 27.3062 16.0402 27.238 16.0736 27.1539C16.1071 27.0698 16.1035 26.9767 16.0635 26.8952C16.0235 26.8136 15.9506 26.7502 15.8606 26.7189C15.7706 26.6876 15.6711 26.6911 15.5837 26.7283Z" fill="#EA4C0C"/>
<path fill-rule="evenodd" clip-rule="evenodd" d="M14.5397 6.38096L17.5955 6.05204L17.61 6.05012C21.7784 5.52027 24.4918 5.90459 26.5129 6.72348C27.6412 7.18078 28.5556 7.79895 29.4038 8.48527C27.3391 8.08908 25.2719 7.9049 23.4263 7.96754C20.7762 8.05725 18.5325 8.54559 17.3977 9.89596C17.3073 10.0036 17.254 10.1344 17.2449 10.2709C17.0926 12.5125 17.6218 16.147 18.1747 19.3552C18.4511 20.9593 18.7367 22.4457 18.9529 23.5619C19.0611 24.1199 19.1517 24.5859 19.2152 24.9241C19.2469 25.0932 19.2717 25.2309 19.2879 25.3284C19.3042 25.4258 19.3084 25.5221 19.3071 25.4436C19.3248 26.4485 18.7829 27.7948 17.8216 28.8184C17.4538 29.2101 17.0326 29.5536 16.5657 29.8269L16.6897 29.2469C16.7037 29.1858 16.6994 29.1223 16.6772 29.0635C16.655 29.0046 16.6158 28.9527 16.5638 28.9133C16.5121 28.8739 16.4495 28.8488 16.3833 28.8406C16.3172 28.8324 16.2498 28.8415 16.1888 28.8669C16.1351 28.8892 16.0879 28.9234 16.0515 28.9666C16.015 29.0099 15.9905 29.0607 15.9797 29.1147L15.7464 30.2081C15.2629 30.3831 14.7433 30.4868 14.19 30.4934L14.9119 28.6787C14.9383 28.6151 14.9435 28.5456 14.9268 28.4791C14.9102 28.4126 14.8725 28.3524 14.8186 28.3064C14.7647 28.2603 14.6972 28.2307 14.6249 28.2212C14.5526 28.2117 14.4789 28.2228 14.4136 28.2532C14.3292 28.2921 14.2644 28.3603 14.233 28.4432L13.4301 30.4625C12.9581 30.4293 12.4975 30.3758 12.0562 30.2985L12.808 29.0668C12.8482 29.003 12.8649 28.9288 12.8557 28.8552C12.8463 28.7817 12.8116 28.7131 12.7566 28.6598C12.7015 28.6066 12.6293 28.5717 12.5511 28.5605C12.4729 28.5492 12.3928 28.5623 12.3232 28.5977C12.2624 28.6287 12.2124 28.6753 12.1792 28.732L11.318 30.1419C10.8574 30.0297 10.4256 29.8912 10.0282 29.729L10.687 28.0727C10.7135 28.0092 10.7188 27.9396 10.7021 27.8733C10.6854 27.8068 10.6477 27.7467 10.594 27.7007C10.5402 27.6548 10.4728 27.6248 10.4006 27.6154C10.3284 27.6057 10.2547 27.6167 10.1893 27.647C10.1051 27.6859 10.0403 27.7541 10.0088 27.8369L9.37602 29.4275C8.9511 29.1988 8.58859 28.9421 8.28982 28.6555L8.86479 27.2089C8.89114 27.1453 8.89631 27.0759 8.87974 27.0095C8.86318 26.9431 8.8255 26.8829 8.77162 26.8369C8.71786 26.7909 8.65052 26.7611 8.57824 26.7515C8.50606 26.7419 8.43249 26.7529 8.36693 26.7831C8.28272 26.822 8.21791 26.8902 8.18646 26.9731L7.76969 28.0206C7.54295 27.6568 7.39567 27.2526 7.33974 26.7984C7.05441 24.4813 9.3545 21.9996 12.7506 21.8149C13.7435 21.7607 14.6567 21.7792 15.4479 21.9654C15.5569 21.9911 15.6707 21.9925 15.7802 21.9698C15.8899 21.9473 15.9924 21.901 16.0796 21.8351C16.1668 21.769 16.2365 21.6848 16.283 21.5893C16.3295 21.4939 16.3515 21.3895 16.3476 21.2847C16.1622 16.5647 15.5071 11.5663 14.5397 6.38096ZM18.6832 7.14442C18.5668 6.99299 18.6037 6.78121 18.7661 6.67232C18.9276 6.56334 19.1543 6.59814 19.2712 6.74972C19.3877 6.90157 19.3504 7.11308 19.1884 7.22191C19.026 7.3308 18.7995 7.29597 18.6832 7.14442ZM15.7725 9.15545C15.6561 9.00359 15.6928 8.79226 15.8548 8.68343C16.0171 8.57424 16.2436 8.60873 16.3603 8.76C16.4768 8.91186 16.4398 9.12334 16.2775 9.23232C16.115 9.34121 15.8891 9.30697 15.7725 9.15545ZM13.8457 23.8604C13.8791 23.7763 13.947 23.7082 14.0342 23.6708C14.1216 23.6335 14.221 23.63 14.311 23.6613C14.4009 23.6926 14.474 23.7561 14.514 23.8376C14.5539 23.9192 14.5576 24.0123 14.5241 24.0964C14.4907 24.1805 14.4228 24.2486 14.3356 24.286C14.2482 24.3233 14.1487 24.3267 14.0588 24.2955C13.9689 24.2642 13.8957 24.2008 13.8558 24.1192C13.8159 24.0376 13.8122 23.9445 13.8457 23.8604ZM16.7412 24.9583C16.7747 24.8742 16.8424 24.806 16.9296 24.7686C17.017 24.7313 17.1166 24.7279 17.2065 24.7592C17.2965 24.7905 17.3694 24.8539 17.4094 24.9354C17.4494 25.017 17.453 25.1101 17.4196 25.1942C17.3861 25.2783 17.3183 25.3464 17.231 25.3838C17.1438 25.4212 17.0442 25.4246 16.9543 25.3933C16.8643 25.362 16.7912 25.2987 16.7514 25.2171C16.7114 25.1355 16.7078 25.0424 16.7412 24.9583ZM15.3953 26.9181C15.4288 26.834 15.4965 26.7657 15.5837 26.7283C15.6711 26.6911 15.7706 26.6876 15.8606 26.7189C15.9506 26.7502 16.0235 26.8136 16.0635 26.8952C16.1035 26.9767 16.1071 27.0698 16.0736 27.1539C16.0402 27.238 15.9723 27.3062 15.8851 27.3435C15.7979 27.3809 15.6983 27.3843 15.6083 27.3531C15.5184 27.3218 15.4452 27.2584 15.4055 27.1768C15.3655 27.0953 15.3618 27.0022 15.3953 26.9181Z" fill="#EA4C0C"/>
</svg>
