<svg width="258" height="458" viewBox="0 0 258 458" fill="none" xmlns="http://www.w3.org/2000/svg">
<ellipse cx="129" cy="439" rx="69" ry="19" fill="#3F3B3C"/>
<rect x="60" y="427" width="138" height="12" fill="#3F3B3C"/>
<ellipse cx="129" cy="427" rx="69" ry="19" fill="#494343"/>
<rect x="124" y="132" width="10" height="295" fill="#3F3B3C"/>
<ellipse cx="129" cy="427" rx="5" ry="2" fill="#3F3B3C"/>
<path fill-rule="evenodd" clip-rule="evenodd" d="M12 4C12 1.79086 13.7909 0 16 0H242C244.209 0 246 1.79086 246 4V128C246 130.209 244.209 132 242 132H16C13.7909 132 12 130.209 12 128V4ZM36 19C36 22.3137 33.3137 25 30 25C26.6863 25 24 22.3137 24 19C24 15.6863 26.6863 13 30 13C33.3137 13 36 15.6863 36 19ZM52 25C55.3137 25 58 22.3137 58 19C58 15.6863 55.3137 13 52 13C48.6863 13 46 15.6863 46 19C46 22.3137 48.6863 25 52 25ZM80 19C80 22.3137 77.3137 25 74 25C70.6863 25 68 22.3137 68 19C68 15.6863 70.6863 13 74 13C77.3137 13 80 15.6863 80 19ZM96 25C99.3137 25 102 22.3137 102 19C102 15.6863 99.3137 13 96 13C92.6863 13 90 15.6863 90 19C90 22.3137 92.6863 25 96 25ZM124 19C124 22.3137 121.314 25 118 25C114.686 25 112 22.3137 112 19C112 15.6863 114.686 13 118 13C121.314 13 124 15.6863 124 19ZM140 25C143.314 25 146 22.3137 146 19C146 15.6863 143.314 13 140 13C136.686 13 134 15.6863 134 19C134 22.3137 136.686 25 140 25ZM168 19C168 22.3137 165.314 25 162 25C158.686 25 156 22.3137 156 19C156 15.6863 158.686 13 162 13C165.314 13 168 15.6863 168 19ZM184 25C187.314 25 190 22.3137 190 19C190 15.6863 187.314 13 184 13C180.686 13 178 15.6863 178 19C178 22.3137 180.686 25 184 25ZM212 19C212 22.3137 209.314 25 206 25C202.686 25 200 22.3137 200 19C200 15.6863 202.686 13 206 13C209.314 13 212 15.6863 212 19ZM228 25C231.314 25 234 22.3137 234 19C234 15.6863 231.314 13 228 13C224.686 13 222 15.6863 222 19C222 22.3137 224.686 25 228 25ZM36 37C36 40.3137 33.3137 43 30 43C26.6863 43 24 40.3137 24 37C24 33.6863 26.6863 31 30 31C33.3137 31 36 33.6863 36 37ZM52 43C55.3137 43 58 40.3137 58 37C58 33.6863 55.3137 31 52 31C48.6863 31 46 33.6863 46 37C46 40.3137 48.6863 43 52 43ZM80 37C80 40.3137 77.3137 43 74 43C70.6863 43 68 40.3137 68 37C68 33.6863 70.6863 31 74 31C77.3137 31 80 33.6863 80 37ZM96 43C99.3137 43 102 40.3137 102 37C102 33.6863 99.3137 31 96 31C92.6863 31 90 33.6863 90 37C90 40.3137 92.6863 43 96 43ZM124 37C124 40.3137 121.314 43 118 43C114.686 43 112 40.3137 112 37C112 33.6863 114.686 31 118 31C121.314 31 124 33.6863 124 37ZM140 43C143.314 43 146 40.3137 146 37C146 33.6863 143.314 31 140 31C136.686 31 134 33.6863 134 37C134 40.3137 136.686 43 140 43ZM168 37C168 40.3137 165.314 43 162 43C158.686 43 156 40.3137 156 37C156 33.6863 158.686 31 162 31C165.314 31 168 33.6863 168 37ZM184 43C187.314 43 190 40.3137 190 37C190 33.6863 187.314 31 184 31C180.686 31 178 33.6863 178 37C178 40.3137 180.686 43 184 43ZM212 37C212 40.3137 209.314 43 206 43C202.686 43 200 40.3137 200 37C200 33.6863 202.686 31 206 31C209.314 31 212 33.6863 212 37ZM228 43C231.314 43 234 40.3137 234 37C234 33.6863 231.314 31 228 31C224.686 31 222 33.6863 222 37C222 40.3137 224.686 43 228 43ZM36 55C36 58.3137 33.3137 61 30 61C26.6863 61 24 58.3137 24 55C24 51.6863 26.6863 49 30 49C33.3137 49 36 51.6863 36 55ZM52 61C55.3137 61 58 58.3137 58 55C58 51.6863 55.3137 49 52 49C48.6863 49 46 51.6863 46 55C46 58.3137 48.6863 61 52 61ZM80 55C80 58.3137 77.3137 61 74 61C70.6863 61 68 58.3137 68 55C68 51.6863 70.6863 49 74 49C77.3137 49 80 51.6863 80 55ZM96 61C99.3137 61 102 58.3137 102 55C102 51.6863 99.3137 49 96 49C92.6863 49 90 51.6863 90 55C90 58.3137 92.6863 61 96 61ZM124 55C124 58.3137 121.314 61 118 61C114.686 61 112 58.3137 112 55C112 51.6863 114.686 49 118 49C121.314 49 124 51.6863 124 55ZM140 61C143.314 61 146 58.3137 146 55C146 51.6863 143.314 49 140 49C136.686 49 134 51.6863 134 55C134 58.3137 136.686 61 140 61ZM168 55C168 58.3137 165.314 61 162 61C158.686 61 156 58.3137 156 55C156 51.6863 158.686 49 162 49C165.314 49 168 51.6863 168 55ZM184 61C187.314 61 190 58.3137 190 55C190 51.6863 187.314 49 184 49C180.686 49 178 51.6863 178 55C178 58.3137 180.686 61 184 61ZM212 55C212 58.3137 209.314 61 206 61C202.686 61 200 58.3137 200 55C200 51.6863 202.686 49 206 49C209.314 49 212 51.6863 212 55ZM228 61C231.314 61 234 58.3137 234 55C234 51.6863 231.314 49 228 49C224.686 49 222 51.6863 222 55C222 58.3137 224.686 61 228 61ZM36 73C36 76.3137 33.3137 79 30 79C26.6863 79 24 76.3137 24 73C24 69.6863 26.6863 67 30 67C33.3137 67 36 69.6863 36 73ZM52 79C55.3137 79 58 76.3137 58 73C58 69.6863 55.3137 67 52 67C48.6863 67 46 69.6863 46 73C46 76.3137 48.6863 79 52 79ZM80 73C80 76.3137 77.3137 79 74 79C70.6863 79 68 76.3137 68 73C68 69.6863 70.6863 67 74 67C77.3137 67 80 69.6863 80 73ZM184 79C187.314 79 190 76.3137 190 73C190 69.6863 187.314 67 184 67C180.686 67 178 69.6863 178 73C178 76.3137 180.686 79 184 79ZM212 73C212 76.3137 209.314 79 206 79C202.686 79 200 76.3137 200 73C200 69.6863 202.686 67 206 67C209.314 67 212 69.6863 212 73ZM228 79C231.314 79 234 76.3137 234 73C234 69.6863 231.314 67 228 67C224.686 67 222 69.6863 222 73C222 76.3137 224.686 79 228 79ZM36 91C36 94.3137 33.3137 97 30 97C26.6863 97 24 94.3137 24 91C24 87.6863 26.6863 85 30 85C33.3137 85 36 87.6863 36 91ZM52 97C55.3137 97 58 94.3137 58 91C58 87.6863 55.3137 85 52 85C48.6863 85 46 87.6863 46 91C46 94.3137 48.6863 97 52 97ZM80 91C80 94.3137 77.3137 97 74 97C70.6863 97 68 94.3137 68 91C68 87.6863 70.6863 85 74 85C77.3137 85 80 87.6863 80 91ZM184 97C187.314 97 190 94.3137 190 91C190 87.6863 187.314 85 184 85C180.686 85 178 87.6863 178 91C178 94.3137 180.686 97 184 97ZM212 91C212 94.3137 209.314 97 206 97C202.686 97 200 94.3137 200 91C200 87.6863 202.686 85 206 85C209.314 85 212 87.6863 212 91ZM228 97C231.314 97 234 94.3137 234 91C234 87.6863 231.314 85 228 85C224.686 85 222 87.6863 222 91C222 94.3137 224.686 97 228 97ZM36 109C36 112.314 33.3137 115 30 115C26.6863 115 24 112.314 24 109C24 105.686 26.6863 103 30 103C33.3137 103 36 105.686 36 109ZM52 115C55.3137 115 58 112.314 58 109C58 105.686 55.3137 103 52 103C48.6863 103 46 105.686 46 109C46 112.314 48.6863 115 52 115ZM80 109C80 112.314 77.3137 115 74 115C70.6863 115 68 112.314 68 109C68 105.686 70.6863 103 74 103C77.3137 103 80 105.686 80 109ZM184 115C187.314 115 190 112.314 190 109C190 105.686 187.314 103 184 103C180.686 103 178 105.686 178 109C178 112.314 180.686 115 184 115ZM212 109C212 112.314 209.314 115 206 115C202.686 115 200 112.314 200 109C200 105.686 202.686 103 206 103C209.314 103 212 105.686 212 109ZM228 115C231.314 115 234 112.314 234 109C234 105.686 231.314 103 228 103C224.686 103 222 105.686 222 109C222 112.314 224.686 115 228 115Z" fill="#564E4E"/>
<path d="M2.74807 125.832C1.92484 125.283 2.31337 124 3.30278 124H254.697C255.687 124 256.075 125.283 255.252 125.832L246.252 131.832C246.088 131.942 245.895 132 245.697 132H12.3028C12.1054 132 11.9123 131.942 11.7481 131.832L2.74807 125.832Z" fill="#3F3B3C"/>
</svg>
