<svg width="356" height="315" viewBox="0 0 356 315" fill="none" xmlns="http://www.w3.org/2000/svg">
<rect width="355" height="315" transform="translate(0.5)" fill="white"/>
<ellipse cx="178" cy="290.5" rx="98" ry="15.5" fill="#F0EEEE"/>
<path d="M327.716 144.4C324.257 145.225 314.19 149.673 311.855 154.17C311.025 155.768 312.669 157.121 314.457 157.309C319.217 157.808 326.527 158.729 322.326 160.6C316.937 163 313.543 165.6 311.547 165.4" stroke="#F1DBFF" stroke-width="3"/>
<path d="M27.6875 164.8C31.1468 165.625 41.2129 170.073 43.5489 174.57C44.3791 176.169 42.7348 177.521 40.9464 177.708C36.1866 178.208 28.8766 179.129 33.0772 181C38.467 183.4 41.8605 186 43.8567 185.8" stroke="#F1DBFF" stroke-width="3"/>
<path d="M327.115 174.4C325.461 174.4 324.121 173.057 324.121 171.4C324.121 169.743 325.461 168.4 327.115 168.4C328.769 168.4 330.109 169.743 330.109 171.4C330.109 173.057 328.769 174.4 327.115 174.4Z" fill="#F1DBFF"/>
<path d="M28.2834 194.8C29.9371 194.8 31.2777 193.457 31.2777 191.8C31.2777 190.143 29.9371 188.8 28.2834 188.8C26.6297 188.8 25.2891 190.143 25.2891 191.8C25.2891 193.457 26.6297 194.8 28.2834 194.8Z" fill="#F1DBFF"/>
<path d="M334.903 182.2C320.53 182.2 314.541 183.4 313.344 184" stroke="#F1DBFF" stroke-width="3"/>
<path d="M20.5 202.6C34.8726 202.6 40.8612 203.8 42.0589 204.4" stroke="#F1DBFF" stroke-width="3"/>
<path d="M82.8731 213.618C68.4941 168.803 120.186 133.635 145.35 122.333L150.557 119.724C150.557 114.508 133.086 91.0001 161.232 80.8001C178.965 74.3735 185.186 77.2 190.576 85.6002L202.62 109.292L207.827 111.9C219.321 92.2002 222.016 88.4244 240.88 98.2002C258.247 107.2 256.419 119.724 252.081 124.941L244.271 135.373C260.931 145.806 272.039 164.063 275.51 171.888C278.331 178.246 292.635 200.72 270.303 239.699C248.015 278.603 192.207 285.112 160.97 281.429C136.077 278.495 97.0291 257.739 82.8731 213.618Z" fill="#E9BB17" stroke="#E9BB17"/>
<path d="M176.709 252.522C120.481 250.436 90.1471 216.55 79.7344 203.509C82.3375 226.982 91.9984 270.51 148.074 281.212C215.344 294.05 240.806 277.756 267.822 247.306C288.647 223.833 286.394 191.973 279.452 178.062C269.907 203.274 232.939 254.609 176.709 252.522Z" fill="#DEB41D" stroke="#D9AF1C" stroke-width="0.2"/>
<path d="M145.47 210.791C164.161 210.791 179.312 195.611 179.312 176.885C179.312 158.159 164.161 142.979 145.47 142.979C126.78 142.979 111.629 158.159 111.629 176.885C111.629 195.611 126.78 210.791 145.47 210.791Z" fill="white"/>
<path d="M213.154 210.791C231.844 210.791 246.996 195.611 246.996 176.885C246.996 158.159 231.844 142.979 213.154 142.979C194.464 142.979 179.312 158.159 179.312 176.885C179.312 195.611 194.464 210.791 213.154 210.791Z" fill="white"/>
<path d="M161.434 179.494C162.682 179.494 163.71 180.513 163.53 181.75C163.344 183.029 163 184.283 162.504 185.482C161.72 187.381 160.569 189.106 159.118 190.559C157.668 192.012 155.947 193.165 154.051 193.951C152.156 194.737 150.125 195.143 148.074 195.143C146.023 195.143 143.992 194.737 142.096 193.951C140.202 193.165 138.48 192.012 137.03 190.559C135.579 189.106 134.429 187.381 133.644 185.482C133.148 184.283 132.804 183.029 132.618 181.75C132.438 180.513 133.467 179.494 134.715 179.494C135.963 179.494 136.952 180.517 137.205 181.743C137.346 182.428 137.552 183.1 137.82 183.749C138.378 185.098 139.195 186.324 140.226 187.356C141.257 188.389 142.48 189.208 143.827 189.767C145.173 190.326 146.617 190.613 148.074 190.613C149.532 190.613 150.975 190.326 152.321 189.767C153.668 189.208 154.892 188.389 155.922 187.356C156.953 186.324 157.77 185.098 158.328 183.749C158.596 183.1 158.802 182.428 158.944 181.743C159.196 180.517 160.184 179.494 161.434 179.494Z" fill="#292626"/>
<path d="M229.116 179.494C230.366 179.494 231.393 180.513 231.214 181.75C231.028 183.029 230.684 184.283 230.188 185.482C229.403 187.381 228.253 189.106 226.802 190.559C225.352 192.012 223.63 193.165 221.735 193.951C219.84 194.737 217.809 195.143 215.758 195.143C213.707 195.143 211.675 194.737 209.78 193.951C207.886 193.165 206.163 192.012 204.713 190.559C203.264 189.106 202.113 187.381 201.328 185.482C200.832 184.283 200.489 183.029 200.302 181.75C200.122 180.513 201.151 179.494 202.399 179.494C203.647 179.494 204.636 180.517 204.889 181.743C205.029 182.428 205.235 183.1 205.503 183.749C206.062 185.098 206.88 186.324 207.91 187.356C208.941 188.389 210.164 189.208 211.51 189.767C212.857 190.326 214.301 190.613 215.758 190.613C217.216 190.613 218.659 190.326 220.005 189.767C221.352 189.208 222.576 188.389 223.606 187.356C224.637 186.324 225.454 185.098 226.012 183.749C226.28 183.1 226.486 182.428 226.628 181.743C226.88 180.517 227.868 179.494 229.116 179.494Z" fill="#292626"/>
<path d="M308.088 172.982L303.059 173.165L303.426 183.244L303.885 195.842L308.914 195.658C310.706 189.538 309.111 177.99 308.088 172.982Z" fill="#C5A5F3" stroke="#75C973" stroke-width="0.2"/>
<path d="M53.4794 215.093L58.5091 214.908L58.1418 204.831L57.6828 192.232L52.6531 192.416C50.8616 198.537 52.4575 210.084 53.4794 215.093Z" fill="#C5A5F3" stroke="#75C973" stroke-width="0.2"/>
<path d="M76.1542 169.096L83.8421 232.896L64.031 229.204C61.3547 225.465 56.237 210.366 57.176 179.882L66.6652 174.489L61.2299 120.59C91.2343 84.4195 176.876 28.7305 279.407 95.3394L285.031 151.118L297.331 154.938C300.737 161.769 306.529 181.485 302.45 205.703L283.65 212.038L277.287 148.202L285.031 151.118L279.407 95.3394C176.876 28.7305 91.2343 84.4195 61.2299 120.59L66.6652 174.489L76.1542 169.096Z" fill="#6F219E"/>
<path d="M66.6652 174.489L57.176 179.882C56.237 210.366 61.3547 225.465 64.031 229.204L83.8421 232.896L76.1542 169.096L66.6652 174.489ZM66.6652 174.489L61.2299 120.59C91.2343 84.4195 176.876 28.7305 279.407 95.3394L285.031 151.118M285.031 151.118L277.287 148.202L283.65 212.038L302.45 205.703C306.529 181.485 300.737 161.769 297.331 154.938L285.031 151.118Z" stroke="#6F219E"/>
<path d="M66.8015 227.263C63.8139 217.534 58.5119 194.869 61.2047 182.055" stroke="#C5A5F3"/>
<path d="M293.441 157.503C296.082 167.696 300.522 191.362 297.152 204.481" stroke="#C5A5F3"/>
<path d="M158.238 229.6C165.919 236.844 185.537 246.987 202.554 229.6" stroke="black" stroke-linecap="round"/>
<path d="M43.5 87.5492C43.5 87.0271 43.2467 86.5558 42.89 86.2947C42.4867 85.9828 41.98 85.9285 41.5233 86.0845L16.6733 91.7907C16.0633 91.9975 15.6567 92.6282 15.6567 93.2554V112.22C14.3933 111.227 12.82 110.65 11.1 110.65C6.89333 110.65 3.5 114.156 3.5 118.496C3.5 122.836 6.89333 126.345 11.1 126.345C15.1533 126.345 18.4967 122.992 18.6467 118.811V118.598V99.2193L40.46 94.5608V118.36C39.1933 117.367 37.6233 116.794 35.9033 116.794C31.6967 116.794 28.3 120.299 28.3 124.639C28.3 128.979 31.6967 132.485 35.9033 132.485C39.9567 132.485 43.2967 129.135 43.4467 124.955V124.741V87.5492H43.5Z" fill="#6F219E"/>
<path d="M188.5 5.5492C188.5 5.02706 188.247 4.55578 187.89 4.29471C187.487 3.98279 186.98 3.92854 186.523 4.0845L161.673 9.79072C161.063 9.99754 160.657 10.6282 160.657 11.2554V30.2201C159.393 29.2267 157.82 28.6503 156.1 28.6503C151.893 28.6503 148.5 32.1561 148.5 36.4959C148.5 40.8358 151.893 44.3449 156.1 44.3449C160.153 44.3449 163.497 40.9917 163.647 36.8112V36.5976V17.2193L185.46 12.5608V36.36C184.193 35.3666 182.623 34.7936 180.903 34.7936C176.697 34.7936 173.3 38.2994 173.3 42.6392C173.3 46.9791 176.697 50.4848 180.903 50.4848C184.957 50.4848 188.297 47.135 188.447 42.9545V42.7409V5.5492H188.5Z" fill="#6F219E"/>
<path d="M352.5 61.5492C352.5 61.0271 352.247 60.5558 351.89 60.2947C351.487 59.9828 350.98 59.9285 350.523 60.0845L325.673 65.7907C325.063 65.9975 324.657 66.6282 324.657 67.2554V86.2201C323.393 85.2267 321.82 84.6503 320.1 84.6503C315.893 84.6503 312.5 88.1561 312.5 92.4959C312.5 96.8358 315.893 100.345 320.1 100.345C324.153 100.345 327.497 96.9917 327.647 92.8112V92.5976V73.2193L349.46 68.5608V92.36C348.193 91.3666 346.623 90.7936 344.903 90.7936C340.697 90.7936 337.3 94.2994 337.3 98.6392C337.3 102.979 340.697 106.485 344.903 106.485C348.957 106.485 352.297 103.135 352.447 98.9545V98.7409V61.5492H352.5Z" fill="#6F219E"/>
</svg>
