<svg width="20" height="28" viewBox="0 0 20 28" fill="none" xmlns="http://www.w3.org/2000/svg">
<path d="M7.316 19.26V18.072C7.316 16.992 7.532 16.068 7.964 15.3C8.42 14.532 8.972 13.86 9.62 13.284C10.268 12.708 10.916 12.168 11.564 11.664C12.212 11.136 12.752 10.596 13.184 10.044C13.64 9.468 13.868 8.808 13.868 8.064C13.868 7.08 13.496 6.288 12.752 5.688C12.032 5.088 11.144 4.788 10.088 4.788C9.056 4.788 8.144 5.136 7.352 5.832C6.56 6.504 6.164 7.56 6.164 9H0.872C0.872 6.96 1.316 5.28 2.204 3.96C3.116 2.616 4.292 1.62 5.732 0.971998C7.172 0.323998 8.696 -2.14577e-06 10.304 -2.14577e-06C11.936 -2.14577e-06 13.448 0.323998 14.84 0.971998C16.232 1.62 17.336 2.544 18.152 3.744C18.992 4.92 19.412 6.312 19.412 7.92C19.412 9.12 19.184 10.152 18.728 11.016C18.296 11.856 17.744 12.588 17.072 13.212C16.424 13.812 15.764 14.364 15.092 14.868C14.444 15.372 13.892 15.876 13.436 16.38C12.98 16.884 12.752 17.448 12.752 18.072V19.26H7.316ZM10.052 27.36C9.188 27.36 8.48 27.072 7.928 26.496C7.4 25.92 7.136 25.236 7.136 24.444C7.136 23.628 7.4 22.944 7.928 22.392C8.48 21.816 9.188 21.528 10.052 21.528C10.892 21.528 11.588 21.816 12.14 22.392C12.692 22.944 12.968 23.628 12.968 24.444C12.968 25.236 12.692 25.92 12.14 26.496C11.588 27.072 10.892 27.36 10.052 27.36Z" fill="#1C1A1A"/>
</svg>
