<svg width="24" height="24" viewBox="0 0 24 24" fill="none" xmlns="http://www.w3.org/2000/svg">
<path d="M6 12.8247C6 11.1237 6.67 9.57732 7.76 8.45361L6.34 6.98969C4.9 8.48454 4 10.5464 4 12.8247C4 17.0309 7.05 20.4948 11 21V18.9175C8.17 18.4227 6 15.8866 6 12.8247ZM20 12.8247C20 8.26804 16.42 4.57732 12 4.57732C11.94 4.57732 11.88 4.58763 11.82 4.58763L12.91 3.46392L11.5 2L8 5.60825L11.5 9.2165L12.91 7.76289L11.83 6.64949C11.89 6.64949 11.95 6.63918 12 6.63918C15.31 6.63918 18 9.41237 18 12.8247C18 15.8866 15.83 18.4227 13 18.9175V21C16.95 20.4948 20 17.0309 20 12.8247Z" fill="white"/>
</svg>
