<svg width="254" height="243" viewBox="0 0 254 243" fill="none" xmlns="http://www.w3.org/2000/svg">
<path d="M101.961 6.5L107.726 23.1757L113.492 39.8513C122.508 65.926 115.616 71.5675 97.769 90.7726C79.9226 109.978 61.6643 129.959 54.7659 137.549C48.14 145.271 34.8643 166.154 34.7689 187.911C34.6735 209.668 39.9468 229.116 42.5954 236.121" stroke="url(#paint0_linear_2758_35552)" stroke-width="10" stroke-linecap="round"/>
<path d="M94.3899 154.853C42.7759 171.3 35.4639 217.383 38.2596 238.37C38.4564 240.181 40.7149 241.46 42.2156 242.032C42.5831 242.172 42.9758 242.224 43.3691 242.224H246.006C252.2 242.738 253.748 237.299 253.748 234.515V35.939C253.748 35.5554 253.694 35.1671 253.574 34.8026C250.933 26.7341 245.739 29.202 243.425 31.506L231.301 45.3898C230.792 45.9721 230.118 46.3988 229.372 46.6027C208.454 52.3213 197.783 48.8059 195.037 46.282L180.743 32.0487C180.383 31.6902 179.959 31.3973 179.483 31.2197C173.51 28.9914 170.545 32.0376 169.523 34.4858C169.289 35.0473 169.3 35.6661 169.399 36.2666C171.125 46.8324 168.32 74.9435 166.649 88.0402C164.069 103.459 146.004 138.407 94.3899 154.853Z" fill="#E9BB17"/>
<path d="M81.8496 233.398V220.544C87.6338 220.544 87.6338 220.544 87.6338 215.403V189.695H98.5594C98.3451 196.336 98.5594 210.747 98.5594 215.403C98.5594 220.544 98.5594 220.544 103.701 220.544V233.398H81.8496Z" fill="#FEFCFF"/>
<path d="M108.842 233.397V220.544C114.626 220.544 114.626 220.544 114.626 214.873V188.41H125.552C125.338 195.246 125.552 210.08 125.552 214.873C125.552 220.544 125.552 220.544 130.694 220.544V233.397H108.842Z" fill="#FEFCFF"/>
<path d="M189.82 233.397V219.258C194.448 219.258 195.604 219.258 195.604 214.873V188.41H206.53C206.316 195.246 206.53 210.082 206.53 214.873C206.53 219.901 206.53 219.258 211.672 219.258V233.397H189.82Z" fill="#FEFCFF"/>
<path d="M157.687 233.397H135.836V220.544C141.62 220.544 141.62 221.187 141.62 216.413V188.41H157.687V233.397Z" fill="#FEFCFF"/>
<path d="M239.951 233.397H218.1V219.258C224.526 219.258 223.884 219.258 223.884 215.623V188.41H239.951V233.397Z" fill="#FEFCFF"/>
<path d="M162.826 233.397H184.678V219.258C178.894 219.258 178.894 219.258 178.894 215.623V188.41H162.826V233.397Z" fill="#FEFCFF"/>
<path d="M75.4233 233.397V220.544C69.6391 220.544 69.6391 219.901 69.6391 214.782V194.836C59.3562 201.751 55.5001 223.425 54.8574 233.397H75.4233Z" fill="#FEFCFF"/>
<path d="M195.248 91.2583C204.361 91.2583 211.748 83.871 211.748 74.7583C211.748 65.6456 204.361 58.2583 195.248 58.2583C186.135 58.2583 178.748 65.6456 178.748 74.7583C178.748 83.871 186.135 91.2583 195.248 91.2583Z" fill="white"/>
<path d="M228.248 91.2583C237.361 91.2583 244.748 83.871 244.748 74.7583C244.748 65.6456 237.361 58.2583 228.248 58.2583C219.135 58.2583 211.748 65.6456 211.748 74.7583C211.748 83.871 219.135 91.2583 228.248 91.2583Z" fill="white"/>
<path d="M202.664 76.2583C203.263 76.2583 203.756 76.7461 203.68 77.3407C203.593 78.0191 203.425 78.6844 203.178 79.3198C202.801 80.2904 202.249 81.1723 201.552 81.9152C200.856 82.658 200.029 83.2473 199.119 83.6493C198.209 84.0514 197.234 84.2583 196.249 84.2583C195.264 84.2583 194.289 84.0514 193.379 83.6493C192.469 83.2473 191.642 82.658 190.946 81.9152C190.249 81.1723 189.697 80.2904 189.32 79.3198C189.073 78.6844 188.905 78.0191 188.818 77.3407C188.742 76.7461 189.235 76.2583 189.834 76.2583C190.434 76.2583 190.91 76.748 191.017 77.3378C191.084 77.7124 191.188 78.0796 191.325 78.4337C191.593 79.1234 191.986 79.7501 192.481 80.278C192.975 80.8059 193.563 81.2246 194.21 81.5103C194.856 81.796 195.549 81.943 196.249 81.943C196.949 81.943 197.642 81.796 198.289 81.5103C198.935 81.2246 199.523 80.8059 200.017 80.278C200.512 79.7501 200.905 79.1234 201.173 78.4337C201.31 78.0796 201.414 77.7124 201.481 77.3378C201.588 76.748 202.064 76.2583 202.664 76.2583Z" fill="#292626"/>
<path d="M235.664 76.2583C236.263 76.2583 236.756 76.7461 236.68 77.3407C236.593 78.0191 236.425 78.6844 236.178 79.3198C235.801 80.2904 235.249 81.1723 234.552 81.9152C233.856 82.658 233.029 83.2473 232.119 83.6493C231.209 84.0514 230.234 84.2583 229.249 84.2583C228.264 84.2583 227.289 84.0514 226.379 83.6493C225.469 83.2473 224.642 82.658 223.946 81.9152C223.249 81.1723 222.697 80.2904 222.32 79.3198C222.073 78.6844 221.905 78.0191 221.818 77.3407C221.742 76.7461 222.235 76.2583 222.834 76.2583C223.434 76.2583 223.91 76.748 224.017 77.3378C224.084 77.7124 224.188 78.0796 224.325 78.4337C224.593 79.1234 224.986 79.7501 225.481 80.278C225.975 80.8059 226.563 81.2246 227.21 81.5103C227.856 81.796 228.549 81.943 229.249 81.943C229.949 81.943 230.642 81.796 231.289 81.5103C231.935 81.2246 232.523 80.8059 233.017 80.278C233.512 79.7501 233.905 79.1234 234.173 78.4337C234.31 78.0796 234.414 77.7124 234.481 77.3378C234.588 76.748 235.064 76.2583 235.664 76.2583Z" fill="#292626"/>
<path d="M206 100.592C208.167 98.2585 213.7 94.9918 218.5 100.592" stroke="black" stroke-linecap="round"/>
<path d="M173.42 31.5C172.253 39.3333 172.82 54.1 184.42 50.5C196.02 46.9 181.92 36.3333 173.42 31.5Z" fill="#6F219E"/>
<path d="M250.349 30.5312C252.095 38.2561 252.629 53.0239 240.794 50.2972C228.958 47.5706 242.232 35.9839 250.349 30.5312Z" fill="#6F219E"/>
<defs>
<linearGradient id="paint0_linear_2758_35552" x1="38.4997" y1="236.5" x2="44.9997" y2="62" gradientUnits="userSpaceOnUse">
<stop stop-color="#E9BB17"/>
<stop offset="0.0001" stop-color="#CCA20F"/>
<stop offset="1" stop-color="#E9BB17"/>
</linearGradient>
</defs>
</svg>
