<svg width="254" height="242" viewBox="0 0 254 242" fill="none" xmlns="http://www.w3.org/2000/svg">
<path d="M101.963 6L107.728 22.6757L113.494 39.3513C122.51 65.426 115.618 71.0675 97.7709 90.2726C79.9245 109.478 61.6662 129.459 54.7678 137.049C48.1419 144.771 34.8662 165.654 34.7708 187.411C34.6754 209.168 39.9487 228.616 42.5973 235.621" stroke="url(#paint0_linear_1333_15819)" stroke-width="10" stroke-linecap="round"/>
<path d="M94.3918 154.353C42.7778 170.8 35.4658 216.883 38.2615 237.87C38.4583 239.681 40.7168 240.96 42.2175 241.532C42.585 241.672 42.9777 241.724 43.371 241.724H246.008C252.202 242.238 253.75 236.799 253.75 234.015V35.439C253.75 35.0554 253.696 34.6671 253.576 34.3026C250.935 26.2341 245.741 28.702 243.427 31.006L231.303 44.8898C230.794 45.4721 230.12 45.8988 229.374 46.1027C208.456 51.8213 197.785 48.3059 195.039 45.782L180.745 31.5487C180.385 31.1902 179.961 30.8973 179.485 30.7197C173.512 28.4914 170.547 31.5376 169.525 33.9858C169.291 34.5473 169.302 35.1661 169.401 35.7666C171.127 46.3324 168.322 74.4435 166.651 87.5402C164.071 102.959 146.006 137.907 94.3918 154.353Z" fill="#E9BB17"/>
<path d="M81.8477 232.898V220.044C87.6319 220.044 87.6319 220.044 87.6319 214.903V189.195H98.5575C98.3432 195.836 98.5575 210.247 98.5575 214.903C98.5575 220.044 98.5575 220.044 103.699 220.044V232.898H81.8477Z" fill="#FEFCFF"/>
<path d="M108.844 232.897V220.044C114.628 220.044 114.628 220.044 114.628 214.373V187.91H125.554C125.34 194.746 125.554 209.58 125.554 214.373C125.554 220.044 125.554 220.044 130.696 220.044V232.897H108.844Z" fill="#FEFCFF"/>
<path d="M189.82 232.897V218.758C194.448 218.758 195.604 218.758 195.604 214.373V187.91H206.53C206.316 194.746 206.53 209.582 206.53 214.373C206.53 219.401 206.53 218.758 211.672 218.758V232.897H189.82Z" fill="#FEFCFF"/>
<path d="M157.687 232.897H135.836V220.044C141.62 220.044 141.62 220.687 141.62 215.913V187.91H157.687V232.897Z" fill="#FEFCFF"/>
<path d="M239.949 232.897H218.098V218.758C224.524 218.758 223.882 218.758 223.882 215.123V187.91H239.949V232.897Z" fill="#FEFCFF"/>
<path d="M162.828 232.897H184.68V218.758C178.896 218.758 178.896 218.758 178.896 215.123V187.91H162.828V232.897Z" fill="#FEFCFF"/>
<path d="M75.4214 232.897V220.044C69.6372 220.044 69.6372 219.401 69.6372 214.282V194.336C59.3543 201.251 55.4982 222.925 54.8555 232.897H75.4214Z" fill="#FEFCFF"/>
<path d="M195.25 90.7583C204.363 90.7583 211.75 83.371 211.75 74.2583C211.75 65.1456 204.363 57.7583 195.25 57.7583C186.137 57.7583 178.75 65.1456 178.75 74.2583C178.75 83.371 186.137 90.7583 195.25 90.7583Z" fill="white"/>
<path d="M228.25 90.7583C237.363 90.7583 244.75 83.371 244.75 74.2583C244.75 65.1456 237.363 57.7583 228.25 57.7583C219.137 57.7583 211.75 65.1456 211.75 74.2583C211.75 83.371 219.137 90.7583 228.25 90.7583Z" fill="white"/>
<path d="M202.662 75.7583C203.261 75.7583 203.754 76.2461 203.678 76.8407C203.591 77.5191 203.423 78.1844 203.176 78.8198C202.799 79.7904 202.247 80.6723 201.55 81.4152C200.854 82.158 200.027 82.7473 199.117 83.1493C198.207 83.5514 197.232 83.7583 196.247 83.7583C195.262 83.7583 194.287 83.5514 193.377 83.1493C192.467 82.7473 191.64 82.158 190.944 81.4152C190.247 80.6723 189.695 79.7904 189.318 78.8198C189.071 78.1844 188.903 77.5191 188.816 76.8407C188.74 76.2461 189.233 75.7583 189.832 75.7583C190.432 75.7583 190.908 76.248 191.015 76.8378C191.082 77.2124 191.186 77.5796 191.323 77.9337C191.591 78.6234 191.984 79.2501 192.479 79.778C192.973 80.3059 193.561 80.7246 194.208 81.0103C194.854 81.296 195.547 81.443 196.247 81.443C196.947 81.443 197.64 81.296 198.287 81.0103C198.933 80.7246 199.521 80.3059 200.015 79.778C200.51 79.2501 200.903 78.6234 201.171 77.9337C201.308 77.5796 201.412 77.2124 201.479 76.8378C201.586 76.248 202.062 75.7583 202.662 75.7583Z" fill="#292626"/>
<path d="M235.662 75.7583C236.261 75.7583 236.754 76.2461 236.678 76.8407C236.591 77.5191 236.423 78.1844 236.176 78.8198C235.799 79.7904 235.247 80.6723 234.55 81.4152C233.854 82.158 233.027 82.7473 232.117 83.1493C231.207 83.5514 230.232 83.7583 229.247 83.7583C228.262 83.7583 227.287 83.5514 226.377 83.1493C225.467 82.7473 224.64 82.158 223.944 81.4152C223.247 80.6723 222.695 79.7904 222.318 78.8198C222.071 78.1844 221.903 77.5191 221.816 76.8407C221.74 76.2461 222.233 75.7583 222.832 75.7583C223.432 75.7583 223.908 76.248 224.015 76.8378C224.082 77.2124 224.186 77.5796 224.323 77.9337C224.591 78.6234 224.984 79.2501 225.479 79.778C225.973 80.3059 226.561 80.7246 227.208 81.0103C227.854 81.296 228.547 81.443 229.247 81.443C229.947 81.443 230.64 81.296 231.287 81.0103C231.933 80.7246 232.521 80.3059 233.015 79.778C233.51 79.2501 233.903 78.6234 234.171 77.9337C234.308 77.5796 234.412 77.2124 234.479 76.8378C234.586 76.248 235.062 75.7583 235.662 75.7583Z" fill="#292626"/>
<path d="M206 97C208.167 99.3333 213.7 102.6 218.5 97" stroke="black" stroke-linecap="round"/>
<path d="M173.42 31C172.253 38.8333 172.82 53.6 184.42 50C196.02 46.4 181.92 35.8333 173.42 31Z" fill="#6F219E"/>
<path d="M250.351 30.0312C252.097 37.7561 252.631 52.5239 240.796 49.7972C228.96 47.0706 242.234 35.4839 250.351 30.0312Z" fill="#6F219E"/>
<defs>
<linearGradient id="paint0_linear_1333_15819" x1="38.5016" y1="236" x2="45.0016" y2="61.5" gradientUnits="userSpaceOnUse">
<stop stop-color="#E9BB17"/>
<stop offset="0.0001" stop-color="#CCA20F"/>
<stop offset="1" stop-color="#E9BB17"/>
</linearGradient>
</defs>
</svg>
