<svg width="7" height="16" viewBox="0 0 7 16" fill="none" xmlns="http://www.w3.org/2000/svg">
<path d="M5.21273 14.656C5.21273 14.8693 5.03818 15.0613 4.82 15.0613C4.60182 15.0613 4.40545 14.8693 4.40545 14.656V11.5627L2.59455 12.224V15.5947C2.59455 15.808 2.39818 16 2.18 16C1.96182 16 1.78727 15.808 1.78727 15.5947V12.5013L1.08909 12.7573C1.04545 12.7787 0.98 12.7787 0.936364 12.7787C0.696364 12.7787 0.5 12.5867 0.5 12.352V11.072C0.5 10.9013 0.609091 10.7307 0.783636 10.6667L1.78727 10.3253V6.912L1.08909 7.14667C1.04545 7.168 0.98 7.168 0.936364 7.168C0.696364 7.168 0.5 6.976 0.5 6.74133V5.46133C0.5 5.29067 0.609091 5.14133 0.783636 5.07733L1.78727 4.71467V1.344C1.78727 1.13067 1.96182 0.938667 2.18 0.938667C2.39818 0.938667 2.59455 1.13067 2.59455 1.344V4.43733L4.40545 3.776V0.405334C4.40545 0.192 4.60182 0 4.82 0C5.03818 0 5.21273 0.192 5.21273 0.405334V3.49867L5.91091 3.24267C5.95455 3.22133 6.02 3.22133 6.06364 3.22133C6.30364 3.22133 6.5 3.41333 6.5 3.648V4.928C6.5 5.09867 6.39091 5.26933 6.21636 5.33333L5.21273 5.67467V9.088L5.91091 8.85333C5.95455 8.832 6.02 8.832 6.06364 8.832C6.30364 8.832 6.5 9.024 6.5 9.25867V10.5387C6.5 10.7093 6.39091 10.8587 6.21636 10.9227L5.21273 11.2853V14.656ZM2.59455 6.61333V10.0267L4.40545 9.38667V5.97333L2.59455 6.61333Z" fill="#1C1A1A"/>
</svg>
