<svg width="301" height="290" viewBox="0 0 301 290" fill="none" xmlns="http://www.w3.org/2000/svg">
<ellipse cx="162.5" cy="272.5" rx="138.5" ry="17.5" fill="#DDDADA"/>
<path d="M114.806 6.74382L121.298 25.4867L127.79 44.2296C137.942 73.5367 130.182 79.8775 110.087 101.463C89.9919 123.05 69.4334 145.508 61.6659 154.039C54.2052 162.718 39.257 186.19 39.1496 210.644C39.0422 235.098 44.9798 256.957 47.9621 264.83" stroke="url(#paint0_linear_201_154)" stroke-width="10" stroke-linecap="round"/>
<path d="M106.283 173.488C48.166 191.974 39.9328 243.769 43.0807 267.358C43.3023 269.394 45.8453 270.831 47.5351 271.474C47.9489 271.631 48.3911 271.69 48.8339 271.69H277C283.974 272.268 285.717 266.154 285.717 263.025V39.8323C285.717 39.4011 285.657 38.9647 285.521 38.555C282.548 29.4863 276.699 32.2601 274.094 34.8497L260.442 50.4547C259.869 51.1091 259.11 51.5887 258.27 51.8179C234.717 58.2454 222.702 54.2942 219.61 51.4575L203.515 35.4597C203.11 35.0567 202.632 34.7275 202.096 34.5279C195.371 32.0234 192.032 35.4472 190.881 38.1989C190.618 38.83 190.63 39.5255 190.742 40.2005C192.685 52.0761 189.527 83.672 187.645 98.3923C184.74 115.723 164.399 155.003 106.283 173.488Z" fill="#E9BB17"/>
<path d="M92.1614 261.77V247.322C98.6743 247.322 98.6743 247.322 98.6743 241.544V212.649H110.976C110.735 220.113 110.976 236.311 110.976 241.544C110.976 247.322 110.976 247.322 116.766 247.322V261.77H92.1614Z" fill="#FEFCFF"/>
<path d="M122.554 261.769V247.322C129.067 247.322 129.067 247.322 129.067 240.948V211.205H141.37C141.129 218.888 141.37 235.561 141.37 240.948C141.37 247.322 141.37 247.322 147.159 247.322V261.769H122.554Z" fill="#FEFCFF"/>
<path d="M213.734 261.769V245.877C218.945 245.877 220.247 245.877 220.247 240.948V211.205H232.55C232.309 218.888 232.55 235.563 232.55 240.948C232.55 246.599 232.55 245.877 238.339 245.877V261.769H213.734Z" fill="#FEFCFF"/>
<path d="M177.552 261.769H152.948V247.322C159.461 247.322 159.461 248.045 159.461 242.679V211.205H177.552V261.769Z" fill="#FEFCFF"/>
<path d="M270.18 261.769H245.576V245.877C252.812 245.877 252.089 245.877 252.089 241.791V211.205H270.18V261.769Z" fill="#FEFCFF"/>
<path d="M183.341 261.769H207.946V245.877C201.433 245.877 201.433 245.877 201.433 241.791V211.205H183.341V261.769Z" fill="#FEFCFF"/>
<path d="M84.9249 261.769V247.322C78.412 247.322 78.412 246.599 78.412 240.846V218.427C66.8336 226.199 62.4917 250.56 61.768 261.769H84.9249Z" fill="#FEFCFF"/>
<path d="M219.847 102.009C230.108 102.009 238.426 93.7062 238.426 83.4639C238.426 73.2215 230.108 64.9184 219.847 64.9184C209.587 64.9184 201.269 73.2215 201.269 83.4639C201.269 93.7062 209.587 102.009 219.847 102.009Z" fill="white"/>
<path d="M257.005 102.009C267.266 102.009 275.584 93.7062 275.584 83.4639C275.584 73.2215 267.266 64.9184 257.005 64.9184C246.744 64.9184 238.426 73.2215 238.426 83.4639C238.426 93.7062 246.744 102.009 257.005 102.009Z" fill="white"/>
<path d="M228.196 85.1498C228.871 85.1498 229.426 85.6981 229.34 86.3664C229.243 87.1289 229.053 87.8767 228.775 88.5909C228.351 89.6818 227.729 90.673 226.944 91.508C226.161 92.3429 225.23 93.0052 224.205 93.4571C223.18 93.909 222.082 94.1416 220.973 94.1416C219.864 94.1416 218.766 93.909 217.742 93.4571C216.717 93.0052 215.786 92.3429 215.002 91.508C214.217 90.673 213.596 89.6818 213.171 88.5909C212.893 87.8767 212.704 87.1289 212.606 86.3664C212.521 85.6981 213.076 85.1498 213.75 85.1498C214.426 85.1498 214.962 85.7002 215.082 86.3631C215.158 86.7842 215.275 87.1969 215.429 87.5949C215.731 88.3701 216.173 89.0745 216.731 89.6678C217.287 90.2612 217.949 90.7318 218.677 91.0529C219.405 91.374 220.185 91.5392 220.973 91.5392C221.761 91.5392 222.542 91.374 223.27 91.0529C223.998 90.7318 224.66 90.2612 225.216 89.6678C225.773 89.0745 226.216 88.3701 226.518 87.5949C226.672 87.1969 226.789 86.7842 226.864 86.3631C226.985 85.7002 227.521 85.1498 228.196 85.1498Z" fill="#292626"/>
<path d="M265.354 85.1498C266.028 85.1498 266.584 85.6981 266.498 86.3664C266.4 87.1289 266.211 87.8767 265.933 88.5909C265.508 89.6818 264.887 90.673 264.102 91.508C263.318 92.3429 262.387 93.0052 261.362 93.4571C260.338 93.909 259.24 94.1416 258.131 94.1416C257.022 94.1416 255.924 93.909 254.899 93.4571C253.875 93.0052 252.943 92.3429 252.16 91.508C251.375 90.673 250.753 89.6818 250.329 88.5909C250.051 87.8767 249.862 87.1289 249.764 86.3664C249.678 85.6981 250.233 85.1498 250.908 85.1498C251.583 85.1498 252.119 85.7002 252.24 86.3631C252.315 86.7842 252.432 87.1969 252.586 87.5949C252.888 88.3701 253.331 89.0745 253.888 89.6678C254.444 90.2612 255.106 90.7318 255.835 91.0529C256.562 91.374 257.343 91.5392 258.131 91.5392C258.919 91.5392 259.699 91.374 260.428 91.0529C261.155 90.7318 261.817 90.2612 262.373 89.6678C262.931 89.0745 263.373 88.3701 263.675 87.5949C263.829 87.1969 263.946 86.7842 264.022 86.3631C264.142 85.7002 264.678 85.1498 265.354 85.1498Z" fill="#292626"/>
<path d="M231.953 109.025C234.393 111.647 240.623 115.319 246.028 109.025" stroke="black" stroke-linecap="round"/>
<path d="M195.268 34.843C193.954 43.6473 194.593 60.2446 207.654 56.1983C220.715 52.1521 204.839 40.2754 195.268 34.843Z" fill="#6F219E"/>
<path d="M281.889 33.7541C283.855 42.4365 284.456 59.0351 271.13 55.9704C257.803 52.9058 272.749 39.8826 281.889 33.7541Z" fill="#6F219E"/>
<defs>
<linearGradient id="paint0_linear_201_154" x1="43.3504" y1="265.256" x2="50.6431" y2="69.123" gradientUnits="userSpaceOnUse">
<stop stop-color="#E9BB17"/>
<stop offset="0.0001" stop-color="#CCA20F"/>
<stop offset="1" stop-color="#E9BB17"/>
</linearGradient>
</defs>
</svg>
