<svg width="315" height="235" viewBox="0 0 315 235" fill="none" xmlns="http://www.w3.org/2000/svg">
<ellipse cx="157.5" cy="219.5" rx="98" ry="15.5" fill="black"/>
<path d="M307.215 92.3999C303.756 93.2251 293.689 97.6732 291.353 102.17C290.523 103.768 292.168 105.121 293.956 105.309C298.716 105.808 306.026 106.729 301.825 108.6C296.435 111 293.042 113.6 291.046 113.4" stroke="#F1DBFF" stroke-width="3"/>
<path d="M7.18628 112.8C10.6456 113.625 20.7116 118.073 23.0477 122.57C23.8779 124.169 22.2336 125.521 20.4451 125.708C15.6854 126.207 8.37534 127.129 12.576 129C17.9657 131.4 21.3592 134 23.3555 133.8" stroke="#F1DBFF" stroke-width="3"/>
<path d="M306.616 122.4C304.962 122.4 303.622 121.057 303.622 119.4C303.622 117.743 304.962 116.4 306.616 116.4C308.27 116.4 309.61 117.743 309.61 119.4C309.61 121.057 308.27 122.4 306.616 122.4Z" fill="#F1DBFF"/>
<path d="M7.78507 142.8C9.43877 142.8 10.7794 141.457 10.7794 139.8C10.7794 138.143 9.43877 136.8 7.78507 136.8C6.13136 136.8 4.79077 138.143 4.79077 139.8C4.79077 141.457 6.13136 142.8 7.78507 142.8Z" fill="#F1DBFF"/>
<path d="M314.401 130.2C300.029 130.2 294.04 131.4 292.842 132" stroke="#F1DBFF" stroke-width="3"/>
<path d="M0 150.6C14.3726 150.6 20.3612 151.8 21.5589 152.4" stroke="#F1DBFF" stroke-width="3"/>
<path d="M62.3731 161.618C47.9941 116.803 99.6855 81.6345 124.85 70.3326L130.057 67.7244C130.057 62.5081 112.586 39.0001 140.732 28.8001C158.465 22.3735 164.686 25.2 170.076 33.6002L182.12 57.2919L187.327 59.9C198.821 40.2002 201.516 36.4244 220.38 46.2002C237.747 55.2002 235.919 67.7244 231.581 72.9408L223.771 83.3733C240.431 93.8059 251.539 112.063 255.01 119.888C257.831 126.246 272.135 148.72 249.803 187.699C227.515 226.603 171.707 233.112 140.47 229.429C115.577 226.495 76.5291 205.739 62.3731 161.618Z" fill="#E9BB17" stroke="#E9BB17"/>
<path d="M156.209 200.522C99.9803 198.436 69.6466 164.55 59.2339 151.509C61.837 174.982 71.4979 218.51 127.574 229.212C194.844 242.05 220.306 225.756 247.322 195.306C268.146 171.833 265.894 139.973 258.952 126.062C249.407 151.274 212.438 202.609 156.209 200.522Z" fill="#DEB41D" stroke="#D9AF1C" stroke-width="0.2"/>
<path d="M124.97 158.791C143.66 158.791 158.812 143.611 158.812 124.885C158.812 106.159 143.66 90.979 124.97 90.979C106.28 90.979 91.1284 106.159 91.1284 124.885C91.1284 143.611 106.28 158.791 124.97 158.791Z" fill="white"/>
<path d="M192.653 158.791C211.343 158.791 226.495 143.611 226.495 124.885C226.495 106.159 211.343 90.979 192.653 90.979C173.963 90.979 158.812 106.159 158.812 124.885C158.812 143.611 173.963 158.791 192.653 158.791Z" fill="white"/>
<path d="M140.933 127.494C142.181 127.494 143.21 128.513 143.029 129.75C142.843 131.029 142.5 132.283 142.004 133.482C141.219 135.382 140.068 137.106 138.618 138.559C137.167 140.013 135.446 141.166 133.55 141.952C131.656 142.738 129.624 143.143 127.574 143.143C125.522 143.143 123.492 142.738 121.596 141.952C119.701 141.166 117.98 140.013 116.529 138.559C115.079 137.106 113.928 135.382 113.143 133.482C112.648 132.283 112.304 131.029 112.118 129.75C111.938 128.513 112.966 127.494 114.215 127.494C115.463 127.494 116.452 128.518 116.704 129.743C116.845 130.428 117.051 131.1 117.32 131.749C117.878 133.098 118.695 134.325 119.726 135.357C120.756 136.39 121.979 137.208 123.327 137.767C124.673 138.327 126.116 138.613 127.574 138.613C129.031 138.613 130.475 138.327 131.821 137.767C133.167 137.208 134.391 136.39 135.421 135.357C136.452 134.325 137.269 133.098 137.827 131.749C138.096 131.1 138.302 130.428 138.443 129.743C138.696 128.518 139.684 127.494 140.933 127.494Z" fill="#292626"/>
<path d="M208.615 127.494C209.864 127.494 210.892 128.513 210.712 129.75C210.527 131.029 210.183 132.283 209.687 133.482C208.901 135.382 207.751 137.106 206.301 138.559C204.851 140.013 203.128 141.166 201.233 141.952C199.339 142.738 197.307 143.143 195.257 143.143C193.205 143.143 191.174 142.738 189.279 141.952C187.384 141.166 185.662 140.013 184.211 138.559C182.762 137.106 181.611 135.382 180.827 133.482C180.331 132.283 179.987 131.029 179.8 129.75C179.621 128.513 180.649 127.494 181.897 127.494C183.145 127.494 184.135 128.518 184.388 129.743C184.528 130.428 184.734 131.1 185.002 131.749C185.56 133.098 186.378 134.325 187.408 135.357C188.439 136.39 189.662 137.208 191.008 137.767C192.356 138.327 193.799 138.613 195.257 138.613C196.714 138.613 198.158 138.327 199.504 137.767C200.85 137.208 202.074 136.39 203.104 135.357C204.135 134.325 204.952 133.098 205.51 131.749C205.779 131.1 205.985 130.428 206.126 129.743C206.379 128.518 207.367 127.494 208.615 127.494Z" fill="#292626"/>
<path d="M287.589 120.981L282.56 121.165L282.928 131.244L283.386 143.841L288.415 143.658C290.207 137.538 288.612 125.99 287.589 120.981Z" fill="#C5A5F3" stroke="#75C973" stroke-width="0.2"/>
<path d="M32.9798 163.093L38.0095 162.908L37.6423 152.831L37.1832 140.232L32.1535 140.416C30.3621 146.537 31.958 158.084 32.9798 163.093Z" fill="#C5A5F3" stroke="#75C973" stroke-width="0.2"/>
<path d="M55.6547 117.096L63.3426 180.897L43.5315 177.204C40.8552 173.465 35.7375 158.367 36.6765 127.882L46.1657 122.489L40.7304 68.5905C70.7348 32.4198 156.377 -23.2692 258.907 43.3397L264.532 99.1182L276.831 102.938C280.238 109.769 286.03 129.485 281.95 153.703L263.151 160.038L256.787 96.2025L264.532 99.1182L258.907 43.3397C156.377 -23.2692 70.7348 32.4198 40.7304 68.5905L46.1657 122.489L55.6547 117.096Z" fill="#6F219E"/>
<path d="M46.1657 122.489L36.6765 127.882C35.7375 158.367 40.8552 173.465 43.5315 177.204L63.3426 180.897L55.6547 117.096L46.1657 122.489ZM46.1657 122.489L40.7304 68.5905C70.7348 32.4198 156.377 -23.2692 258.907 43.3397L264.532 99.1182M264.532 99.1182L256.787 96.2025L263.151 160.038L281.95 153.703C286.03 129.485 280.238 109.769 276.831 102.938L264.532 99.1182Z" stroke="#6F219E"/>
<path d="M46.3006 175.263C43.313 165.534 38.0109 142.869 40.7037 130.055" stroke="#C5A5F3"/>
<path d="M272.943 105.503C275.584 115.697 280.024 139.362 276.654 152.482" stroke="#C5A5F3"/>
<path d="M137.738 177.6C145.419 184.844 165.036 194.987 182.053 177.6" stroke="black" stroke-linecap="round"/>
</svg>
