<svg width="269" height="240" viewBox="0 0 269 240" fill="none" xmlns="http://www.w3.org/2000/svg">
<path opacity="0.7" d="M238.77 172.278C258.319 161.042 268.596 136.42 260.475 116.742C252.087 96.4156 228.25 90.7424 208.453 102.112L208.446 102.116C208.131 102.298 207.82 102.491 207.514 102.689L173.381 19.9573L173.38 19.9567C167.994 6.90209 153.3 2.5618 140.414 8.36489L139.801 8.64971L10.7269 70.3159L6.44977 72.3595L8.26543 76.7599L64.8467 213.887C73.2289 234.208 97.0722 239.888 116.864 228.512C136.413 217.276 146.69 192.655 138.569 172.976C130.181 152.65 106.344 146.977 86.5474 158.346L86.5401 158.35C86.2251 158.531 85.9148 158.724 85.6089 158.923L65.0165 109.01L149.946 68.4516L186.752 157.654C195.135 177.974 218.978 183.653 238.77 172.278ZM233.691 146.14C231.452 145.366 228.894 145.669 226.905 146.808L226.897 146.812L226.888 146.817C225.181 147.803 223.756 149.444 222.989 151.378C222.083 149.918 220.645 148.741 218.615 148.19L218.614 148.189C217.02 147.757 215.43 147.876 214.013 148.345C214.278 146.983 214.213 145.535 213.71 144.108L213.557 143.707L213.356 143.257C211.181 138.732 205.902 138.148 202.394 140.156L202.385 140.161L202.377 140.166C201.009 140.955 199.821 142.166 199.008 143.611L160.887 51.2276L158.876 46.3532L158.588 46.4912C158.508 45.7602 158.325 45.0222 158.024 44.2913L158.024 44.2905C157.025 41.8648 155.185 40.4678 153.144 39.9176C154.129 37.889 154.384 35.4684 153.416 33.1185C151.383 28.1829 145.874 27.4949 142.253 29.5672L142.245 29.5721L142.236 29.5763C138.859 31.5256 136.576 36.0413 138.338 40.318C139.337 42.7436 141.176 44.1415 143.218 44.6917C142.233 46.7204 141.977 49.1413 142.945 51.4908C143.249 52.2286 143.633 52.8709 144.076 53.4246L58.4065 94.3517C58.3792 93.4174 58.1877 92.4648 57.8 91.5237C56.8006 89.0977 54.9607 87.7002 52.9189 87.1501C53.8494 85.2363 54.1277 82.9737 53.3447 80.7524L53.1917 80.3503L53.1865 80.3382C51.1512 75.4349 45.6703 74.7096 42.0284 76.8004C38.6296 78.7454 36.3439 83.2682 38.1062 87.5462L38.1115 87.5583C39.1134 89.9723 40.9514 91.3721 42.9933 91.9235C42.0079 93.9526 41.7528 96.3742 42.7227 98.7252L42.7234 98.7258C43.1157 99.6769 43.6368 100.47 44.2489 101.116L43.7963 101.331L45.612 105.732L75.9425 179.237L78.7892 186.138L84.0626 180.882L87.3848 177.569L87.7476 177.215C89.5745 175.457 91.5977 173.91 93.8072 172.642L93.8098 172.64C104.118 166.718 114.509 168.479 120.333 175.084C118.709 174.992 117.062 175.378 115.68 176.172C115.679 176.173 115.676 176.173 115.675 176.174C115.671 176.176 115.667 176.178 115.663 176.18L115.663 176.181C112.273 178.132 109.999 182.646 111.759 186.917L111.763 186.927C112.584 188.907 113.967 190.206 115.563 190.914C115.489 190.955 115.416 190.997 115.343 191.04L115.343 191.039C115.335 191.044 115.327 191.05 115.318 191.055C115.3 191.066 115.28 191.075 115.261 191.087L115.262 191.089C113.578 192.098 112.27 193.634 111.532 195.443L111.509 195.501C110.668 197.637 110.719 200.241 111.798 202.379C109.556 201.599 106.992 201.901 104.999 203.042L104.983 203.051C103.276 204.037 101.85 205.678 101.083 207.612C100.178 206.152 98.7393 204.975 96.7078 204.424C95.113 203.992 93.5247 204.107 92.1055 204.579C92.371 203.22 92.3082 201.773 91.8041 200.343L91.651 199.941L91.4502 199.491C89.2752 194.966 83.9963 194.382 80.4876 196.39L80.4791 196.395L80.4705 196.4C79.1027 197.19 77.9148 198.401 77.102 199.846L27.664 80.0329L145.883 23.5704L145.885 23.5696C151.682 20.7988 156.594 23.0219 158.298 27.1551L158.299 27.1571L197.848 123.004L200.695 129.904L205.968 124.648L209.291 121.335L209.654 120.981C211.481 119.223 213.504 117.676 215.713 116.408L215.716 116.406C226.023 110.484 236.417 112.249 242.239 118.85C240.616 118.757 238.969 119.143 237.586 119.938C237.585 119.938 237.583 119.938 237.581 119.939C237.577 119.942 237.573 119.944 237.569 119.946L237.569 119.947C234.181 121.897 231.904 126.413 233.666 130.685L233.669 130.693C234.487 132.666 235.864 133.962 237.454 134.672C237.381 134.712 237.308 134.751 237.236 134.793L237.221 134.802L237.206 134.81C235.496 135.83 234.163 137.407 233.43 139.23L233.419 139.257C232.574 141.393 232.614 144.001 233.691 146.14ZM86.1941 214.558C85.0514 213.762 84.0079 212.83 83.0791 211.776C84.132 211.836 85.1937 211.694 86.1854 211.374C85.9959 212.414 85.9944 213.503 86.1941 214.558ZM103.387 216.89C102.295 217.206 101.214 217.44 100.148 217.595C100.714 216.932 101.183 216.198 101.531 215.429L101.674 215.092L101.682 215.073C101.69 215.052 101.698 215.03 101.706 215.008C102.178 215.768 102.749 216.391 103.387 216.89ZM124.851 191.933C124.275 191.378 123.587 190.906 122.782 190.545C122.828 190.52 122.875 190.495 122.921 190.469C123.715 190.015 124.446 189.42 125.081 188.721C125.072 189.785 124.995 190.858 124.851 191.933ZM118.6 206.427C118.006 207.182 117.374 207.913 116.704 208.62C116.633 208.079 116.507 207.536 116.316 206.994L116.162 206.593L115.961 206.143C115.93 206.077 115.894 206.014 115.861 205.95C116.054 206.02 116.251 206.085 116.456 206.142L116.484 206.149L116.512 206.157C117.22 206.345 117.92 206.431 118.6 206.427ZM208.104 158.325C206.96 157.529 205.915 156.596 204.985 155.542C206.039 155.602 207.102 155.459 208.094 155.138C207.906 156.177 207.904 157.268 208.104 158.325ZM225.297 160.659C224.203 160.975 223.12 161.208 222.052 161.363C222.62 160.7 223.089 159.965 223.437 159.195L223.58 158.858L223.588 158.839C223.597 158.818 223.604 158.795 223.612 158.774C224.086 159.535 224.658 160.16 225.297 160.659ZM246.756 135.702C246.179 135.147 245.489 134.675 244.679 134.316C244.734 134.286 244.79 134.257 244.844 134.226C245.631 133.773 246.357 133.181 246.987 132.487C246.978 133.552 246.901 134.625 246.756 135.702ZM240.514 150.187C239.918 150.945 239.283 151.681 238.611 152.391C238.523 151.715 238.347 151.034 238.069 150.359C237.975 150.132 237.871 149.916 237.763 149.707C237.964 149.779 238.171 149.847 238.385 149.905L238.392 149.907C239.112 150.102 239.823 150.19 240.514 150.187Z" stroke="#DAA718" stroke-width="10" stroke-linecap="round"/>
</svg>
