<svg width="228" height="148" viewBox="0 0 228 148" fill="none" xmlns="http://www.w3.org/2000/svg">
<path d="M198.169 155.346C215.936 147.177 226.829 126.686 221.316 108.908C215.594 90.4605 195.229 83.7142 177.204 91.995L177.196 91.9985C177.166 92.0127 177.136 92.0288 177.105 92.0432L154.725 19.857C150.95 7.68155 137.972 2.77214 126.092 7.17419L126.092 7.17488L11.5452 49.6415L7.09995 51.2902L8.50974 55.8369L46.0304 176.839C51.7464 195.282 72.1162 202.034 90.1372 193.748C107.904 185.578 118.798 165.088 113.284 147.309C107.563 128.862 87.1979 122.116 69.1734 130.396L69.1665 130.399C69.1357 130.413 69.1055 130.429 69.0748 130.443L55.8799 87.8812L129.881 60.461L154.06 138.438C159.777 156.881 180.147 163.633 198.169 155.346ZM194.495 130.932C192.791 130.543 190.968 130.737 189.443 131.435L189.433 131.439L189.425 131.443C188.117 132.048 186.929 133.046 186.052 134.29C185.302 133.298 184.245 132.471 182.838 131.949L182.838 131.948C181.753 131.546 180.648 131.43 179.595 131.523C179.727 130.584 179.689 129.601 179.436 128.605L179.327 128.215L179.175 127.77C177.499 123.282 172.546 122.31 169.109 123.883L169.101 123.887L169.092 123.891C168.165 124.32 167.298 124.946 166.559 125.717L141.681 45.4869L140.119 40.4496L140.039 40.4799C139.982 40.1078 139.897 39.7322 139.78 39.3556L139.779 39.3563C139.139 37.2971 137.843 35.9179 136.293 35.1331C137.037 33.5753 137.31 31.7625 136.837 29.8991L136.727 29.507L136.575 29.0614C134.9 24.5742 129.947 23.6032 126.511 25.175L126.502 25.1791L126.493 25.1825C123.2 26.7039 120.66 30.7125 121.956 34.8993C122.595 36.9643 123.893 38.3476 125.445 39.1336C124.65 40.8004 124.392 42.7587 125.011 44.7583C125.135 45.16 125.287 45.5347 125.459 45.8859L51.205 73.4134C51.1597 72.8782 51.0573 72.3348 50.8882 71.7884C50.2492 69.7234 48.9505 68.3408 47.3976 67.5548C48.1943 65.8874 48.4514 63.9283 47.833 61.9294L47.8289 61.917C46.3164 57.0747 41.1697 55.9546 37.5991 57.6043L37.5991 57.6057C34.2941 59.1276 31.7622 63.1361 33.0558 67.3169L33.0599 67.3293C33.7018 69.3844 34.9992 70.7678 36.5519 71.5546C35.7558 73.2219 35.4969 75.1809 36.1172 77.1821L36.1179 77.1828C36.2964 77.759 36.5275 78.2814 36.7998 78.7534L36.6233 78.818L38.0331 83.3647L58.1458 148.228L60.3568 155.357L66.0837 150.6L69.1745 148.034C70.908 146.603 72.8043 145.385 74.8474 144.447L74.8501 144.446C83.148 140.632 90.8713 142.287 95.3223 147.123C94.364 147.187 93.4246 147.419 92.5738 147.81C92.5707 147.811 92.5674 147.812 92.5642 147.814C92.5616 147.815 92.5585 147.815 92.5559 147.816L92.5559 147.818C89.2506 149.341 86.7211 153.348 88.0147 157.528L88.0174 157.538C88.472 158.996 89.2573 160.115 90.2284 160.924C88.9504 161.728 87.9071 162.865 87.2115 164.208L87.197 164.235L87.1831 164.263C86.4287 165.764 86.1546 167.597 86.4716 169.335C84.7658 168.944 82.9389 169.138 81.4115 169.837L81.3949 169.845C80.087 170.449 78.8989 171.446 78.0216 172.691C77.2714 171.699 76.2139 170.871 74.8058 170.349C73.7211 169.947 72.6178 169.83 71.5642 169.924C71.696 168.987 71.6587 168.005 71.4058 167.008L71.2952 166.616L71.1435 166.171C69.468 161.684 64.5157 160.712 61.0793 162.284L61.0696 162.288L61.0614 162.292C60.1342 162.721 59.2672 163.347 58.5283 164.118L26.3517 60.3486L130.616 21.7081L130.617 21.7081C135.446 19.9165 138.967 22.0745 139.95 25.2479L139.951 25.25L166.176 109.827L168.387 116.957L174.114 112.199L177.195 109.64L177.854 109.112C179.409 107.905 181.088 106.868 182.879 106.046L182.881 106.045C191.178 102.232 198.902 103.888 203.352 108.721C202.388 108.786 201.443 109.02 200.587 109.415L200.587 109.416C197.283 110.938 194.749 114.947 196.046 119.13L196.048 119.137C196.501 120.591 197.285 121.708 198.252 122.517C196.969 123.332 195.919 124.483 195.232 125.826L195.063 126.18C194.423 127.617 194.202 129.315 194.495 130.932ZM38.9029 62.6588C38.763 62.7775 38.6323 62.9049 38.5142 63.0421C38.6159 62.8973 38.7442 62.7668 38.9029 62.6588ZM42.376 66.2042C42.274 66.3495 42.1451 66.4807 41.9859 66.5888C42.1263 66.4698 42.2576 66.3419 42.376 66.2042ZM41.5479 72.9363C41.651 72.7821 41.7829 72.6429 41.9498 72.5289C41.8039 72.6543 41.6698 72.7908 41.5479 72.9363ZM127.386 30.6563C127.49 30.5014 127.622 30.3617 127.79 30.2475C127.643 30.3733 127.508 30.5103 127.386 30.6563ZM131.296 33.7521C131.193 33.9065 131.06 34.046 130.893 34.1602C131.039 34.0345 131.174 33.898 131.296 33.7521ZM130.83 40.1203C130.701 40.2322 130.58 40.3516 130.47 40.4793C130.566 40.3443 130.685 40.223 130.83 40.1203ZM61.9501 167.772C62.0541 167.614 62.1884 167.472 62.3582 167.357C62.2098 167.484 62.0737 167.623 61.9501 167.772ZM65.8714 170.852C65.7672 171.01 65.6325 171.154 65.4619 171.27C65.6111 171.142 65.7474 171.001 65.8714 170.852ZM64.1284 177.175C64.0813 177.125 64.0353 177.075 63.9889 177.024C64.042 177.021 64.0951 177.017 64.1481 177.013C64.1407 177.067 64.1347 177.121 64.1284 177.175ZM70.2152 175.694C70.0858 175.804 69.9634 175.923 69.8513 176.051C69.953 175.909 70.0755 175.791 70.2152 175.694ZM93.8611 152.87C93.7209 152.989 93.5899 153.116 93.4716 153.254C93.5735 153.109 93.702 152.978 93.8611 152.87ZM73.6883 179.242C73.58 179.394 73.4539 179.516 73.3134 179.611C73.4462 179.499 73.5718 179.376 73.6883 179.242ZM96.951 156.796C97.0888 156.678 97.2169 156.551 97.3335 156.416C97.233 156.559 97.1067 156.688 96.951 156.796ZM82.2878 175.317C82.391 175.163 82.5233 175.023 82.6904 174.909C82.5443 175.035 82.4098 175.172 82.2878 175.317ZM92.4847 165.46C92.3668 165.56 92.2558 165.667 92.1519 165.782C92.248 165.654 92.3604 165.547 92.4847 165.46ZM86.1981 178.413C86.0948 178.568 85.9617 178.707 85.7941 178.821C85.9405 178.695 86.0758 178.559 86.1981 178.413ZM95.5746 169.387C95.6938 169.288 95.8072 169.18 95.9136 169.064C95.8193 169.186 95.7064 169.296 95.5746 169.387ZM170.375 128.968C170.242 129.084 170.117 129.207 170.004 129.339C170.101 129.2 170.224 129.075 170.375 128.968ZM173.876 132.488C173.778 132.628 173.656 132.755 173.504 132.86C173.638 132.745 173.763 132.621 173.876 132.488ZM172.162 138.775C172.114 138.725 172.067 138.674 172.02 138.623C172.074 138.619 172.128 138.615 172.181 138.611C172.174 138.665 172.168 138.72 172.162 138.775ZM178.212 137.317C178.099 137.416 177.993 137.521 177.894 137.634C177.985 137.511 178.092 137.406 178.212 137.317ZM201.891 114.469C201.751 114.588 201.62 114.716 201.502 114.853C201.603 114.708 201.732 114.578 201.891 114.469ZM181.694 140.873C181.602 140.993 181.495 141.097 181.372 141.185C181.484 141.088 181.594 140.985 181.694 140.873ZM205.363 118.016C205.262 118.16 205.133 118.291 204.975 118.399C205.115 118.28 205.245 118.153 205.363 118.016ZM190.318 136.916C190.422 136.762 190.554 136.622 190.722 136.508C190.575 136.633 190.441 136.77 190.318 136.916ZM200.495 127.072C200.371 127.18 200.252 127.293 200.144 127.417C200.242 127.281 200.361 127.167 200.495 127.072ZM194.229 140.012C194.126 140.167 193.993 140.307 193.825 140.421C193.972 140.295 194.107 140.158 194.229 140.012ZM203.817 130.802C203.763 130.855 203.702 130.907 203.631 130.957C203.752 130.852 203.869 130.739 203.977 130.616C203.926 130.687 203.872 130.748 203.817 130.802Z" stroke="#DAA718" stroke-width="10" stroke-linecap="round"/>
</svg>
