<svg width="434" height="385" viewBox="0 0 434 385" fill="none" xmlns="http://www.w3.org/2000/svg">
<path opacity="0.7" d="M55.6833 84.5402C21.3162 99.3969 0.025794 138.018 9.67602 171.633C19.5734 206.108 57.2498 220.041 91.9583 205.051L91.9673 205.047C93.2391 204.495 94.4789 203.852 95.6674 203.175L138.281 351.659L138.59 352.686C145.353 374.067 168.271 383.422 190.221 375.86L190.222 375.86L419.6 296.791L425.438 294.779L423.726 288.82L354.219 46.6573C344.331 12.1912 306.644 -1.75228 271.944 13.2481C237.577 28.105 216.287 66.7261 225.937 100.341C235.834 134.816 273.51 148.75 308.218 133.761L308.227 133.756C309.498 133.204 310.738 132.56 311.926 131.884L338.425 224.223L183.756 277.509L137.959 117.949C128.07 83.4835 90.3833 69.5397 55.6833 84.5402ZM42.8908 122.077C46.107 118.141 49.9231 114.574 54.2642 111.573C53.351 113.839 53.078 116.388 53.7455 118.971L53.8277 119.273L53.9295 119.61C56.1562 126.624 63.7061 128.517 69.2881 126.117L69.3 126.112L69.3118 126.106C74.647 123.787 78.6535 117.526 76.816 111.11C75.7596 107.422 73.2665 105.09 70.3266 104.001C76.4014 102.318 82.2838 101.953 87.6993 102.733C84.4602 103.688 81.6507 105.952 79.983 108.755L79.7142 109.231L79.7013 109.255C76.8145 114.679 78.0151 122.575 85.0398 125.369L85.0419 125.37C88.1648 126.61 91.5032 126.298 94.2616 125.076L94.2825 125.067L94.3028 125.057C95.2041 124.65 96.0527 124.142 96.8363 123.55C94.1034 126.586 92.6718 130.88 93.9149 135.22C96.0032 142.511 103.705 144.504 109.375 142.066L109.388 142.061L109.399 142.055C112.995 140.492 115.984 137.137 116.99 133.152L165.267 301.338L167.156 307.915L168.721 307.375C168.207 309.337 168.172 311.454 168.786 313.59L168.785 313.591C170.123 318.261 173.765 320.753 177.7 321.303C174.764 324.345 173.149 328.793 174.446 333.32L174.445 333.321C176.533 340.611 184.235 342.604 189.906 340.165L189.917 340.16L189.929 340.156C195.264 337.838 199.271 331.575 197.434 325.159L197.435 325.158C196.097 320.488 192.455 317.995 188.52 317.445C191.455 314.402 193.07 309.954 191.774 305.428C191.178 303.349 190.123 301.698 188.787 300.458L347.091 245.893C346.24 248.171 346.035 250.719 346.772 253.292C348.11 257.964 351.755 260.456 355.692 261.005C352.814 263.979 351.208 268.301 352.35 272.721L352.432 273.022L352.434 273.03L352.539 273.375C354.777 280.362 362.305 282.294 367.915 279.857L367.915 279.856C373.269 277.541 377.267 271.277 375.431 264.869L375.426 264.852C374.08 260.199 370.443 257.696 366.505 257.147C369.441 254.105 371.058 249.657 369.76 245.129C369.035 242.599 367.635 240.707 365.877 239.416L367.92 238.714L366.21 232.755L328.951 102.945L326.277 93.6302L318.705 99.6379L312.456 104.595C308.737 107.527 304.664 110.018 300.269 111.915L300.266 111.917C278.657 121.253 258.183 113.637 250.587 96.7239C253.906 99.3523 258.623 99.7286 262.452 98.0742L262.452 98.0756C262.457 98.0731 262.463 98.0696 262.469 98.067C262.471 98.0662 262.473 98.0659 262.475 98.0651L262.475 98.0637C267.829 95.7479 271.823 89.4858 269.988 83.0785L269.985 83.0653C267.888 75.8013 260.209 73.7682 254.511 76.2408C251.467 77.5546 248.864 80.1458 247.518 83.3133C247.294 77.6958 248.254 71.9349 250.257 66.379C251.087 69.3419 253.124 71.9777 256.567 73.3756L256.593 73.3859L256.617 73.3962C259.698 74.6167 263.023 74.3377 265.813 73.0746L265.814 73.0767C265.83 73.0697 265.845 73.0615 265.861 73.0543C265.883 73.0443 265.906 73.0357 265.928 73.0255L265.927 73.0234C268.576 71.824 270.76 69.7816 272.148 67.2378L272.168 67.203L272.186 67.1675C275.057 61.7474 273.831 53.8832 266.879 51.0645L266.844 51.0505L266.81 51.0371C264.214 50.0196 261.565 50.0421 259.159 50.7807C262.372 46.8515 266.185 43.2912 270.52 40.2942C269.612 42.5574 269.34 45.1006 270.006 47.6794L270.089 47.9799L270.191 48.3176C272.417 55.3316 279.967 57.2248 285.549 54.8248L285.561 54.8202L285.572 54.815C290.907 52.4972 294.915 46.2336 293.077 39.8178C292.023 36.1356 289.535 33.8055 286.602 32.7146C292.669 31.0312 298.546 30.666 303.956 31.4426C300.719 32.3982 297.911 34.6609 296.244 37.4634L295.975 37.9394L295.962 37.9626C293.077 43.3832 294.272 51.2826 301.303 54.0761C304.417 55.3135 307.73 55.014 310.499 53.7878L310.52 53.7786L310.54 53.7701C311.465 53.3528 312.341 52.8243 313.153 52.2046C310.456 55.1664 308.989 59.3492 310.094 63.6278L310.176 63.929L310.278 64.2666C312.505 71.2806 320.054 73.1735 325.637 70.7731L325.649 70.7686L325.66 70.7633C329.256 69.2002 332.246 65.845 333.252 61.8594L395.951 280.298L184.101 353.294L184.098 353.295C172.942 357.144 163.747 352.118 161.277 343.503L161.276 343.5L112.691 174.235L110.018 164.921L102.445 170.929L96.1951 175.887C92.4764 178.819 88.4023 181.311 84.0076 183.207L84.0048 183.209C62.3946 192.546 41.9112 184.92 34.3227 168.012C37.6405 170.643 42.358 171.023 46.1909 169.366L46.1908 169.368C46.1942 169.366 46.1973 169.364 46.2006 169.362C46.2049 169.36 46.2096 169.36 46.2138 169.358L46.2139 169.356C51.5664 167.042 55.5662 160.777 53.7269 154.367L53.7243 154.357C51.6919 147.319 44.4185 145.191 38.7855 147.315L38.2461 147.534C35.2047 148.849 32.6031 151.439 31.2577 154.605C31.0326 148.984 31.9943 143.22 33.9989 137.66C34.8213 140.628 36.8623 143.267 40.3429 144.66L40.3429 144.661C43.4731 145.919 46.7971 145.62 49.5717 144.391L49.6135 144.373C52.2955 143.163 54.5205 141.062 55.9011 138.505L55.9184 138.472C58.807 133.046 57.6153 125.167 50.5895 122.361L50.5806 122.357C47.9707 121.319 45.3078 121.334 42.8908 122.077ZM316.52 35.7547C322.228 39.0788 326.774 44.0464 329.57 50.275C326.245 47.6464 321.515 47.2828 317.703 48.9219L317.692 48.9272L317.68 48.9324C316.724 49.3479 315.812 49.8921 314.967 50.539C315.69 49.7415 316.319 48.853 316.833 47.8893L316.834 47.89C316.835 47.8882 316.836 47.8864 316.837 47.8846C316.842 47.8749 316.848 47.8655 316.853 47.8559L316.851 47.8545C318.82 44.1602 318.884 39.3389 316.52 35.7547ZM100.262 107.048C105.969 110.373 110.514 115.34 113.31 121.567C109.984 118.938 105.255 118.575 101.443 120.214C100.49 120.624 99.5822 121.16 98.742 121.797C99.46 120.995 100.084 120.107 100.592 119.148L100.591 119.147C102.544 115.468 102.627 110.64 100.262 107.048Z" stroke="#DAA718" stroke-width="13" stroke-linecap="round"/>
</svg>
