<svg width="65" height="103" viewBox="0 0 65 103" fill="none" xmlns="http://www.w3.org/2000/svg">
<path d="M0.544013 26.5898C0.301795 27.0343 0.216331 27.5472 0.30182 28.0459C0.387817 28.5446 0.639687 29 1.01675 29.339C13.9093 40.9294 25.4523 52.601 35.5033 64.3567C33.5773 65.5183 31.7392 66.8303 30.0167 68.3246C20.2975 76.7539 18.9963 90.5932 26.5707 98.315C30.3704 102.19 35.6132 103.396 40.8529 102.68C46.0927 101.965 51.4744 99.4711 56.4353 95.9229C61.6826 92.1696 64.0682 86.3705 64.4152 80.7862C64.7628 75.2018 63.2164 69.7263 60.1922 65.9679C59.8935 65.5963 59.7648 65.5071 59.4849 65.2433C59.205 64.98 58.8488 64.6519 58.4132 64.2569C57.542 63.4679 56.362 62.4142 54.9535 61.1528C52.1364 58.629 48.4059 55.2767 44.4714 51.6115C36.8533 44.5151 28.5914 36.2337 24.7566 30.8504C24.9673 29.2508 25.9545 27.1818 27.6144 24.9221L30.5251 30.7997C30.5877 30.9376 30.6772 31.0616 30.7892 31.1643C30.9006 31.267 31.0319 31.3463 31.1754 31.3974C31.3184 31.4485 31.4701 31.4704 31.6222 31.4619C31.7738 31.4533 31.9224 31.4144 32.0588 31.3475C32.1952 31.2806 32.3168 31.1871 32.416 31.0725C32.5153 30.9579 32.59 30.8246 32.6364 30.6805C32.6832 30.5364 32.7 30.3845 32.6857 30.2339C32.672 30.0832 32.6277 29.9368 32.556 29.8035L29.2387 23.1048C29.2194 23.0641 29.1975 23.0246 29.1736 22.9864C30.1806 21.8273 31.353 20.6456 32.6786 19.4612L34.3161 24.7543C34.4052 25.0401 34.6041 25.2792 34.8698 25.4189C35.1354 25.5587 35.4463 25.5877 35.7333 25.4996C36.0203 25.4114 36.261 25.2134 36.4014 24.9489C36.5419 24.6845 36.5709 24.3753 36.4823 24.0895L34.5537 17.8693C36.1017 16.6197 37.7881 15.3902 39.5854 14.1958L40.4235 20.2624C40.4413 20.4112 40.4881 20.5551 40.5624 20.6856C40.6367 20.8161 40.7359 20.9305 40.855 21.0223C40.974 21.1141 41.1104 21.1813 41.256 21.22C41.4015 21.2588 41.5531 21.2682 41.7022 21.2479C41.8513 21.2276 41.9953 21.1779 42.1246 21.1016C42.2543 21.0254 42.3673 20.9242 42.4574 20.8039C42.5474 20.6837 42.6121 20.5468 42.6482 20.4013C42.6843 20.2558 42.6909 20.1046 42.6675 19.9566L41.7032 12.9817C41.6971 12.9351 41.6885 12.8889 41.6763 12.8433C42.952 12.054 44.2801 11.2958 45.6347 10.5585L47.1542 15.4594C47.1959 15.6036 47.2661 15.738 47.3602 15.8548C47.4549 15.9716 47.5719 16.0685 47.7042 16.1398C47.8365 16.2111 47.9821 16.2554 48.1322 16.27C48.2823 16.2847 48.4334 16.2694 48.5774 16.2251C48.7215 16.1808 48.8553 16.1084 48.9703 16.0121C49.0858 15.9158 49.1809 15.7975 49.2501 15.6642C49.3188 15.5309 49.3606 15.3853 49.3723 15.2358C49.384 15.0863 49.3657 14.936 49.3183 14.7937L47.6717 9.47873C48.9978 8.80383 50.3513 8.16731 51.7222 7.55996L52.8102 11.0751C52.8539 11.2167 52.9256 11.3483 53.0203 11.4623C53.1154 11.5764 53.232 11.6708 53.3633 11.74C53.4951 11.8092 53.6391 11.8519 53.7872 11.8658C53.9352 11.8796 54.0848 11.8643 54.2273 11.8206C54.3693 11.777 54.5016 11.7058 54.6161 11.6114C54.7306 11.5169 54.8257 11.4008 54.8949 11.2699C54.9647 11.1389 55.0074 10.9956 55.0217 10.8481C55.0354 10.7007 55.0201 10.5519 54.9759 10.4104L53.8131 6.6624C54.67 6.31132 55.529 5.96394 56.3946 5.64513C56.8648 5.47154 57.2642 5.1474 57.5293 4.72367C57.7949 4.29993 57.9115 3.80048 57.8606 3.30372C57.8097 2.80701 57.595 2.34104 57.2495 1.97898C56.9039 1.61697 56.4475 1.37927 55.9513 1.30332C49.442 0.313545 42.635 -0.572673 35.0112 1.3616C27.3971 3.29349 19.1281 8.01853 9.51983 17.7334L9.51067 17.7411L0.95212 26.0521C0.789794 26.21 0.6524 26.3912 0.544013 26.5898ZM5.79496 27.6508L12.6834 20.9593C12.6941 20.9485 12.7048 20.9375 12.7155 20.9264C21.9467 11.5846 29.4499 7.4249 36.1297 5.73005C39.8591 4.78377 43.3891 4.66943 46.8946 4.86074C40.9725 7.75279 35.4794 11.208 31.0401 14.8908C24.6651 20.1791 20.1123 25.7426 20.0706 31.4633C20.0675 31.9193 20.2039 32.3654 20.4608 32.7428C24.6773 38.9389 33.4348 47.5053 41.3766 54.9035C45.3477 58.6026 49.1005 61.9746 51.9227 64.5025C53.3338 65.7669 54.5128 66.8217 55.3631 67.5919C55.788 67.9773 56.1315 68.2922 56.3712 68.5181C56.6113 68.7439 56.8195 68.9895 56.6551 68.7854C58.7577 71.3989 60.1754 75.9786 59.894 80.5082C59.7861 82.241 59.4477 83.949 58.8518 85.5593L57.9705 83.7946C57.8799 83.6072 57.7395 83.4482 57.5634 83.3353C57.3879 83.2229 57.1843 83.1606 56.9757 83.1555C56.7665 83.151 56.5605 83.2036 56.3798 83.3085C56.1992 83.4128 56.0511 83.5652 55.9519 83.7485C55.8648 83.9095 55.818 84.0898 55.8165 84.2731C55.815 84.4564 55.8582 84.6372 55.9427 84.7997L57.6051 88.1251C56.767 89.5081 55.6944 90.7715 54.3378 91.844L52.4061 85.6864C52.341 85.4687 52.2112 85.2752 52.0341 85.1319C51.8565 84.9886 51.6398 84.902 51.4123 84.8838C51.1843 84.8651 50.9564 84.9157 50.7584 85.0286C50.56 85.141 50.4002 85.3112 50.3009 85.5158C50.1717 85.7791 50.1514 86.0819 50.243 86.3604L52.3939 93.2112C51.1579 94.0235 49.9081 94.7603 48.6573 95.3978L47.9943 90.7198C47.9633 90.4753 47.8523 90.2474 47.6788 90.0712C47.5053 89.8955 47.2783 89.781 47.033 89.7456C46.7878 89.7101 46.5374 89.7557 46.3212 89.8752C46.1044 89.9952 45.9329 90.1821 45.8332 90.4079C45.7461 90.6054 45.7181 90.8237 45.7517 91.0363L46.51 96.3928C45.1396 96.9752 43.787 97.4334 42.4711 97.7631L40.7084 92.1438C40.6433 91.926 40.5135 91.7331 40.3364 91.5898C40.1594 91.4465 39.9431 91.3599 39.7156 91.3412C39.4882 91.3224 39.2602 91.3726 39.0617 91.485C38.8633 91.5974 38.704 91.7665 38.6038 91.9706C38.475 92.2344 38.4542 92.5372 38.5463 92.8158L40.2393 98.2123C40.2382 98.2123 40.2372 98.2128 40.2362 98.2128C38.7157 98.4204 37.296 98.4346 35.9689 98.2487L34.4276 93.3419C34.3629 93.1241 34.2332 92.9307 34.0561 92.7874C33.879 92.6441 33.6627 92.5575 33.4353 92.5388C33.2078 92.52 32.9799 92.5702 32.7814 92.6826C32.5829 92.795 32.4237 92.9646 32.3234 93.1687C32.1947 93.432 32.1738 93.7348 32.2659 94.0133L33.3808 97.5676C32.0746 97.0415 30.8818 96.2571 29.8127 95.1669C24.3582 89.6063 24.9658 78.6842 32.9921 71.723C32.9921 71.723 32.9931 71.724 32.9941 71.724C35.3404 69.6888 37.6364 67.9955 39.9767 66.9782C40.2988 66.8379 40.5832 66.6252 40.8082 66.3563C41.0331 66.088 41.1923 65.771 41.2727 65.4307C41.3536 65.0904 41.3531 64.7359 41.2727 64.3956C41.1923 64.0554 41.0331 63.7384 40.8082 63.47C30.6778 51.3882 18.8142 39.468 5.79496 27.6508ZM16.8515 20.3622C16.6729 20.9587 17.0159 21.5868 17.6143 21.764C18.2127 21.9413 18.8442 21.6016 19.0228 21.0051C19.2009 20.4096 18.86 19.7811 18.2605 19.6033C17.6606 19.4265 17.0281 19.7671 16.8515 20.3622ZM13.7678 31.2104C13.5897 31.8059 13.9322 32.4325 14.5316 32.6103C15.13 32.7875 15.7595 32.4469 15.9381 31.8503C16.1167 31.2538 15.7748 30.6263 15.1753 30.4485C14.5764 30.2722 13.9454 30.6133 13.7678 31.2104ZM39.9721 74.1657C39.8327 74.4306 39.8047 74.74 39.8942 75.0251C39.9838 75.3107 40.1838 75.5487 40.4494 75.6874C40.7155 75.8262 41.0265 75.854 41.313 75.7649C41.5994 75.6758 41.8391 75.4773 41.9785 75.2124C42.118 74.9476 42.146 74.6387 42.0564 74.3531C41.9668 74.068 41.7674 73.8295 41.5012 73.6908C41.2351 73.552 40.9247 73.5242 40.6377 73.6133C40.3512 73.7024 40.1115 73.9014 39.9721 74.1657ZM49.388 71.5391C49.2486 71.8035 49.2206 72.1129 49.3102 72.398C49.3998 72.6836 49.5992 72.9216 49.8654 73.0603C50.1315 73.1991 50.4419 73.2269 50.7289 73.1383C51.0154 73.0492 51.2551 72.8502 51.3945 72.5853C51.5339 72.3205 51.5619 72.0116 51.4723 71.7265C51.3828 71.4409 51.1828 71.2029 50.9172 71.0642C50.651 70.9249 50.3401 70.8971 50.0537 70.9862C49.7667 71.0753 49.5275 71.2743 49.388 71.5391ZM50.0725 79.2675C49.933 79.5324 49.9051 79.8413 49.9946 80.1269C50.0842 80.4119 50.2836 80.6505 50.5498 80.7892C50.8159 80.928 51.1263 80.9558 51.4133 80.8667C51.6998 80.7776 51.9395 80.5791 52.0789 80.3142C52.2183 80.0494 52.2463 79.7405 52.1568 79.4549C52.0672 79.1698 51.8677 78.9313 51.6016 78.7925C51.3355 78.6538 51.0251 78.6259 50.7381 78.7151C50.4516 78.8042 50.2119 79.0027 50.0725 79.2675Z" fill="#E9BB17"/>
</svg>
