<svg width="40" height="40" viewBox="0 0 40 40" fill="none" xmlns="http://www.w3.org/2000/svg">
<circle cx="20" cy="20" r="20" fill="#F5E8FF"/>
<path d="M20.5 10C17.6484 10 17.2908 10.0115 16.1709 10.0602C15.0532 10.1087 14.29 10.2778 13.6221 10.525C12.9316 10.7805 12.3461 11.1225 11.7623 11.6784C11.1786 12.2343 10.8195 12.792 10.5512 13.4496C10.2917 14.0857 10.1142 14.8126 10.0631 15.877C10.0121 16.9436 10 17.2842 10 20C10 22.7158 10.0121 23.0564 10.0631 24.123C10.1142 25.1874 10.2917 25.9143 10.5512 26.5504C10.8196 27.208 11.1786 27.7656 11.7623 28.3216C12.3461 28.8775 12.9316 29.2195 13.6221 29.475C14.29 29.7222 15.0532 29.8912 16.1709 29.9398C17.2908 29.9885 17.6484 30 20.5 30C23.3516 30 23.7092 29.9885 24.8291 29.9398C25.9467 29.8913 26.71 29.7222 27.3779 29.475C28.0684 29.2195 28.6539 28.8775 29.2377 28.3216C29.8214 27.7656 30.1805 27.208 30.4488 26.5504C30.7083 25.9143 30.8858 25.1874 30.9368 24.123C30.9879 23.0564 31 22.7158 31 20C31 17.2842 30.9879 16.9436 30.9368 15.877C30.8858 14.8126 30.7083 14.0857 30.4488 13.4496C30.1805 12.792 29.8214 12.2343 29.2377 11.6784C28.6539 11.1225 28.0684 10.7805 27.3779 10.525C26.71 10.2778 25.9467 10.1087 24.8291 10.0602C23.7092 10.0115 23.3516 10 20.5 10ZM20.5 11.8018C23.3036 11.8018 23.6357 11.812 24.7429 11.8601C25.7667 11.9046 26.3226 12.0675 26.6926 12.2044C27.1827 12.3858 27.5325 12.6025 27.8999 12.9524C28.2674 13.3024 28.4949 13.6355 28.6854 14.1023C28.8292 14.4546 29.0002 14.9842 29.0469 15.9591C29.0974 17.0136 29.1081 17.3299 29.1081 20C29.1081 22.6701 29.0974 22.9864 29.0469 24.0409C29.0002 25.0159 28.8292 25.5454 28.6854 25.8977C28.4949 26.3645 28.2674 26.6976 27.8999 27.0475C27.5325 27.3975 27.1827 27.6142 26.6926 27.7956C26.3226 27.9325 25.7666 28.0954 24.7429 28.1399C23.6359 28.188 23.3038 28.1982 20.5 28.1982C17.6962 28.1982 17.3642 28.188 16.2571 28.1399C15.2333 28.0954 14.6774 27.9325 14.3074 27.7956C13.8173 27.6142 13.4675 27.3975 13.1001 27.0475C12.7327 26.6976 12.5051 26.3645 12.3146 25.8977C12.1708 25.5454 11.9998 25.0158 11.9531 24.0409C11.9026 22.9864 11.8919 22.6701 11.8919 20C11.8919 17.3299 11.9026 17.0136 11.9531 15.9591C11.9998 14.9841 12.1708 14.4546 12.3146 14.1023C12.5051 13.6355 12.7327 13.3024 13.1001 12.9525C13.4675 12.6025 13.8173 12.3858 14.3074 12.2044C14.6774 12.0675 15.2334 11.9046 16.2571 11.8601C17.3643 11.812 17.6964 11.8018 20.5 11.8018" fill="#6F219E"/>
<path d="M20.5001 23.3333C18.567 23.3333 17 21.8409 17 20C17 18.159 18.567 16.6666 20.5001 16.6666C22.4331 16.6666 24.0001 18.159 24.0001 20C24.0001 21.8409 22.4331 23.3333 20.5001 23.3333ZM20.5001 14.8648C17.5222 14.8648 15.1082 17.1639 15.1082 20C15.1082 22.836 17.5222 25.1351 20.5001 25.1351C23.4779 25.1351 25.8919 22.836 25.8919 20C25.8919 17.1639 23.4779 14.8648 20.5001 14.8648ZM27.365 14.6619C27.365 15.3247 26.8008 15.8619 26.105 15.8619C25.4091 15.8619 24.845 15.3247 24.845 14.6619C24.845 13.9992 25.4091 13.4619 26.105 13.4619C26.8008 13.4619 27.365 13.9992 27.365 14.6619Z" fill="#6F219E"/>
</svg>
