<svg width="115" height="88" viewBox="0 0 115 88" fill="none" xmlns="http://www.w3.org/2000/svg">
<g filter="url(#filter0_d_5270_66701)">
<path d="M108.523 31.3774C107.628 31.5906 105.433 32.5152 104.083 33.6176C102.921 34.5674 103.968 35.7135 105.452 35.9382C106.707 36.1282 107.724 36.4191 106.69 36.8788C104.856 37.6938 103.701 38.5768 103.022 38.5088" stroke="#F1DBFF" stroke-width="3"/>
<path d="M6.44531 38.3059C7.34042 38.519 9.5356 39.4437 10.8853 40.5461C12.0482 41.4959 11.0012 42.642 9.51671 42.8667C8.26183 43.0566 7.24466 43.3475 8.2791 43.8073C10.1129 44.6223 11.2675 45.5052 11.9467 45.4373" stroke="#F1DBFF" stroke-width="3"/>
<circle cx="1.01877" cy="1.01877" r="1.01877" transform="matrix(-1 0 0 1 109.34 39.5281)" fill="#F1DBFF"/>
<circle cx="6.64768" cy="47.4746" r="1.01877" fill="#F1DBFF"/>
<path d="M110.973 44.2136C106.083 44.2136 104.045 44.6211 103.638 44.8249" stroke="#F1DBFF" stroke-width="3"/>
<path d="M4 51.1421C8.8901 51.1421 10.9276 51.5496 11.3351 51.7534" stroke="#F1DBFF" stroke-width="3"/>
<path d="M25.2196 54.8843C20.3274 39.6654 37.9147 27.7227 46.4765 23.8847L48.248 22.999C48.248 21.2276 42.3038 13.2445 51.8802 9.78067C57.914 7.59826 60.0304 8.55811 61.8642 11.4107L65.962 19.4562L67.7334 20.3419C71.6444 13.6521 72.5613 12.3698 78.9795 15.6896C84.8884 18.7459 84.2666 22.999 82.7904 24.7704L80.1333 28.3132C85.8018 31.856 89.5808 38.056 90.7617 40.7131C91.7214 42.8724 96.5885 50.5041 88.9903 63.7413C81.4069 76.9528 62.4193 79.163 51.7908 77.9126C43.3216 76.9162 30.036 69.8672 25.2196 54.8843Z" fill="#E9BB17" stroke="#E9BB17"/>
<path d="M57.147 68.096C38.0158 67.3874 27.6952 55.8801 24.1523 51.4515C25.038 59.4229 28.325 74.2046 47.4043 77.8387C70.292 82.1983 78.9551 76.6651 88.1466 66.3246C95.2322 58.3533 94.4657 47.5341 92.1039 42.8103C88.8563 51.3721 76.2782 68.8046 57.147 68.096Z" fill="#DEB41D" stroke="#D9AF1C" stroke-width="0.2"/>
<circle cx="46.5181" cy="42.4099" r="11.5141" fill="white"/>
<circle cx="69.5454" cy="42.4099" r="11.5141" fill="white"/>
<path d="M51.9493 43.2954C52.374 43.2954 52.724 43.6415 52.6627 44.0617C52.5995 44.496 52.4825 44.9218 52.3138 45.3291C52.0467 45.9738 51.6553 46.5597 51.1618 47.0531C50.6683 47.5466 50.0825 47.9381 49.4377 48.2051C48.793 48.4722 48.1019 48.6096 47.4041 48.6096C46.7062 48.6096 46.0152 48.4722 45.3704 48.2051C44.7256 47.9381 44.1398 47.5466 43.6463 47.0531C43.1529 46.5597 42.7614 45.9738 42.4944 45.3291C42.3257 44.9218 42.2087 44.496 42.1454 44.0617C42.0841 43.6415 42.4341 43.2954 42.8588 43.2954C43.2835 43.2954 43.62 43.6432 43.7059 44.0591C43.7539 44.2918 43.8239 44.52 43.9153 44.7405C44.1051 45.1987 44.3832 45.615 44.7339 45.9656C45.0845 46.3163 45.5008 46.5944 45.959 46.7842C46.4171 46.974 46.9082 47.0717 47.4041 47.0717C47.9 47.0717 48.391 46.974 48.8492 46.7842C49.3073 46.5944 49.7236 46.3163 50.0743 45.9656C50.4249 45.615 50.7031 45.1987 50.8928 44.7405C50.9842 44.52 51.0542 44.2918 51.1023 44.0591C51.1882 43.6432 51.5246 43.2954 51.9493 43.2954Z" fill="#292626"/>
<path d="M74.9766 43.2954C75.4013 43.2954 75.7513 43.6415 75.6901 44.0617C75.6268 44.496 75.5098 44.9218 75.3411 45.3291C75.074 45.9738 74.6826 46.5597 74.1891 47.0531C73.6957 47.5466 73.1098 47.9381 72.4651 48.2051C71.8203 48.4722 71.1293 48.6096 70.4314 48.6096C69.7335 48.6096 69.0425 48.4722 68.3977 48.2051C67.753 47.9381 67.1672 47.5466 66.6737 47.0531C66.1802 46.5597 65.7888 45.9738 65.5217 45.3291C65.353 44.9218 65.236 44.496 65.1727 44.0617C65.1115 43.6415 65.4615 43.2954 65.8862 43.2954C66.3109 43.2954 66.6473 43.6432 66.7332 44.0591C66.7813 44.2918 66.8513 44.52 66.9426 44.7405C67.1324 45.1987 67.4106 45.615 67.7612 45.9656C68.1119 46.3163 68.5282 46.5944 68.9863 46.7842C69.4445 46.974 69.9355 47.0717 70.4314 47.0717C70.9273 47.0717 71.4184 46.974 71.8765 46.7842C72.3347 46.5944 72.751 46.3163 73.1016 45.9656C73.4523 45.615 73.7304 45.1987 73.9202 44.7405C74.0115 44.52 74.0816 44.2918 74.1296 44.0591C74.2155 43.6432 74.5519 43.2954 74.9766 43.2954Z" fill="#292626"/>
<path d="M101.848 41.085L100.137 41.1475L100.262 44.57L100.418 48.8482L102.129 48.7857C102.739 46.7072 102.196 42.7859 101.848 41.085Z" fill="#C5A5F3" stroke="#75C973" stroke-width="0.2"/>
<path d="M15.2184 55.3852L16.9297 55.3228L16.8047 51.9002L16.6486 47.622L14.9373 47.6845C14.3277 49.763 14.8707 53.6844 15.2184 55.3852Z" fill="#C5A5F3" stroke="#75C973" stroke-width="0.2"/>
<path d="M22.9328 39.7648L25.5485 61.4308L18.808 60.1768C17.8974 58.9071 16.1562 53.7796 16.4757 43.4272L19.7042 41.596L17.855 23.2926C28.0636 11.0094 57.2021 -7.90204 92.0869 14.7177L94.0007 33.6596L98.1853 34.9568C99.3442 37.2764 101.315 43.9717 99.9271 52.196L93.5306 54.3473L91.3655 32.6694L94.0007 33.6596L92.0869 14.7177C57.2021 -7.90204 28.0636 11.0094 17.855 23.2926L19.7042 41.596L22.9328 39.7648Z" fill="#6F219E"/>
<path d="M19.7042 41.596L16.4757 43.4272C16.1562 53.7796 17.8974 58.9071 18.808 60.1768L25.5485 61.4308L22.9328 39.7648L19.7042 41.596ZM19.7042 41.596L17.855 23.2926C28.0636 11.0094 57.2021 -7.90204 92.0869 14.7177L94.0007 33.6596M94.0007 33.6596L91.3655 32.6694L93.5306 54.3473L99.9271 52.196C101.315 43.9717 99.3442 37.2764 98.1853 34.9568L94.0007 33.6596Z" stroke="#6F219E"/>
<path d="M19.754 59.5187C18.7375 56.2144 16.9335 48.5178 17.8497 44.1662" stroke="#C5A5F3"/>
<path d="M96.863 35.8285C97.7616 39.2899 99.2723 47.3266 98.1256 51.7816" stroke="#C5A5F3"/>
<path d="M50.8633 60.3113C53.4768 62.7714 60.1512 66.2156 65.9411 60.3113" stroke="black" stroke-linecap="round"/>
</g>
<defs>
<filter id="filter0_d_5270_66701" x="0" y="3.65576" width="114.973" height="83.7834" filterUnits="userSpaceOnUse" color-interpolation-filters="sRGB">
<feFlood flood-opacity="0" result="BackgroundImageFix"/>
<feColorMatrix in="SourceAlpha" type="matrix" values="0 0 0 0 0 0 0 0 0 0 0 0 0 0 0 0 0 0 127 0" result="hardAlpha"/>
<feOffset dy="4"/>
<feGaussianBlur stdDeviation="2"/>
<feComposite in2="hardAlpha" operator="out"/>
<feColorMatrix type="matrix" values="0 0 0 0 0 0 0 0 0 0 0 0 0 0 0 0 0 0 0.25 0"/>
<feBlend mode="normal" in2="BackgroundImageFix" result="effect1_dropShadow_5270_66701"/>
<feBlend mode="normal" in="SourceGraphic" in2="effect1_dropShadow_5270_66701" result="shape"/>
</filter>
</defs>
</svg>
