<svg width="70" height="120" viewBox="0 0 70 120" fill="none" xmlns="http://www.w3.org/2000/svg">
<path d="M17.0088 14.1641C16.9355 12.6688 17.3212 11.1869 18.1143 9.91723C18.9074 8.64752 20.0698 7.65075 21.4456 7.06065C22.8214 6.47056 24.3448 6.31538 25.8114 6.61593C27.2779 6.91648 28.6175 7.65839 29.6503 8.7421C30.3154 7.68239 31.3026 6.86364 32.467 6.40589C33.6315 5.94814 34.9119 5.87547 36.1207 6.19853C37.3294 6.52159 38.4029 7.22339 39.1837 8.20104C39.9645 9.17869 40.4115 10.3808 40.4593 11.631L40.4886 11.6268C42.0445 11.564 43.562 12.1196 44.7094 13.1722C45.8569 14.2248 46.5411 15.6888 46.6125 17.2443C46.6838 18.7998 46.1366 20.3203 45.0903 21.4735C44.044 22.6267 42.5838 23.3189 41.0287 23.3988H41.0217C40.9268 23.403 40.8361 23.3849 40.7426 23.3849C40.9742 23.9245 41.0941 24.5055 41.095 25.0927C41.0959 25.68 40.9778 26.2613 40.7479 26.8016C40.5179 27.342 40.1809 27.8301 39.7571 28.2367C39.3333 28.6432 38.8316 28.9596 38.2821 29.1669C38.2947 29.2548 38.3408 29.3288 38.3449 29.4195C38.369 29.8095 38.3152 30.2003 38.1867 30.5693C38.0583 30.9382 37.8577 31.2779 37.5967 31.5687C37.3357 31.8594 37.0195 32.0953 36.6665 32.2627C36.3135 32.4301 35.9307 32.5255 35.5405 32.5436C35.1502 32.5616 34.7602 32.5019 34.3933 32.3678C34.0263 32.2337 33.6897 32.028 33.403 31.7626C33.1163 31.4972 32.8852 31.1774 32.7233 30.8219C32.5613 30.4663 32.4717 30.0822 32.4596 29.6917V29.6861C32.4362 28.9691 32.6766 28.2685 33.1351 27.7169C32.8468 27.3207 32.6257 26.8799 32.4806 26.412C31.8729 26.6918 31.2092 26.829 30.5404 26.8129C29.8716 26.7969 29.2153 26.6281 28.6217 26.3194C28.0281 26.0107 27.5131 25.5703 27.1159 25.0319C26.7187 24.4935 26.4499 23.8714 26.3301 23.2132C25.3118 23.8964 24.1047 24.2429 22.8791 24.2039C21.6534 24.1649 20.4708 23.7425 19.4979 22.996C18.525 22.2494 17.8109 21.2165 17.4559 20.0427C17.101 18.8689 17.1233 17.6134 17.5196 16.4529C17.2264 15.7227 17.0539 14.9496 17.0088 14.1641Z" fill="#ECD6FE"/>
<path d="M17.0088 14.1641C16.9355 12.6688 17.3212 11.1869 18.1143 9.91723C18.9074 8.64752 20.0698 7.65075 21.4456 7.06065C22.8215 6.47056 24.3448 6.31538 25.8114 6.61593C27.2779 6.91648 28.6175 7.65839 29.6503 8.7421C30.3154 7.68239 31.3026 6.86364 32.467 6.40589C33.6315 5.94814 34.9119 5.87547 36.1207 6.19853C37.3294 6.52159 38.4029 7.22339 39.1837 8.20104C39.9645 9.17869 40.4115 10.3808 40.4593 11.631L40.4886 11.6268C42.0445 11.564 43.562 12.1196 44.7095 13.1722C45.8569 14.2248 46.5411 15.6888 46.6125 17.2443C46.6839 18.7998 46.1366 20.3203 45.0903 21.4735C44.044 22.6267 42.5838 23.3189 41.0287 23.3988H41.0217C40.9268 23.403 40.8361 23.3849 40.7426 23.3849C40.9742 23.9245 41.0941 24.5055 41.095 25.0927C41.0959 25.68 40.9778 26.2613 40.7479 26.8016C40.5179 27.342 40.1809 27.8301 39.7571 28.2367C39.3333 28.6432 38.8316 28.9596 38.2821 29.1669C38.2947 29.2548 38.3408 29.3288 38.345 29.4195C38.369 29.8095 38.3152 30.2003 38.1867 30.5693C38.0583 30.9382 37.8577 31.2779 37.5967 31.5687C37.3358 31.8594 37.0196 32.0953 36.6665 32.2627C36.3135 32.4301 35.9307 32.5255 35.5405 32.5436C35.1502 32.5616 34.7602 32.5019 34.3933 32.3678C34.0263 32.2337 33.6897 32.028 33.403 31.7626C33.1163 31.4972 32.8853 31.1774 32.7233 30.8219C32.5613 30.4663 32.4717 30.0822 32.4596 29.6917V29.6861C32.4362 28.9691 32.6766 28.2685 33.1351 27.7169C32.8468 27.3207 32.6257 26.8799 32.4806 26.412C31.8729 26.6918 31.2093 26.829 30.5404 26.8129C29.8716 26.7969 29.2153 26.6281 28.6217 26.3194C28.0281 26.0107 27.5131 25.5703 27.1159 25.0319C26.7187 24.4935 26.4499 23.8714 26.3301 23.2132C25.3118 23.8964 24.1047 24.2429 22.8791 24.2039C21.6534 24.165 20.4708 23.7425 19.4979 22.9959C18.525 22.2494 17.8109 21.2165 17.4559 20.0427C17.101 18.8689 17.1233 17.6134 17.5196 16.4529C17.2264 15.7227 17.0539 14.9496 17.0088 14.1641Z" stroke="#ECD6FE" stroke-width="0.837368" stroke-linecap="round" stroke-linejoin="round"/>
<g clip-path="url(#clip0_104_52518)">
<path fill-rule="evenodd" clip-rule="evenodd" d="M28.5074 12.2918V18.5727C28.2455 18.4501 27.9255 18.3918 27.5615 18.4228C26.5323 18.5106 25.4805 19.1606 25.4805 20.0801C25.4805 21.0033 26.3204 21.6541 27.5615 21.3741C28.6814 21.1168 29.1657 20.5871 29.249 19.9287H29.2618V14.556L35.3156 13.9506V17.8175C35.019 17.6851 34.6927 17.6337 34.3697 17.6684C33.3406 17.7562 32.2887 18.4062 32.2887 19.3256C32.2887 20.2488 33.1287 20.8996 34.3697 20.6196C35.4897 20.3623 35.974 19.8326 36.0572 19.1743H36.0701V11.607C36.0701 11.5114 36.0501 11.4168 36.0114 11.3293C35.9727 11.2419 35.916 11.1635 35.8452 11.0993C35.7743 11.0351 35.6908 10.9864 35.6 10.9564C35.5092 10.9264 35.4131 10.9158 35.3179 10.9252L29.1884 11.5381C29.0018 11.5569 28.8287 11.6443 28.7029 11.7835C28.577 11.9226 28.5074 12.1042 28.5074 12.2918ZM35.3179 11.6827L29.2565 12.2888C29.2616 12.313 29.2641 12.338 29.2641 12.3637V13.8015L35.3179 13.1961V11.6827Z" fill="#6C2099"/>
</g>
<path d="M30.6555 33.668C30.1971 32.5969 30.8247 31.3728 31.9619 31.1197L32.1657 31.0743L33.6142 30.7362C33.7529 30.7038 33.8948 30.6875 34.0372 30.6875H35.4178H36.7814C36.935 30.6875 37.0879 30.7065 37.2368 30.7441L38.5452 31.0743L38.9468 31.1637C40.0155 31.4016 40.6489 32.5061 40.3143 33.5486L38.9599 37.7685C38.7128 38.5384 37.9968 39.0606 37.1882 39.0606H34.1908C33.4461 39.0606 32.7732 38.6165 32.4802 37.9319L30.6555 33.668Z" fill="#120303"/>
<rect y="38.1484" width="10.3371" height="22.5785" rx="5.16855" fill="#2D2D2D"/>
<rect x="59.4414" y="38.1484" width="10.3371" height="22.5785" rx="5.16855" fill="#2D2D2D"/>
<rect y="97.4219" width="10.3371" height="22.5785" rx="5.16855" fill="#2D2D2D"/>
<rect x="59.4414" y="97.4219" width="10.3371" height="22.5785" rx="5.16855" fill="#2D2D2D"/>
<rect x="6.89062" y="36.2695" width="55.9927" height="79.9657" rx="2.79102" fill="#6C2099"/>
<rect x="23.1055" y="110.812" width="71.8335" height="36.8373" rx="0.93034" transform="rotate(-90 23.1055 110.812)" fill="white"/>
<path d="M22.6758 46.8906H48.7408C49.2546 46.8906 49.6712 47.3072 49.6712 47.821V53.036C49.6712 53.5498 49.2546 53.9663 48.7408 53.9663H22.6758V46.8906Z" fill="#120303"/>
<path d="M22.6758 57.5039H48.7408C49.2546 57.5039 49.6712 57.9204 49.6712 58.4342V63.6492C49.6712 64.163 49.2546 64.5796 48.7408 64.5796H22.6758V57.5039Z" fill="#120303"/>
<path d="M22.6758 68.1172H48.7408C49.2546 68.1172 49.6712 68.5337 49.6712 69.0475V74.2625C49.6712 74.7763 49.2546 75.1929 48.7408 75.1929H22.6758V68.1172Z" fill="#120303"/>
<path d="M22.6758 84.6172H48.7408C49.2546 84.6172 49.6712 85.0337 49.6712 85.5475V90.7625C49.6712 91.2763 49.2546 91.6929 48.7408 91.6929H22.6758V84.6172Z" fill="#120303"/>
<path d="M22.6758 95.2344H48.7408C49.2546 95.2344 49.6712 95.6509 49.6712 96.1647V101.38C49.6712 101.894 49.2546 102.31 48.7408 102.31H22.6758V95.2344Z" fill="#120303"/>
<rect x="9.83984" y="86.4141" width="10.3141" height="24.3963" rx="1.86068" fill="#ECD6FE"/>
<ellipse cx="14.2633" cy="44.406" rx="2.94687" ry="2.7107" fill="#DAA718"/>
<ellipse cx="14.2633" cy="52.5388" rx="2.94687" ry="2.7107" fill="#DAA718"/>
<ellipse cx="14.2633" cy="60.6638" rx="2.94687" ry="2.7107" fill="#DAA718"/>
<defs>
<clipPath id="clip0_104_52518">
<rect width="12.1076" height="12.1076" fill="white" transform="translate(25.4805 10.8438)"/>
</clipPath>
</defs>
</svg>
