<svg width="46" height="30" viewBox="0 0 46 30" fill="none" xmlns="http://www.w3.org/2000/svg">
<rect x="0.5" y="0.5" width="45" height="29" rx="11.5" fill="white"/>
<rect x="0.5" y="0.5" width="45" height="29" rx="11.5" stroke="#CCCCCC"/>
<path fill-rule="evenodd" clip-rule="evenodd" d="M8.79424 10.5L4.60156 19.5765H9.62078L10.243 18.1294H11.6653L12.2875 19.5765H17.8123V18.472L18.3046 19.5765H21.1624L21.6547 18.4487V19.5765H33.1447L34.5418 18.1669L35.85 19.5765L41.7515 19.5882L37.5456 15.0636L41.7515 10.5H35.9415L34.5815 11.8835L33.3145 10.5H20.8149L19.7416 12.8427L18.6431 10.5H13.6343V11.5669L13.0771 10.5H8.79424ZM25.9522 11.7889H32.5503L34.5683 13.9214L36.6514 11.7889H38.6694L35.6032 15.0623L38.6694 18.2981H36.5599L34.5418 16.1408L32.4481 18.2981H25.9522V11.7889ZM27.5815 14.3263V13.1363H31.6985L33.495 15.0377L31.6189 16.9495H27.5815V15.6515H31.1811V14.3263H27.5815ZM9.76543 11.7889H12.212L14.993 17.9437V11.7889H17.6732L19.8212 16.2019L21.8008 11.7889H24.4676V18.3019H22.8449L22.8317 13.1983L20.466 18.3019H19.0144L16.6355 13.1983V18.3019H13.2973L12.6644 16.8418H9.24535L8.6138 18.3006H6.82523L9.76543 11.7889ZM9.82916 15.492L10.9556 12.8909L12.0808 15.492H9.82916Z" fill="#1F72CD"/>
</svg>
