<svg width="46" height="30" viewBox="0 0 46 30" fill="none" xmlns="http://www.w3.org/2000/svg">
<rect x="0.847656" width="45" height="30" rx="12" fill="white"/>
<rect x="1.34766" y="0.5" width="44" height="29" rx="11.5" stroke="black" stroke-opacity="0.15"/>
<path fill-rule="evenodd" clip-rule="evenodd" d="M11.7888 11.046C12.3775 11.0957 12.9662 10.7481 13.3342 10.3073C13.696 9.85414 13.9352 9.24578 13.8738 8.625C13.3526 8.64983 12.7087 8.97264 12.3407 9.4258C12.0034 9.81689 11.7152 10.4501 11.7888 11.046ZM18.7922 19.0416V9.36372H22.3797C24.2318 9.36372 25.5257 10.6549 25.5257 12.5421C25.5257 14.4293 24.2072 15.7329 22.3307 15.7329H20.2763V19.0416H18.7922ZM13.8677 11.164C13.349 11.1338 12.8758 11.3219 12.4935 11.4738C12.2475 11.5716 12.0392 11.6544 11.8807 11.6544C11.7029 11.6544 11.486 11.5672 11.2424 11.4692C10.9233 11.3409 10.5585 11.1942 10.1759 11.2012C9.29891 11.2136 8.48328 11.7165 8.0356 12.5173C7.11572 14.1189 7.79643 16.4902 8.68566 17.7939C9.12107 18.4395 9.64234 19.1472 10.3292 19.1223C10.6314 19.1108 10.8487 19.0174 11.0737 18.9208C11.3327 18.8095 11.6017 18.694 12.0218 18.694C12.4273 18.694 12.6846 18.8065 12.9315 18.9146C13.1663 19.0173 13.3919 19.116 13.7266 19.1099C14.438 19.0975 14.8857 18.4643 15.3211 17.8187C15.791 17.1258 15.9975 16.4495 16.0288 16.3469C16.0306 16.341 16.0318 16.337 16.0325 16.335C16.0317 16.3343 16.0259 16.3316 16.0157 16.3268C15.8586 16.254 14.658 15.6977 14.6465 14.2058C14.6349 12.9535 15.5988 12.3191 15.7505 12.2192C15.7597 12.2131 15.766 12.209 15.7688 12.2069C15.1555 11.2881 14.1988 11.1888 13.8677 11.164ZM28.2364 19.1161C29.1685 19.1161 30.0332 18.6381 30.4257 17.8808H30.4564V19.0416H31.8301V14.2244C31.8301 12.8277 30.7262 11.9275 29.0275 11.9275C27.4514 11.9275 26.2862 12.8401 26.2433 14.094H27.5802C27.6906 13.4981 28.2364 13.107 28.9846 13.107C29.8922 13.107 30.4012 13.5353 30.4012 14.3237V14.8576L28.5492 14.9693C26.8259 15.0749 25.8938 15.7888 25.8938 17.0303C25.8938 18.2843 26.8566 19.1161 28.2364 19.1161ZM28.6349 17.9677C27.8438 17.9677 27.341 17.5828 27.341 16.9931C27.341 16.3847 27.8254 16.0309 28.7514 15.975L30.4011 15.8695V16.4157C30.4011 17.3221 29.6407 17.9677 28.6349 17.9677ZM36.3865 19.4203C35.7917 21.115 35.111 21.6737 33.6637 21.6737C33.5533 21.6737 33.1853 21.6613 33.0995 21.6365V20.4756C33.1915 20.488 33.4184 20.5005 33.5349 20.5005C34.1911 20.5005 34.559 20.2211 34.7859 19.4948L34.9208 19.0665L32.4065 12.0206H33.958L35.7058 17.738H35.7365L37.4843 12.0206H38.9929L36.3865 19.4203ZM20.2761 10.6301H21.9871C23.2749 10.6301 24.0109 11.3254 24.0109 12.5483C24.0109 13.7712 23.2749 14.4727 21.981 14.4727H20.2761V10.6301Z" fill="black"/>
</svg>
