<svg width="46" height="30" viewBox="0 0 46 30" fill="none" xmlns="http://www.w3.org/2000/svg">
<rect width="46" height="30" rx="12" fill="white"/>
<rect x="0.5" y="0.5" width="45" height="29" rx="11.5" stroke="black" stroke-opacity="0.15"/>
<path d="M33 9V21C33 21.55 32.8042 22.0208 32.4125 22.4125C32.0208 22.8042 31.55 23 31 23H15C14.45 23 13.9792 22.8042 13.5875 22.4125C13.1958 22.0208 13 21.55 13 21V9C13 8.45 13.1958 7.97917 13.5875 7.5875C13.9792 7.19583 14.45 7 15 7H31C31.55 7 32.0208 7.19583 32.4125 7.5875C32.8042 7.97917 33 8.45 33 9ZM15 11H31V9H15V11ZM15 15V21H31V15H15Z" fill="black"/>
</svg>
