<svg width="18" height="13" viewBox="0 0 18 13" fill="none" xmlns="http://www.w3.org/2000/svg">
<path d="M0 0.5H18V12.5H0V0.5ZM9 3.5C9.79565 3.5 10.5587 3.81607 11.1213 4.37868C11.6839 4.94129 12 5.70435 12 6.5C12 7.29565 11.6839 8.05871 11.1213 8.62132C10.5587 9.18393 9.79565 9.5 9 9.5C8.20435 9.5 7.44129 9.18393 6.87868 8.62132C6.31607 8.05871 6 7.29565 6 6.5C6 5.70435 6.31607 4.94129 6.87868 4.37868C7.44129 3.81607 8.20435 3.5 9 3.5ZM4 2.5C4 3.03043 3.78929 3.53914 3.41421 3.91421C3.03914 4.28929 2.53043 4.5 2 4.5V8.5C2.53043 8.5 3.03914 8.71071 3.41421 9.08579C3.78929 9.46086 4 9.96957 4 10.5H14C14 9.96957 14.2107 9.46086 14.5858 9.08579C14.9609 8.71071 15.4696 8.5 16 8.5V4.5C15.4696 4.5 14.9609 4.28929 14.5858 3.91421C14.2107 3.53914 14 3.03043 14 2.5H4Z" fill="#438342"/>
</svg>
