<svg width="46" height="31" viewBox="0 0 46 31" fill="none" xmlns="http://www.w3.org/2000/svg">
<g clip-path="url(#clip0_16628_24218)">
<rect y="0.5" width="46" height="30" rx="12" fill="white"/>
<path d="M20.6992 30.5769L45.9858 23.375C45.9858 27.3525 42.7614 30.5769 38.7839 30.5769H20.6992Z" fill="#FD6020"/>
<path fill-rule="evenodd" clip-rule="evenodd" d="M39.3415 12.6388C40.7326 12.6388 41.4978 13.2445 41.4978 14.3885C41.5673 15.2633 40.9413 16.0035 40.1066 16.1381L41.9847 18.6279H40.524L38.9241 16.2054H38.785V18.6279H37.6025V12.6388H39.3415ZM38.785 15.3979H39.1328C39.8979 15.3979 40.2457 15.0614 40.2457 14.4558C40.2457 13.9174 39.8979 13.5809 39.1328 13.5809H38.785V15.3979ZM33.4986 18.6279H36.8374V17.6185H34.6811V16.0035H36.7679V14.9941H34.6811V13.6482H36.8374V12.6388H33.4986V18.6279ZM30.0208 16.6764L28.4209 12.6388H27.1689L29.7425 18.7625H30.3685L32.9422 12.6388H31.6901L30.0208 16.6764ZM15.9005 15.667C15.9005 17.3494 17.2917 18.7625 19.0306 18.7625C19.5871 18.7625 20.074 18.6279 20.5609 18.426V17.0802C20.2131 17.4839 19.7262 17.7531 19.1698 17.7531C18.0568 17.7531 17.1526 16.9456 17.1526 15.8689V15.7343C17.083 14.6576 17.9873 13.7155 19.1002 13.6482C19.6567 13.6482 20.2131 13.9174 20.5609 14.3212V12.9753C20.1436 12.7061 19.5871 12.6388 19.1002 12.6388C17.2917 12.5043 15.9005 13.9174 15.9005 15.667ZM13.7442 14.9268C13.0487 14.6576 12.84 14.523 12.84 14.1866C12.9096 13.7828 13.2573 13.4464 13.6747 13.5136C14.0225 13.5136 14.3703 13.7155 14.6485 13.9847L15.2745 13.1772C14.7876 12.7734 14.1616 12.5043 13.5356 12.5043C12.5618 12.437 11.7271 13.1772 11.6575 14.1193V14.1866C11.6575 14.9941 12.0053 15.4651 13.1182 15.8016C13.3965 15.8689 13.6747 16.0035 13.9529 16.1381C14.1616 16.2727 14.3007 16.4745 14.3007 16.7437C14.3007 17.2148 13.8834 17.6185 13.466 17.6185H13.3965C12.84 17.6185 12.3531 17.2821 12.1444 16.811L11.3793 17.5512C11.7966 18.2915 12.6313 18.6952 13.466 18.6952C14.5789 18.7625 15.4832 17.955 15.5527 16.8783V16.6764C15.4832 15.8689 15.1354 15.4651 13.7442 14.9268ZM9.70991 18.6279H10.8924V12.6388H9.70991V18.6279ZM4.21484 12.6388H6.30157C7.97096 12.7061 9.29256 14.052 9.223 15.667C9.223 16.5418 8.80565 17.3494 8.11007 17.955C7.48406 18.426 6.71892 18.6952 5.95379 18.6279H4.21484V12.6388ZM5.7451 17.6185C6.30156 17.6858 6.92758 17.4839 7.34493 17.1475C7.76228 16.7437 7.97095 16.2054 7.97095 15.5997C7.97095 15.0614 7.76228 14.5231 7.34493 14.1193C6.92758 13.7828 6.30156 13.581 5.7451 13.6482H5.39731V17.6185H5.7451Z" fill="black"/>
<path fill-rule="evenodd" clip-rule="evenodd" d="M24.1084 12.5C22.3694 12.5 20.9087 13.8459 20.9087 15.5955C20.9087 17.2778 22.2999 18.691 24.1084 18.7582C25.9169 18.8255 27.308 17.4124 27.3776 15.6628C27.308 13.9132 25.9169 12.5 24.1084 12.5Z" fill="#FD6020"/>
</g>
<rect x="0.5" y="1" width="45" height="29" rx="11.5" stroke="#CCCCCC"/>
<defs>
<clipPath id="clip0_16628_24218">
<rect y="0.5" width="46" height="30" rx="12" fill="white"/>
</clipPath>
</defs>
</svg>
