<svg width="46" height="30" viewBox="0 0 46 30" fill="none" xmlns="http://www.w3.org/2000/svg">
<rect x="1.34766" y="0.5" width="44" height="29" rx="11.5" fill="white"/>
<rect x="1.34766" y="0.5" width="44" height="29" rx="11.5" stroke="#CCCCCC"/>
<path fill-rule="evenodd" clip-rule="evenodd" d="M22.0391 18.7103V14.9266H23.992C24.7922 14.9266 25.4677 14.6585 26.0183 14.1296L26.1504 13.9956C27.1562 12.9007 27.0902 11.195 26.0183 10.182C25.4824 9.64574 24.7482 9.35526 23.992 9.37016H20.8571V18.7103H22.0391ZM22.0393 13.7795V10.5172H24.0218C24.4477 10.5172 24.8516 10.681 25.1526 10.979C25.7914 11.6046 25.8061 12.6474 25.1893 13.2954C24.8883 13.6157 24.4624 13.7944 24.0218 13.7795H22.0393Z" fill="#3C4043"/>
<path fill-rule="evenodd" clip-rule="evenodd" d="M31.664 12.8187C31.1574 12.3495 30.4673 12.1111 29.5937 12.1111C28.4704 12.1111 27.6261 12.5282 27.0682 13.355L28.1107 14.0179C28.4924 13.4518 29.0137 13.1688 29.6744 13.1688C30.0929 13.1688 30.4967 13.3252 30.8124 13.6083C31.1207 13.8764 31.2969 14.2637 31.2969 14.6734V14.949C30.8418 14.6957 30.2691 14.5616 29.5643 14.5616C28.7421 14.5616 28.0813 14.7553 27.5894 15.1501C27.0975 15.5448 26.8479 16.0662 26.8479 16.7291C26.8332 17.3324 27.0902 17.9059 27.5454 18.2932C28.0079 18.7104 28.5952 18.9189 29.2853 18.9189C30.1003 18.9189 30.7463 18.5539 31.2382 17.824H31.2896V18.7104H32.4202V14.7702C32.4202 13.9434 32.1706 13.288 31.664 12.8187ZM28.4559 17.5335C28.2136 17.3548 28.0668 17.0643 28.0668 16.7514C28.0668 16.4014 28.2283 16.1109 28.5441 15.88C28.8671 15.6491 29.271 15.5299 29.7483 15.5299C30.4091 15.5225 30.9231 15.6714 31.2903 15.9694C31.2903 16.4758 31.092 16.9153 30.7028 17.2877C30.3504 17.6452 29.8731 17.8463 29.3738 17.8463C29.0434 17.8538 28.7203 17.7421 28.4559 17.5335Z" fill="#3C4043"/>
<path d="M34.9604 21.5184L38.9102 12.3197H37.6254L35.7974 16.9079H35.7753L33.9032 12.3197H32.6184L35.21 18.3007L33.7417 21.5184H34.9604Z" fill="#3C4043"/>
<path d="M17.9585 14.1073C17.9585 13.7423 17.9291 13.3773 17.8704 13.0198H12.8854V15.083H15.7413C15.6238 15.7459 15.2421 16.3418 14.6841 16.7142V18.0549H16.3874C17.3858 17.1238 17.9585 15.7459 17.9585 14.1073Z" fill="#4285F4"/>
<path d="M12.8856 19.3509C14.3099 19.3509 15.5137 18.8742 16.3874 18.0549L14.6841 16.7142C14.2069 17.0419 13.5978 17.2281 12.8856 17.2281C11.5054 17.2281 10.3381 16.2822 9.91961 15.016H8.16497V16.4014C9.06064 18.2113 10.8887 19.3509 12.8856 19.3509Z" fill="#34A853"/>
<path d="M9.91961 15.016C9.69933 14.3531 9.69952 13.6306 9.91981 12.9603V11.5823H8.16489C7.40858 13.0943 7.40858 14.8819 8.16489 16.3939L9.91961 15.016Z" fill="#FBBC04"/>
<path d="M12.8856 10.7481C13.6418 10.7332 14.3686 11.0237 14.9119 11.5525L16.4243 10.0182C15.4625 9.10946 14.1998 8.61043 12.8856 8.62532C10.8887 8.62532 9.06056 9.77238 8.16489 11.5823L9.91961 12.9677C10.3381 11.694 11.5054 10.7481 12.8856 10.7481Z" fill="#EA4335"/>
</svg>
