<svg width="45" height="30" viewBox="0 0 45 30" fill="none" xmlns="http://www.w3.org/2000/svg">
<rect x="0.5" y="0.5" width="44" height="29" rx="11.5" fill="white"/>
<rect x="0.5" y="0.5" width="44" height="29" rx="11.5" stroke="#CCCCCC"/>
<path d="M37.5 14.8954C37.5 20.0199 33.3541 24.1658 28.2296 24.1658C26.0665 24.1658 24.0837 23.419 22.5129 22.1829C24.676 20.4834 26.0408 17.8568 26.0408 14.8954C26.0408 11.934 24.6502 9.30741 22.5129 7.60784C24.0837 6.37178 26.0665 5.625 28.2296 5.625C33.3541 5.625 37.5 9.79668 37.5 14.8954Z" fill="#F79E1B"/>
<path d="M22.5129 7.60784C22.5129 7.60784 22.5129 7.60784 22.5129 7.60784C24.6502 9.30741 26.0408 11.934 26.0408 14.8954C26.0408 17.8568 24.676 20.4834 22.5129 22.1829L22.487 22.1829C20.3497 20.5091 18.9592 17.8568 18.9592 14.8954C18.9592 11.9341 20.3498 9.30746 22.4871 7.60789C22.4871 7.60787 22.4871 7.60791 22.4871 7.60789L22.5129 7.60784Z" fill="#FF5F00"/>
<path d="M18.9592 14.8954C18.9592 11.9341 20.3498 9.30746 22.4871 7.60789C20.9163 6.37184 18.9335 5.62504 16.7704 5.62504C11.6459 5.62504 7.5 9.77096 7.5 14.8954C7.5 20.0199 11.6459 24.1658 16.7704 24.1658C18.9335 24.1658 20.9162 23.419 22.487 22.1829C20.3497 20.5091 18.9592 17.8568 18.9592 14.8954Z" fill="#EB001B"/>
</svg>
