<svg width="44" height="30" viewBox="0 0 44 30" fill="none" xmlns="http://www.w3.org/2000/svg">
<rect width="43.8462" height="30" rx="12" fill="white"/>
<rect x="0.5" y="0.5" width="42.8462" height="29" rx="11.5" stroke="black" stroke-opacity="0.15"/>
<path fill-rule="evenodd" clip-rule="evenodd" d="M28.6069 10.2972C28.5892 10.415 28.5686 10.5354 28.5457 10.6592C27.7555 14.8402 25.0519 16.2845 21.599 16.2845H19.8409C19.4186 16.2845 19.0626 16.6004 18.997 17.0297L17.8419 24.5797C17.7991 24.8617 18.0099 25.1156 18.2859 25.1156H21.4041C21.7733 25.1156 22.087 24.8392 22.1451 24.4639L22.1757 24.3008L22.7628 20.4615L22.8006 20.2509C22.858 19.8743 23.1724 19.5977 23.5416 19.5977H24.0079C27.029 19.5977 29.3941 18.3339 30.0853 14.6762C30.374 13.1483 30.2245 11.8725 29.4605 10.9752C29.2293 10.7047 28.9424 10.4801 28.6069 10.2972Z" fill="#298FC2"/>
<path fill-rule="evenodd" clip-rule="evenodd" d="M27.7799 9.9576C27.6591 9.92128 27.5346 9.88845 27.4068 9.85877C27.2783 9.82982 27.1468 9.80419 27.0114 9.78169C26.5373 9.70277 26.0179 9.66534 25.4615 9.66534H20.7648C20.6491 9.66534 20.5392 9.69226 20.4409 9.74094C20.2242 9.84826 20.0634 10.0596 20.0244 10.3183L19.0252 16.8396L18.9965 17.0297C19.0622 16.6005 19.4181 16.2846 19.8404 16.2846H21.5985C25.0514 16.2846 27.755 14.8395 28.5453 10.6592C28.5689 10.5355 28.5887 10.4151 28.6065 10.2973C28.4066 10.1879 28.1901 10.0944 27.9569 10.0148C27.8993 9.99504 27.8399 9.97604 27.7799 9.9576Z" fill="#22284F"/>
<path fill-rule="evenodd" clip-rule="evenodd" d="M20.0244 10.3183C20.0634 10.0596 20.2245 9.84827 20.4412 9.74169C20.5401 9.69283 20.6493 9.66591 20.7651 9.66591H25.4618C26.0181 9.66591 26.5376 9.70352 27.0116 9.78244C27.1471 9.80476 27.2786 9.83057 27.4071 9.85952C27.5348 9.88903 27.6594 9.92203 27.7802 9.95817C27.8401 9.97661 27.8995 9.99579 27.9577 10.0148C28.1908 10.0944 28.4075 10.1887 28.6074 10.2973C28.8425 8.75223 28.6054 7.70025 27.7948 6.74766C26.901 5.69882 25.288 5.25 23.2239 5.25H17.2315C16.8099 5.25 16.4502 5.56587 16.3851 5.99588L13.8892 22.2989C13.84 22.6214 14.0814 22.9123 14.397 22.9123H18.0965L20.0244 10.3183Z" fill="#28356A"/>
</svg>
