<svg width="46" height="31" viewBox="0 0 46 31" fill="none" xmlns="http://www.w3.org/2000/svg">
<rect x="0.5" y="1" width="45" height="29" rx="11.5" fill="white"/>
<rect x="0.5" y="1" width="45" height="29" rx="11.5" stroke="#CCCCCC"/>
<path d="M31.1451 10.3377C30.5785 10.1178 29.6799 9.875 28.5688 9.875C25.7322 9.875 23.7347 11.3547 23.7225 13.4703C23.6989 15.0311 25.1526 15.8981 26.2398 16.4185C27.3511 16.9503 27.7289 17.2974 27.7289 17.7715C27.7176 18.4995 26.8309 18.8351 26.0039 18.8351C24.8571 18.8351 24.2427 18.662 23.3089 18.257L22.9307 18.0834L22.5287 20.5228C23.2024 20.8231 24.4436 21.0895 25.7322 21.1012C28.7461 21.1012 30.7082 19.6444 30.7315 17.3899C30.7429 16.1528 29.9753 15.2049 28.3204 14.4303C27.3158 13.9331 26.7005 13.5978 26.7005 13.0891C26.7123 12.6265 27.2209 12.1528 28.355 12.1528C29.2888 12.1296 29.9749 12.3492 30.4946 12.5689L30.7544 12.6843L31.1451 10.3377Z" fill="#3362AB"/>
<path d="M20.7324 20.9392H17.8601L19.6566 10.072H22.5289L20.7324 20.9392Z" fill="#3362AB"/>
<path fill-rule="evenodd" clip-rule="evenodd" d="M38.5082 10.072H36.2865C35.6013 10.072 35.0808 10.2684 34.7852 10.9736L30.5186 20.9391H33.5325C33.5325 20.9391 34.0287 19.5978 34.1354 19.3089H37.8232C37.9057 19.6905 38.166 20.9391 38.166 20.9391H40.8255L38.5082 10.072ZM34.9627 17.0894C35.1992 16.4651 36.1094 14.0488 36.1094 14.0488C36.1047 14.0581 36.1417 13.9577 36.1969 13.808L36.1975 13.8062L36.198 13.805C36.2804 13.5814 36.4028 13.2495 36.4874 13.0084L36.6881 13.9448C36.6881 13.9448 37.232 16.546 37.3501 17.0894H34.9627Z" fill="#3362AB"/>
<path d="M15.4609 10.072L12.6479 17.4824L12.3405 15.9795L12.3403 15.9786L11.3359 10.9855C11.1705 10.2914 10.6622 10.0949 10.0358 10.072H5.41447L5.36719 10.2916C6.49432 10.5735 7.50244 10.9798 8.38576 11.485L10.9459 20.9277H13.9834L18.4982 10.072H15.4609Z" fill="#3362AB"/>
</svg>
