<svg width="158" height="155" viewBox="0 0 158 155" fill="none" xmlns="http://www.w3.org/2000/svg">
<g clip-path="url(#clip0_16255_39204)">
<path d="M85.8211 79.7004L78.273 87.7931L81.8959 98.2591L71.8433 93.5629L63.0397 100.222L64.3975 89.264L55.3035 82.9059L66.1735 80.8075L69.4003 70.2198L74.754 79.9127L85.8211 79.7004Z" fill="#E2C862"/>
</g>
<g clip-path="url(#clip1_16255_39204)">
<path d="M108.491 132.371L103.459 137.766L105.875 144.744L99.1729 141.613L93.3038 146.052L94.209 138.747L88.1463 134.508L95.393 133.109L97.5442 126.051L101.113 132.513L108.491 132.371Z" fill="#E2C862"/>
</g>
<g clip-path="url(#clip2_16255_39204)">
<path d="M100.909 28.7443L95.8773 34.1394L98.2926 41.1167L91.5909 37.986L85.7218 42.4253L86.6269 35.12L80.5643 30.8813L87.811 29.4823L89.9622 22.4239L93.5313 28.8858L100.909 28.7443Z" fill="#E2C862"/>
</g>
<g clip-path="url(#clip3_16255_39204)">
<path d="M134.545 60.5569L130.116 65.412L132.056 71.5174L126.358 68.8871L121.229 72.9156L122.148 66.4565L117.021 62.8368L123.275 61.4624L125.261 55.1967L128.202 60.8252L134.545 60.5569Z" fill="#E2C862"/>
</g>
<g clip-path="url(#clip4_16255_39204)">
<path d="M50.916 33.5433L46.4872 38.3984L48.4271 44.5037L42.7291 41.8734L37.5996 45.9019L38.5193 39.4429L33.392 35.8232L39.6462 34.4487L41.6318 28.183L44.5733 33.8115L50.916 33.5433Z" fill="#E2C862"/>
</g>
<defs>
<clipPath id="clip0_16255_39204">
<rect width="36.8475" height="36.8372" fill="white" transform="matrix(-0.866025 -0.5 0.499641 -0.866233 76.6953 113.424)"/>
</clipPath>
<clipPath id="clip1_16255_39204">
<rect width="24.565" height="24.5582" fill="white" transform="matrix(-0.866025 -0.5 0.499641 -0.866233 102.41 154.855)"/>
</clipPath>
<clipPath id="clip2_16255_39204">
<rect width="24.565" height="24.5582" fill="white" transform="matrix(-0.866025 -0.5 0.499641 -0.866233 94.832 51.2285)"/>
</clipPath>
<clipPath id="clip3_16255_39204">
<rect width="15.3531" height="15.3489" fill="white" transform="matrix(-0.866025 -0.5 0.499641 -0.866233 128.383 75.8906)"/>
</clipPath>
<clipPath id="clip4_16255_39204">
<rect width="15.3531" height="15.3489" fill="white" transform="matrix(-0.866025 -0.5 0.499641 -0.866233 44.75 48.877)"/>
</clipPath>
</defs>
</svg>
